<svg width="22" height="22" viewBox="0 0 22 22" fill="none" xmlns="http://www.w3.org/2000/svg">
<path d="M10.3674 2C5.75374 2 2 5.75374 2 10.3674C2 14.9813 5.75374 18.7348 10.3674 18.7348C14.9813 18.7348 18.7348 14.9813 18.7348 10.3674C18.7348 5.75374 14.9813 2 10.3674 2ZM10.3674 17.1901C6.60542 17.1901 3.54475 14.1294 3.54475 10.3674C3.54475 6.60546 6.60542 3.54475 10.3674 3.54475C14.1294 3.54475 17.19 6.60542 17.19 10.3674C17.19 14.1294 14.1294 17.1901 10.3674 17.1901Z" fill="white"/>
<path d="M20.7741 19.6816L16.3458 15.2533C16.044 14.9516 15.5554 14.9516 15.2536 15.2533C14.9519 15.5548 14.9519 16.044 15.2536 16.3455L19.6819 20.7738C19.8328 20.9246 20.0303 21.0001 20.228 21.0001C20.4255 21.0001 20.6232 20.9246 20.7741 20.7738C21.0758 20.4723 21.0758 19.9831 20.7741 19.6816Z" fill="white"/>
</svg>
