<?xml version="1.0" encoding="utf-8"?><svg xmlns="http://www.w3.org/2000/svg" xmlns:xlink="http://www.w3.org/1999/xlink"><symbol viewBox="0 0 32 32" id="Twitter" xmlns="http://www.w3.org/2000/svg"><path d="M32 6c-1.2.6-2.4.8-3.8 1 1.4-.8 2.4-2 2.8-3.6-1.2.8-2.6 1.2-4.2 1.6-1.2-1.2-3-2-4.8-2-3.4 0-6.4 3-6.4 6.6 0 .6 0 1 .2 1.4-5.4-.2-10.4-2.8-13.6-6.8-.6 1-.8 2-.8 3.4 0 2.2 1.2 4.2 3 5.4-1 0-2-.4-3-.8 0 3.2 2.2 5.8 5.2 6.4-.6.2-1.2.2-1.8.2-.4 0-.8 0-1.2-.2.8 2.6 3.2 4.6 6.2 4.6C7.6 25 4.8 26 1.6 26H0c3 1.8 6.4 3 10 3 12 0 18.6-10 18.6-18.6v-.8C30 8.6 31.2 7.4 32 6z"/></symbol><symbol viewBox="0 0 20 20" id="User" xmlns="http://www.w3.org/2000/svg"><path d="M17.071 12.929a9.963 9.963 0 00-3.8-2.384 5.78 5.78 0 002.51-4.764A5.788 5.788 0 0010 0a5.788 5.788 0 00-5.781 5.781 5.78 5.78 0 002.51 4.764 9.962 9.962 0 00-3.8 2.384A9.935 9.935 0 000 20h1.563c0-4.652 3.785-8.438 8.437-8.438 4.652 0 8.438 3.786 8.438 8.438H20a9.935 9.935 0 00-2.929-7.071zM10 10a4.224 4.224 0 01-4.219-4.219A4.224 4.224 0 0110 1.563a4.224 4.224 0 014.219 4.218A4.224 4.224 0 0110 10z"/></symbol></svg>