<?xml version="1.0" encoding="utf-8"?><svg xmlns="http://www.w3.org/2000/svg" xmlns:xlink="http://www.w3.org/1999/xlink"><symbol viewBox="0 0 512 512" id="Filter" xmlns="http://www.w3.org/2000/svg"><path d="M90.5 0h-30v362h-30v90h30v60h30v-60h30v-90h-30zm0 422h-30v-30h30zm391-60h-30V0h-30v362h-30v90h30v60h30v-60h30zm-30 60h-30v-30h30zM331.5 0h-30v222h-30v90h30v200h30V312h30v-90h-30zm0 282h-30v-30h30zM210.5 0h-30v53.652h-30v90h30V512h30V143.652h30v-90h-30zm0 113.652h-30v-30h30z"/></symbol><symbol viewBox="0 0 32 32" id="Twitter" xmlns="http://www.w3.org/2000/svg"><path d="M32 6c-1.2.6-2.4.8-3.8 1 1.4-.8 2.4-2 2.8-3.6-1.2.8-2.6 1.2-4.2 1.6-1.2-1.2-3-2-4.8-2-3.4 0-6.4 3-6.4 6.6 0 .6 0 1 .2 1.4-5.4-.2-10.4-2.8-13.6-6.8-.6 1-.8 2-.8 3.4 0 2.2 1.2 4.2 3 5.4-1 0-2-.4-3-.8 0 3.2 2.2 5.8 5.2 6.4-.6.2-1.2.2-1.8.2-.4 0-.8 0-1.2-.2.8 2.6 3.2 4.6 6.2 4.6C7.6 25 4.8 26 1.6 26H0c3 1.8 6.4 3 10 3 12 0 18.6-10 18.6-18.6v-.8C30 8.6 31.2 7.4 32 6z"/></symbol><symbol viewBox="0 0 20 20" id="User" xmlns="http://www.w3.org/2000/svg"><path d="M17.071 12.929a9.963 9.963 0 00-3.8-2.384 5.78 5.78 0 002.51-4.764A5.788 5.788 0 0010 0a5.788 5.788 0 00-5.781 5.781 5.78 5.78 0 002.51 4.764 9.962 9.962 0 00-3.8 2.384A9.935 9.935 0 000 20h1.563c0-4.652 3.785-8.438 8.437-8.438 4.652 0 8.438 3.786 8.438 8.438H20a9.935 9.935 0 00-2.929-7.071zM10 10a4.224 4.224 0 01-4.219-4.219A4.224 4.224 0 0110 1.563a4.224 4.224 0 014.219 4.218A4.224 4.224 0 0110 10z"/></symbol><symbol viewBox="0 0 18 18" id="clock" xmlns="http://www.w3.org/2000/svg"><path d="M12.207 10.59l-2.51-1.883V4.873a.697.697 0 10-1.394 0v4.183c0 .22.103.426.279.558l2.788 2.09a.691.691 0 00.976-.14.696.696 0 00-.139-.975z"/><path d="M9 0C4.037 0 0 4.037 0 9s4.037 9 9 9 9-4.037 9-9-4.037-9-9-9zm0 16.606c-4.193 0-7.606-3.413-7.606-7.606S4.807 1.394 9 1.394c4.194 0 7.606 3.413 7.606 7.606S13.193 16.606 9 16.606z"/></symbol><symbol viewBox="0 0 471.7 471.7" id="heart" xmlns="http://www.w3.org/2000/svg"><path d="M433.601 67.001c-24.7-24.7-57.4-38.2-92.3-38.2s-67.7 13.6-92.4 38.3l-12.9 12.9-13.1-13.1c-24.7-24.7-57.6-38.4-92.5-38.4-34.8 0-67.6 13.6-92.2 38.2-24.7 24.7-38.3 57.5-38.2 92.4 0 34.9 13.7 67.6 38.4 92.3l187.8 187.8c2.6 2.6 6.1 4 9.5 4 3.4 0 6.9-1.3 9.5-3.9l188.2-187.5c24.7-24.7 38.3-57.5 38.3-92.4.1-34.9-13.4-67.7-38.1-92.4zm-19.2 165.7l-178.7 178-178.3-178.3c-19.6-19.6-30.4-45.6-30.4-73.3s10.7-53.7 30.3-73.2c19.5-19.5 45.5-30.3 73.1-30.3 27.7 0 53.8 10.8 73.4 30.4l22.6 22.6c5.3 5.3 13.8 5.3 19.1 0l22.4-22.4c19.6-19.6 45.7-30.4 73.3-30.4 27.6 0 53.6 10.8 73.2 30.3 19.6 19.6 30.3 45.6 30.3 73.3.1 27.7-10.7 53.7-30.3 73.3z"/></symbol><symbol viewBox="0 0 512 512" id="image" xmlns="http://www.w3.org/2000/svg"><path d="M446.575 0H65.425C29.349 0 0 29.35 0 65.426v381.149C0 482.65 29.349 512 65.425 512h381.15C482.651 512 512 482.65 512 446.574V65.426C512 29.35 482.651 0 446.575 0zm35.267 446.575c0 19.447-15.821 35.267-35.267 35.267H65.425c-19.447 0-35.268-15.821-35.268-35.267v-55.007l99.255-84.451a9.745 9.745 0 0112.562-.075l62.174 51.628c5.995 4.977 14.795 4.569 20.304-.946L372.181 209.77c2.67-2.675 5.783-2.935 7.408-2.852 1.62.083 4.695.661 7.078 3.596l95.176 117.19v118.871zm0-166.71l-71.766-88.366a39.98 39.98 0 00-28.942-14.701c-11.268-.57-22.317 3.672-30.294 11.662L212.832 326.681l-51.59-42.839a39.85 39.85 0 00-51.373.308l-79.712 67.822V65.426c0-19.447 15.821-35.268 35.268-35.268h381.15c19.447 0 35.267 15.821 35.267 35.268v214.439z"/><path d="M161.174 62.995c-40.095 0-72.713 32.62-72.713 72.713 0 40.094 32.619 72.713 72.713 72.713s72.713-32.619 72.713-72.713-32.618-72.713-72.713-72.713zm0 115.269c-23.466 0-42.556-19.091-42.556-42.556 0-23.466 19.09-42.556 42.556-42.556 23.466 0 42.556 19.091 42.556 42.556s-19.09 42.556-42.556 42.556z"/></symbol><symbol viewBox="0 0 22 22" id="search" xmlns="http://www.w3.org/2000/svg"><path d="M10.367 2C5.754 2 2 5.754 2 10.367c0 4.614 3.754 8.368 8.367 8.368 4.614 0 8.368-3.754 8.368-8.368C18.735 5.754 14.98 2 10.367 2zm0 15.19a6.83 6.83 0 01-6.822-6.823 6.83 6.83 0 016.822-6.822 6.83 6.83 0 016.823 6.822 6.83 6.83 0 01-6.823 6.823z"/><path d="M20.774 19.682l-4.428-4.429a.772.772 0 10-1.092 1.093l4.428 4.428a.77.77 0 001.092 0 .772.772 0 000-1.092z"/></symbol><symbol viewBox="0 0 512 512" id="video" xmlns="http://www.w3.org/2000/svg"><path d="M338.95 243.28l-120-75A15.002 15.002 0 00195.999 181v150a15 15 0 0022.95 12.72l120-75a15 15 0 00.001-25.44zM226 303.936v-95.873L302.698 256z"/><path d="M437 61H75C33.645 61 0 94.645 0 136v240c0 41.355 33.645 75 75 75h362c41.355 0 75-33.645 75-75V136c0-41.355-33.645-75-75-75zm45 315c0 24.813-20.187 45-45 45H75c-24.813 0-45-20.187-45-45V136c0-24.813 20.187-45 45-45h362c24.813 0 45 20.187 45 45z"/></symbol></svg>