<?xml version="1.0" encoding="utf-8"?>
<!-- Generator: Adobe Illustrator 23.1.1, SVG Export Plug-In . SVG Version: 6.00 Build 0)  -->
<svg version="1.1" id="Layer_1" xmlns="http://www.w3.org/2000/svg" xmlns:xlink="http://www.w3.org/1999/xlink" x="0px" y="0px"
	 viewBox="0 0 358 323" style="enable-background:new 0 0 358 323;" xml:space="preserve">
<style type="text/css">
	.st0{fill-rule:evenodd;clip-rule:evenodd;fill:#FFCF48;}
	.st1{fill-rule:evenodd;clip-rule:evenodd;}
	.st2{fill:#7E6FDA;}
	.st3{fill:#FECE54;}
	.st4{fill:url(#Path_643_1_);}
</style>
<g id="Group_581" transform="translate(-273 -943.109)">
	<g id="react-group-199" transform="translate(273.024 959.268)">
		<g id="react-group-200" transform="translate(-0.024 -0.268)">
			<path id="react-path-203" class="st0" d="M92.8,175.8c1.9,14.4,3.8,28.8,5.8,43.3l1.6,11.6c0.2,1.5,0,4.4,0.8,5.7
				c0.3,0.5,1,0.7,1.5,1l5.3,2.8l44.5,23.9l42.7,22.9c1.5,0.8,3.9,2.9,5.5,2.3c1.6-0.7,3-1.6,4.4-2.6l7.9-4.6l47.9-28l19.7-11.6
				l5.4-3.2c0.9-0.6,1.1-0.5,1.4-1.5c1.4-3.5,2-7.5,3-11.1l3.2-12c0.5-1.8,0.3-2-0.5-3.7l-4.7-10.2L277.8,178
				c-1.4-3.1-4.8-5.2-7.2-7.5l-37.6-35l-2.9-2.7c-0.2,5.3-1.2,11.1,0.3,16.2l7.6,25.4l3.7,12.3c0.2,0.8,1.6,3.8,1.2,4.4
				c-0.2,0.4-2,0.7-2.3,0.9l-4.9,1.9l-13.6,5.2l-12.3,4.7c-1.4,0.5-3,1.5-4.5,1.4c-1.4-0.2-2.7-0.6-4.1-1l-6.7-1.7l-13.1-3.4
				c-4.9-1.3-9.1-5-13.3-7.8l-21.7-14.2c-1.7-1.1-1.7-1.7-2.3-3.7l-4.5-13.4c-0.8-2.4-1.8-4.8-2.4-7.2c-1-4-1.6-8.2-2.4-12.2
				l-0.7-3.7l-9.1,3.7c-0.4,0.2-2.6,0.7-2.8,1.1c-0.1,0.3,0.5,1.5,0.6,1.8l7.5,22.3l2.4,7l-5.7-8.9l-4.5,15l-10.5-12.2l-3.6,12.2
				l-11.3-15c-0.4,2.6-0.9,5.2-1.3,7.8c-0.1,0.8-0.1,3-0.6,3.7C94.9,176.1,93.6,175.8,92.8,175.8"/>
			<g id="react-group-201" transform="translate(38.519 24.13)">
				<path id="react-path-204" class="st1" d="M293.8,182.9c-0.2,6.8-0.1,15.6-3.8,21.6c-0.6,1-2.6,4-2.9,1.3
					c-0.2-2.6,0.4-5.2-0.2-7.8c-0.3-1.4-1.5-4.5-3.4-3.2c-1,0.6-1.3,2.2-1.6,3.2c-0.6,1.5-1.2,3-1.8,4.4c-2.1,5.2-4.3,11.3-9,14.7
					c0.6-4.4,2.3-9.2,1.2-13.7c-0.4-1.5-1.5-4.3-3.5-3.4c-1.9,0.9-3.2,4.8-4.1,6.5c-2.8,5.3-5.6,10.4-8.8,15.5
					c-1.5,2.5-3.3,4.9-5.3,7.1c-1.3,1.4-2.9,3.7-4.9,3.9c0-3.9,1.3-7.7,2.5-11.3c1.3-3.9,2.4-7.9,3.6-11.9c1.1-3.4,2-6.8,2.7-10.3
					c0.3-1.5,0.5-3,1.8-3.9c1.1-0.8,2.9-1.2,4.1-1.9c3.3-1.6,6.5-3.4,9.6-5.4c1.2-0.8,2.3-1.9,3.6-2.6c1.5-0.8,2.9-1.6,4.2-2.6
					c6.1-4.4,11.1-10,14.9-16.5c0.7,2.6,1.2,5.2,1.4,7.9C294,177.3,293.9,180.1,293.8,182.9 M245.1,214.1c-0.9-1.6-2.4-0.9-3.7-0.2
					c-2,1.2-3.9,2.4-5.9,3.6c-4,2.4-8,4.9-11.9,7.5c-8,5.2-16.3,9.4-24.8,13.8c-8.1,4.4-16.1,9.2-23.7,14.4
					c-1.8,1.2-3.7,2.5-5.4,3.8c-1.6,1.2-2.8,2.8-4.5,3.9c-1.7,1.1-2.9,0.2-4.5-0.6c-2.1-1-4.2-1.9-6.3-2.8
					c-8.5-3.7-17-7.5-25.2-11.7c-8.2-4.1-16-8.9-23.8-13.7c-3.7-2.3-7.4-4.7-11.1-7c-3.9-2.5-8-4.4-12.1-6.5
					c-1.8-0.9-3.4-2.2-5.3-3.1c-2-0.7-4-1.7-5.8-2.8c-0.7-0.6-1.5-1.2-2.4-1.7c-0.7-0.3-1.6-0.4-2.3-0.8c-1.5-0.7-1.9-2.2-2.2-3.7
					c-1.9-9.9-2.8-20-3.9-30c-0.6-5.6-1.3-11.2-2.1-16.8c-0.4-2.5,0.4-4.5,0.8-6.9c0.5-2.9,0.6-5.8,1-8.7c1.3,2.8,2.9,5.5,4.6,8.1
					c1.4,1.8,3.7,4.4,6.3,4.4c3.9-0.1,3.8-6.9,3.9-9.5c1.8,1.6,2.3,4.2,3.8,6.1c1.4,1.7,3.2,3.8,5.3,4.6c4.4,1.6,4-6.6,3.7-8.9
					c-0.1-1.2-0.8-3,0.8-2.5c1.4,0.5,2.8,2.5,4,3.4c2.1,1.6,4.4,2.9,6.5,4.5c2.7,1.9,5.5,3.3,8.2,5c1.7,1.1,3.5,1.4,5.4,2.2
					c2.7,1.2,5.1,3,7.7,4.4c5.2,2.9,10.6,5.3,16.3,7.1c1.8,0.6,4.2,2.1,5.6,0.5c0.8-1.2,1.5-2.4,2.1-3.6c0.9-1.4,1.9-2.8,2.9-4.1
					c3.5-4.8,7.5-9.2,11.8-13.2c5.1-4.7,10.6-8.8,16.6-12.3c2.6-1.5,13.2-8.2,15.5-3.5c-1.9,0-3.7,0.5-5.2,1.5
					c-0.4,0.2-2.5,1.7-2,0.4c-0.6,0.1-1.1,0.9-1.6,1.2c-0.9,0.7-1.9,1.3-2.9,1.8c-1,0.3-1.9,0.7-2.8,1.2c-0.3,0.2-0.5,0.6-0.8,0.8
					l-0.8,0l-0.4,1.4c-0.5-1.5-1.1,0.4-1.9,1.1c-0.5,0.4-1.1,0.7-1.8,1c-0.4,0.2-0.5-0.2-0.9,0.1c-0.4,0.3-0.6,0.9-1,1.3
					c-0.5,0.4-1,0.8-1.6,1.2c-1,0.7-2.1,1.3-3.1,2c-1.4,0.9-2.1,2.5-3.4,3.4c-0.6,0.5-1.6,0.5-1.9,0.8c-0.8,0.7-0.6,1.8-2.1,1.9
					c0.1,0.2,0.2,0.5,0.3,0.7c-0.4-0.1-0.7-0.2-1-0.5c0.1,1.6-1.5,2.1-2.4,3.1c-0.6,0.6-1.1,1.3-1.6,2c-0.1,0.1-0.2,1-0.2,1
					c-0.1,0.1-1-0.7-0.9-0.6c-0.2,1.5-1.7,2.8-2.3,4.2c-0.3,0.9-0.7,1.7-1.3,2.4c-0.2,0.1-0.7,0-1.2,0.5c-0.4,0.4-0.7,0.9-0.8,1.4
					c-0.1,0.3,0,1.1-0.1,1.3c-0.2,0.3-0.6,0-1,0.2c-0.7,0.5-0.7,1.2-1.7,1.3c0.7,1.6,4.8,2.2,6.2,2.6c4.3,1.2,8.5,2.8,12.5,4.7
					c1,0.5,2,1,2.2,2.2c0.3,1.7-0.6,3.9-0.8,5.6c-0.4,4.6-0.6,9.3-0.4,13.9c0.1,4.4,0.2,8.8,0.4,13.1c0.2,4,1,8,1.4,12
					c0.1,1.1,0,6.1,1.9,5.8c1.6-0.2,0.6-3.6,0.6-4.6c-0.1-2.1,0.4-4.3,0.4-6.5c0-1,0.4-1.9,0.5-2.9s-0.4-1.8-0.3-2.8
					c0.1-1,3-6.6,0.3-6c0.2-0.8,0.3-1.6,0.5-2.4c0.3,0.3,0.5,0.6,0.7,0.9c0.2-1.7,0.2-3.5,0.3-5.2c0.2-0.8,0.3-1.6,0.3-2.4
					c0-0.3,0-0.7-0.1-1c-0.2-0.2-0.4-0.3-0.6-0.3c-0.2-0.3-0.1-0.7,0.1-1c0.1-0.3,0.3-0.5,0.6-0.5c0.6-0.1,0.6-0.4,0.2-1
					c0.2-1,0.3-2,0.1-3.1c-0.1-1,0.4-2.9-0.1-3.7c-0.6-1-0.9,0-1-1.4c0-0.4,0-0.8,0.1-1.2c0.1-0.3,0.5-0.2,0.6-0.3
					c0.3-0.8,0.4-2.3-0.8-2.2c0-0.6,0.1-1.1,0.1-1.7c0.9,1,0.6,0.2,1.1-0.4c0.6-0.6,1.4-1,2.3-1.2c2.5-0.8,5-2,7.5-3
					c5.3-2,10.6-3.9,15.7-6.3c10.7-5.1,21.3-10.6,32.1-15.6c-0.8-1.4-0.3-1.5,0.3-2.8c0.8,0.5,0.6,0.2,1.1,0.1
					c0-0.4,0.1-0.6,0.4-0.4c0.3,0.1,0.5,0.1,0.8,0.1c0.7,0.1,1.2,0.5,1.8,0.6c0.2,0.1,0.4,0.3,0.7,0.3c0.2,0,0.4-0.2,0.5-0.3
					c1,0.2,1.3,0.9,1.4,2c0,0.2-0.6,0.4-0.4,0.6c0.3,0.4,1.1,0.3,1.5,0.4c-0.1,0.5-0.2,0.9-0.3,1.4c1.9-0.9,1.4,1.9,2,2.8
					c0.2,0.3,0.5,0.1,0.7,0.3c0.2,0.4,0.2,0.9,0.4,1.3c0.5,0.9,1,0.8,1.4,1.8c2.5,5.2,5.8,10.1,8.1,15.4c1.1,2.5,2.2,5.1,3.3,7.6
					c1.1,2.3,1.7,4.3,0.9,6.8c-1.8,5.9-3.7,11.8-6.1,17.5L245.1,214.1 M119.7,257.8l-0.5,0.9C118.8,256.5,119.8,257.5,119.7,257.8
					 M111.8,253.7c-0.5-0.2-0.3-1-0.3-1.4c0.3,0.4,0.7,0.9,1,1.3L111.8,253.7 M90.1,245.5l1.6-0.9C91,245.8,91,245.8,90.1,245.5
					 M55.9,133.2c-0.9,2.1,1.8,15.3-0.7,15.7c-0.4-1.2-0.4-4.3-1.9-4.7c-1.8-0.5-1.6,2.8-1.9,3.8c-3.7-2.6-5.4-7.6-7.2-11.6
					c-2.2-5.1-4.1-10.3-5.8-15.6c-1.5-4.5-2.7-9.1-4.1-13.6c-1-2.8-1.8-5.7-2.5-8.6c-0.1-0.6-0.7-2.2-0.2-2.8c0.7-0.9,3,0.1,3.8,0.4
					c4.9,1.5,10.1,2.1,15.1,3c5.6,1,11.3,1.9,16.9,2.7c1.4,0.2,2.8,0.4,4.3,0.5c1.1,0,2.1,0.1,3.2,0.4c1.8,0.8,2.1,4,2.8,5.7
					c2.5,6.2,5.3,12.2,7.9,18.3c2.3,5.5,4.1,11.4,7.4,16.4c-2.5-1.1-5.7-6.9-8.4-3.6c-1.2,1.4-0.9,3.4-0.8,5.1
					c0.1,2.5,0.2,5,0.2,7.5c-2.7-0.7-4.6-3.8-6-6c-1.9-2.8-3.2-6-4.1-9.2c-0.4-1.5-1.4-1.5-2.3-2.4c-0.6-0.6-0.9-1.3-1.7-0.5
					c-1,1-0.3,3.9-0.2,5.2c0.4,2.9,1.8,7.5,0.5,10.2c-1.8,3.7-6.6-5.6-7.2-7C62.9,141.9,57.7,128.7,55.9,133.2 M52.5,69.4l0.9,0.1
					c-0.2,0.2-0.8,1-1.2,0.8L52.5,69.4 M68.7,66l-0.3,0.3c-0.4-0.5-0.3-1.3-0.3-2C68.6,64.7,68.9,65.4,68.7,66 M70,72v1.8
					C68.8,73.3,68.7,73,70,72 M71.4,74.3c-0.8-0.2-0.9-0.4-0.8-1.7L71.4,74.3 M76.3,87.5c-0.4,0.9-2.4-1.3-2.4-1.9
					c0.1-0.6,0.4-0.8,0.8-0.4c0.1,0.1-0.1,0.6,0,0.8C75.2,86.6,75.7,87.1,76.3,87.5 M76.3,93c-0.5,1.3-1.4-0.7-0.1-0.8
					C76.3,92.5,76.4,92.8,76.3,93 M75.3,91c-0.2-0.3-0.4-0.5-0.6-0.8c0.7,0.1,1.3,1.2,2,0.5C76.6,91.7,75.9,91.7,75.3,91 M30,74.1
					c-1.1-1.2,6.2-2.1,7.1-2.3c6.4-1.6,12.6-3.7,18.5-6.5c2.9-1.3,5.7-2.6,8.5-4.1c1.4-0.5,2.7-1.2,3.9-2.1c0.7-0.7,0.7-1.2,1.6-1.6
					c0.8-0.3,0.8,0,1.2-0.6c0.3-0.7,0.4-1.4,0.3-2.1c-0.3-1.1-0.9-0.2-1.6-0.9c-0.5-0.5-0.4-2.1-0.3-2.7c0.2,0.3,0.3,0.6,0.3,1
					c0.8-0.4,0.5-1.7,1.3-1.9c0.9-0.2,0.8,0.5,1,1.2c0.7-1,0.1-1.9-0.2-2.8c1.9-0.5,3.9-0.5,5.8-0.1c1.3,0.5,2.5,1.6,3.9,1.8
					c1.4,0.2,1.7-0.5,2.7-1.1c0.8-0.5,1.6,0.1,2-0.3c-0.3,1.4-2.5,1.2-2.3,2.9c0.1,0.8,1.1,1.5,1.5,2.1c0.5,0.8,1,1.6,1.4,2.5
					c1.3,3.5,2.2,7.1,2.7,10.8c1.5,8.8,1.7,17.8,3.1,26.7c0.7,4.2,1.3,8.4,1.7,12.7c0.1,1.1,0.7,3.5,0.2,4.5
					c-0.4,0.9-1.5,0.9-2.3,1.1c-1.7,0.4-3.4,0.9-5,1.6c-1.5,0.6-1.9,0.9-2.9-0.5c-0.8-1.4-1.5-2.9-2-4.4c-0.8-1.9-1.8-3.7-2.8-5.5
					c1.4,0.2,2.8-0.8,3-2.3c0-0.2,0-0.5,0-0.7c-0.1-2.1-1.8-2.7-2.5-4.4c-0.7,0.9-0.8,0.9-1.3,0.1c-0.6-1.3-1-2.6-1.3-4l0.8,0.8
					c0.6-0.9-0.4-2.3-0.7-3.1c-0.5-1.3-0.6-2.7-1.1-3.9c-0.3-0.7-0.9-1.2-1-2c-0.1-0.5,0.3-0.9,0.2-1.4c-0.2-0.9-1.1-1.8-1.4-2.6
					c-0.5-1.3-1-2.5-1.5-3.8c-0.8-1.8-0.6-3.6-0.7-5.5c-0.1-1.9-0.8-3.8-1-5.8c-0.2-1.3,0.3-3-0.7-4.1c-0.1,1.8,0.4,1.8-1.3,2.1
					c-1.9,0.4-3.3,1.8-5.1,2.2c-0.4,0.1-0.6-1.5-0.5,0.7c-0.9-0.6-2.7,0.2-2,0.5c-0.5,0.6-1.6,0.2-1.7,1c-1.8-1.7-4.6,4.1-6.7,1.1
					c-0.3,1.9-1.9,3.4-3.9,3.6c-0.9,0.2-1.7,0.4-2.5,0.8c-0.2,0.1-0.2,0.3-0.5,0.4c-0.3,0.1-0.8-0.2-1.1-0.2c-0.5,0.1-1,0.8-1.7,0.9
					c-0.8,0.1-1.6,0.1-2.4,0c-0.8-0.2-1.6-0.2-2.4,0.1c-0.9,0.3-1.8,1.1-2.6,0.2C34.5,76.2,31.5,75.7,30,74.1 M87.7,48.1
					c-0.9-0.1-0.3-0.9,0.1-1.2C89.1,46.2,88.7,48.2,87.7,48.1 M35.4,55.8c5.5-8,15-13.5,23.4-18.1c4.6-2.5,9.2-5,14-7
					c2.4-1,4.8-2,7.2-2.9c1.3-0.5,2.6-0.9,3.9-1.4c0.4-0.2,0.9-0.4,1.4-0.5c-0.1,0,0.9,0.3,0.7,0.4c0.7-0.3,1-1,1.7-1.3
					c0.9-0.3,1.9-0.5,2.9-0.5c0.8,0,1.5,0.3,2.3,0.3c0.5-0.1,1-0.1,1.4-0.3c0.3,0,0.2,0.4,0.4,0.4c0.1,0,0.7-0.2,0.8-0.2
					c0.2,0.2,0.5,0.8,0.7,1c0.7,0.7,1.5,1.2,2.4,1.5c1,0.4,3.6,0.9,2.4,2.5c0.8-0.1,1.2,0.6,0.2,0.8c-0.6,0.1-0.8-0.4-1.2-0.8
					c-1.4-1.1-3-1.7-4.7-1.9c-0.8,0-1.4,0.6-2.1,0.8s-1.1-0.1-1.7-0.1c-0.7,0.1-1.2,0.7-1.9,0.8c-0.7,0.1-1-0.3-1.6-0.3
					c-0.7,0-1.4,0.6-2,0.8c-1,0.3-2,0.6-2.9,1.1c-2,1-4.2,1.4-6.3,2.3c-1.7,0.7-3.5,1.1-5,1.9c-1.7,0.9-3.4,1.8-5.1,2.7
					c-1.6,0.7-3.3,0.9-5,0.8c0,2.4-1.2,0.7-2.4,1.8c0.3,0.3,0.6,0.4,1,0.6c-1.3,0.5-2.5,1.2-3.8,1.8c-1.3,0.6-2.7,0.8-3.6,1.9
					c-0.8,1.1-0.5,0.5-1.7,1c-0.5,0.3-1,0.7-1.4,1.2c-0.7,0.7-0.8,1.7-1.2,0.3c-0.1,0.2-0.6,1.3-0.6,1.3c-0.5-0.5-0.6,0.1-0.8,0.3
					c0.1,0.5-0.1,0.8-0.6,0.9c-0.3,0.2-0.6,0.4-0.8,0.6c-1.2,0.6-2.2,1.4-3.1,2.4c-0.5-0.2-0.7-0.8-0.5-1.3c0,0,0-0.1,0.1-0.1
					c-1,0.9-2.2,1.9-2.5,3.4c-0.1-0.1-0.3-0.2-0.4-0.3c-0.4,0.3,0.1,1.1,0.4,1.3c1.1-0.4-0.3-0.3,0.5-0.2c0.2,0,0.4,0.2,0.7,0.2
					c0.7,0,1.4,0,2.1-0.1c1.5-0.3,3.1-0.7,4.6-1.1c1.6-0.5,3.3-1,4.9-1.6c1.3-0.5,2.6-1,3.9-1.6c0.5-0.2,1-0.4,1.6-0.7
					c1-0.4,1.5-1.1,1.4,0.1c0.8-0.1,1.5-1.2,2.1-1.7C62,48.5,63,48,64,47.7c0.4-0.2,0.7-0.3,1.1-0.3c0.2,0,0.3,0.6,0.5,0.5
					c0.9-0.2,0.5-0.7,0.9-1.4c0.9-1.6,3.3-2.4,4.7-3.3c0.9-0.6,1.6-1.3,2.4-2c0.3-0.3,0.7-0.4,1.1-0.5c0.3-0.1,0.7,0.6,0.9-0.1
					c-0.7-0.3-1.4-0.7-2.1-0.9c-0.5-0.2,0.1-0.7-0.7-0.4c-0.3,0.1-0.4,0.8-0.6,1c-0.9-0.8-3.4,0-4.5,0.4c-0.1,0-0.4-0.2-0.6-0.1
					c-0.6,0-1,0.9-1.5,1.2c-1.1,0.8-2.3,1.5-3.6,1.9c0.4-1.9,3-2.7,4.5-3.5c2.2-1.1,4.3-2.5,6.7-3c1.6-0.4,3.8-0.7,4.5,1.2
					c0.4,1.1,0.5,3.9-0.9,4.5c-0.2-0.5,0.3-1,0.5-1.4c-1.4,0.5-1.6,2.2-2.7,3.1c-0.4,0.3-0.8,0.7-1.1,1.1c-0.2,0.6-0.6,1-1.1,1.4
					c-1.1-2.4-0.9,0.9-1.5,1.3c0.2-0.2-0.9,0.3-0.8,0.3c-0.1,0-0.6-0.8-0.9-0.8c-0.6,0-0.5,0.7-0.8,1c-0.9,1.2-2.3,1.8-3.7,1.6
					c0,0.8,0.2,1.7-0.9,1.8l-0.1-1.7c-0.7,0.6-1.3,1.2-1.8,1.8c-0.5,0.8-0.5,1.3-1.4,1.8c-1.2,0.8-2.6,1.4-4,1.7
					c0.3-0.3,0.2-0.7-0.1-1c0,0-0.1,0-0.1-0.1c-0.6,0.6-1.4,0.6-2,1.2c2.1,0.9-1.6,0.8-2.1,0.9c-0.3,0.1-0.6,0.3-0.9,0.4
					c-0.4,0.1-0.5-0.4-0.8-0.2c-0.5,0.2-0.3,0.8-0.9,1.1c-0.4,0.2-1.1,0.2-1.5,0.4c-1.1,0.5-3.3,1.5-4,0.2c-0.4,2.2-4.1,0.8-5.4,0.7
					C37,59.2,33.7,58.3,35.4,55.8 M43.3,33.6c0.2-0.2,0.5-0.2,0.7,0c0,0,0,0,0.1,0.1c-0.4-2,2.5-2.9,3.8-3.7
					c1.7-1.1,3.6-3.3,5.8-3.1l-1.1,0.8l1.6,0.2l-0.9,1.3c-0.5-2.7-3,0.7-3.8,1.2c-0.8,0.4-1.5,0.9-2.1,1.5c-0.7,0.6-1.2,1.7-2.3,1.1
					c-0.1,1.5-1.3,1.1-2.2,2C42.9,34.5,43.1,34,43.3,33.6 M54.6,26c2.6-1,4.9-2.8,7.4-4.1c2.4-1.2,4.8-2.4,7.2-3.5
					c1.2-0.6,3.5-2.1,4.8-1.3c1.9,1-0.7,1.4-1.4,1.7c-0.2-1.6-1.1-0.2-0.6,0.7c-1.4-0.6-4.6,1.8-5.9,2.5c-0.3,0.2-0.2,0.2-0.5,0.4
					c-0.1,0-1,0.2-1.2,0.3c-1.3,0.4-2.1,0.1-2.7,1.6l-0.3-1.1c-0.8,1.8-3.3,2.6-4.8,3.7c-0.4,0.3-1.6,1.3-2.1,1.1
					C53.7,27.8,54,26.2,54.6,26 M102,31.4c1.1,0.1,0,0.6,0.3,0.9c0,0,0.7,0.6,0.6,0.4c0.1,0.2,0.4,0.2,0.6,0.7
					c0.5,1.5-1.8,3.1-2.5,4c-1.5,1.7-2.4,3.9-3.9,5.5c-0.6,0.7-1.5,1.3-2.4,1.5c-0.7,0.2-1.4,0-2,0.6c-0.5,0.5-0.4,0.8-1,1.1
					c-1,0.5-1.4,0.1-2.4,1.1c-0.8-2.3,1.6-2.2,2.8-3.5c1.7-1.7,3.6-3.5,5.2-5.3c1.2-1.5,2.2-3.2,2.7-5.1c0.2-0.6,0.4-2,1-2.4
					C101.9,30.5,101.4,31.4,102,31.4 M107.5,89.9c2.9-3.3,6.5-6.1,10.4-8.1c1.4-0.7,3.4-1.6,4.8-0.5c1.4,1.1,1.1,3.2,0.5,4.6
					c-0.5-0.2,0-2.2-0.3-2.7c-0.6-1.1-2-0.5-2.9-0.1c-1.1,0.4-2,0.9-2.9,1.7c-0.3,0.3-1,0.6-1.2,0.8c-0.3-0.1-0.5,0-0.6,0.3
					c0.1,0.2,0.1,0.4,0,0.6c0,0.1-0.5-0.2-0.5-0.1c-0.3,0.2-0.5,0.5-0.8,0.7c-0.6,0.4-1.1,0.8-1.5,1.3c-1,1.2-2.3,1.9-3.3,3
					c-0.2,0.3-0.4,0.6-0.5,1c-0.5,0.6-1.2,1-1.8,1.7c-1,1-2,1.9-3.1,2.7c-0.5,0.4-1,0.8-1.4,1.4c-0.1,0.5-0.2,1.1-0.2,1.6
					c-1.1,1.2-0.9-1.2-0.8-1.5C102.3,94.8,105.3,92.3,107.5,89.9 M101.5,112l0.4,1.5C101,112.7,101,112.7,101.5,112 M100.6,113.7
					c-0.3,0.3-0.6,0.6-1,1C98.9,113.9,100.7,113.5,100.6,113.7 M100.1,100.7c-0.6,1.5-1.4,2.9-2.4,4.1c0.1-0.1-0.7,0.1-0.8,0.2
					c-0.3,0.2,0.4,1.3-0.6,0.8c-0.4,0.2,0.4,1.1-0.1,1.5c-1.5-3.4,2.6-6.3,4.1-8.8C100.9,99.2,100.3,99.9,100.1,100.7 M90.5,118.9
					c0.9,0.4,2-0.1,2.4-1c0.4-0.6,0.6-1.8,1.6-0.8l0.2-1.2c1.4,0.6,1.3,2.7,1.9,3.9c0.3-1.3,1-5,3.2-4.4c2.5,0.7-1.6,4.9-2,5.9
					c-0.8-1.3-0.5-0.1-1.1,0.1c-0.5,0.2-1.4-0.2-2.1-0.2c-2,0.3-3.9,0.9-5.7,1.8l-1.4-3.8c1.1,0.1,3.3-2.8,3.7-0.7
					c-0.8-0.1-1-0.1-1.4,0.6C90,118.9,90.3,118.9,90.5,118.9 M95.1,135.4c0,0,2.1,0.1,2.3,0.1c1.4-0.5,0.9-2.2,1.2-3.3
					c0.6,0.5,0.3,1.5,0.5,2.2c0.2,0.8,0.8,1.5,0.9,2.4c0.1,2-1.5,1.6-2.8,2.2c-1.1,0.6-1.2,1.2-2.1-0.2c-0.4-0.6-0.6-1.3-0.7-2
					C94.4,136.2,95.2,135.8,95.1,135.4 M96.8,144l-0.6-0.6c1.7,0.5,0.7-0.3,1.1-1.4c1.3,0.9,2.4,1.8,3.5,0l1.8,7.3
					c-1.2,0.3-2.8-1.6-3.6-2.2c-0.5-0.4-3.2-1.8-1.6-2.2L96.8,144 M108.6,121c-1,0.8-2,1.6-3.1,2.2c-1,0.7-0.6,1.4-1.5,2.2
					c-0.8,0.5-1.7,1-2.5,1.4c-1.1,0.7-2.5,0.7-3.6,0c0.3,2.7-1.5,3-3.9,3.5c-1.1,0.3-1.8,0.7-2.6-0.4c-0.6-0.7-0.7-1.8-0.1-2.6
					c1.1-1,4-0.7,5.4-1.3c1.1-0.5,2.1-3.2,3.5-2.2c-0.7-1.1,0.1-1.4,0.7-2.1c0.6-0.8,1-1.8,1.7-2.7c1.4-1.7,3.1-3.1,5-4.1
					c1.6-0.8,2.4-0.2,2.6,1.5c0.2,1,0.1,2.1-0.4,3c-0.2,0.3-0.7,0.3-0.8,0.5C108.8,120.3,109,120.6,108.6,121 M127.2,99.7
					c1.3,1,1.1,3,1.3,4.4c0.2,2,0.2,3.9,0,5.9c0,2.1-1.1,3.5-1.5,5.4c-0.5,1.9-1.3,3.6-2.4,5.2c1.3,0.2-0.6,4.1-1,4.6
					c-0.3,0.6-3.2,3.1-2,3.1c-0.7,0.9-1.4,1.8-2.1,2.6c-0.3,0.3-0.7,0.5-0.9,0.7c-0.3,0.5-0.6,1-0.7,1.5c-0.5,0.9-0.6,0.6-1.2,1.2
					c-0.4,0.4-0.7,1-1.1,1.4c-1.3,1.3-1.5,0.2-2.2-0.8c-0.1,0.3-0.3,0.5-0.6,0.5c-0.2-1.2,1.3-2.3,2-3c1.1-1.2,2.1-2.4,3-3.7
					c2.1-2.7,3.9-5.6,5.4-8.6c1.6-3.3,2.8-6.8,3.4-10.3c0.5-2.7,1-7.4-2.7-8c-2.6-0.5-5.5,1.1-7.7,2.4c-1.3,0.8-2.7,1.6-3.9,2.5
					c-1.4,1-2.5,2.3-4,3.1c0.8-0.4-1.9,0.8-1.5,0.5c-0.2,0.2,0,0.7-0.2,0.9c-0.2,0.3-0.7,0.6-1,0.8c-0.7,0.5-1.8,1-2.1,1.9
					c-4.3-3.1,4.3-8.6,6.5-9.9C114.5,101.2,122.1,95.8,127.2,99.7 M138.8,69.7c0-2.2,1.8-5.2,3-7.1c0.6-0.9,1.6-0.8,1.9-1.9
					c0.2-0.6-0.1-1.2,0-1.8c0.1-0.8,0.4-1.5,0.8-2.2c3.8-6.2,8.1-12.1,13-17.5c2.4-2.7,4.6-5.6,7.1-8.1c1.1-1.1,3.9-4.9,5.5-4.5
					c0.9,0.2,1.4,1.5,1.8,2.2c0.6,1.1,1.4,2.2,2.1,3.2c2,2.7,4.5,5.1,7.3,7c1.8,1.2,3.5,2.4,5.3,3.6c1.4,1,3.6,2.2,4.6,3.7
					s-0.5,2.7-1.3,3.9c-1.3,1.9-2.4,3.8-3.7,5.7c-0.5-0.4-0.4-1.1-0.7-1.6c-0.3-0.4-0.7-0.6-1.2-0.8c-0.8-0.5-1.6-1.1-2.3-0.3
					c-1.3,1.4,0.5,4.8,2.4,4.4c0.2,1.4-3.6,3.7-4.5,4.5c-2.9,2.4-5.9,4.4-9.8,4.7c-1.6,0.1-3.2-0.1-4.7-0.6c-0.8-0.2-1.4-0.6-2-1.1
					c-0.7-0.7-0.8-1.6-1.4-2.3c-0.5-0.6-1.3-0.6-1.8-1.2c-0.5-0.6-0.9-1.4-1-2.2c-0.4-1.4-0.5-2.9-0.9-4.4c-0.3-0.9-0.5-2-1.3-1.2
					c-1.2,1.2-0.6,5-0.3,6.4c0.5,2,1.4,3.8,2.5,5.5c1.1,1.8,1.7,3.8,1.8,5.9c0.4,4.1,1.6,8.1,3.4,11.8c0.8,1.6,1.7,3,2.6,4.6
					c0.4,0.7,1.3,3.2,2.3,3.1c1.7,0-0.7-5-1.1-5.8c-1.9-4.6-3.7-9.5-4.1-14.5c2.7,0.7,5.6,1.3,8.4,0.9c-1.8,4,0.1,8-0.1,12.1
					c-0.1,2.1-0.2,4-0.2,6c-0.1,1.8-0.6,3.6-1.5,5.2c-1.4,3.2-3.2,7.2-5.8,9.7c-2.2,2.1-5.1,2.2-7.9,1.8
					c-6.5-1.1-10.7-6.1-13.4-11.7c-1.8-3.6-3.1-7.5-3.9-11.4C138.7,78.9,138.9,74.4,138.8,69.7 M147.2,39c-6-4.4,2.7-9.3,7.2-8.6
					c1,0.2,3,0.6,2.9,2c-0.1,1.1-1.9,2.4-2.7,3.1C152.6,37.3,150.5,41.4,147.2,39 M191.1,136c-0.2-0.2-1.9,0.3-1.2-0.7
					c0.6-0.8,2.1,0.2,2.7,0.4C192.1,136,191.7,136.5,191.1,136 M166,188.8c-0.5,0.1-1.1-1.3,0.8-0.3L166,188.8 M165.9,211.6
					c0.1,0.6,0.3,1-0.2,1.5c-0.4-0.4-0.4-1,0-1.3C165.8,211.7,165.9,211.7,165.9,211.6 M166.7,221.1c-0.1,0.3-0.1,0.7-0.2,1
					l-1.3-0.7L166.7,221.1 M167.2,213.1c0.6,0.2,0.3-0.5,0.8-0.6c0.2,0.8,0,1.5-0.5,2.1C167.5,214.5,167.3,213.1,167.2,213.1
					 M183.7,156.3c-0.9-0.1-1,0.8-1.7,1.2c-0.4,0.2-1.8,0.1-2,0.5l1,0.3l-2.2,1.2c1.8,0,3.7-0.9,5.4-0.6c0.7,0.1,1.4,0.4,1.8,1
					c0.3,0.4,0.5,0.9,0.6,1.4c0.1,0.5-0.3,0.8-0.3,1.1c0.8,0,0.7,1.3,0.5,1.9c-0.4,1.2-1.9,3-3.3,2.2c0.6,0.8,0.4,1.3-0.4,1.8
					c0.1-0.3,0.1-0.8-0.3-0.7c-0.1,0.5-0.1,1.2-0.4,1.5c-0.4,0.4-0.8-0.1-1.2,0.2c-0.5,0.3-0.3,0.8-0.7,1.1
					c-0.5,0.4-0.6,0.1-1.2,0.2c-0.9,0.1-0.3-0.4-1,0.3c-0.2,0.2-0.2,0.9-0.6,1.3c-0.8,0.7-2.8,1.4-3.6,0.5c-1.8,2.8-7.1,3.5-9.6,1.3
					c-3.9-3.5,3.4-10.7,5.8-13c2.5-2.2,5.1-4.3,7.9-6.2c1.6-1.1,3.2-2.1,4.8-3c1-0.6,2.3-1.7,3.5-1.6c1.1,0.1,2.1,1,3.2,1.1
					c0.8,0.1,2.5,0.3,1.4,1.5c-0.9,0.7-2,1.2-3.1,1.5c-0.4,0.1-0.8-0.1-1.2,0c-0.7,0.1-1.1,0.7-1.8,0.6
					C185.2,155.9,184.8,156.4,183.7,156.3 M195.4,116.9c0,0.8-1.5,0.6-1.8,0.3c-0.5-0.5-0.5-1.9-0.7-2.5
					C193.7,115,195.4,115.8,195.4,116.9 M183.2,89.5c3.2-2.6,6.5-5,10.1-7.1c1.3-0.8,3.1-2.3,4.6-2.1c0.7,0.1,2,0.8,1.5,1.7
					c-0.1,0.2-0.8,0.2-1.1,0.3c-0.3,0.1-0.5,0.5-0.7,0.7c-1.7,1.2-3.6,2-5.3,3.2c-1.3,1.1-2.7,2.1-4.1,3c-1.4,0.8-2.9,1.4-4.2,2.3
					c0,0-1.7,0.6-1.4,0.7C181.1,91.7,182.7,89.8,183.2,89.5 M204.4,88.5c1.9-0.8,3.8-1.6,5.7-2.2c1-0.3,2-0.4,3-0.3
					c0.1-0.2,0.3-0.4,0.6-0.3c0,0,0.1,0,0.1,0.1c0.2,0.3,0.5,0.6,0.9,0.8c0.6,0.4,2.6,1,2.2,2c-0.3,0.6-2.4,0.7-2.9,0.8
					c-1.7,0.4-3.3,1.4-5.1,1.6c-0.2,0-0.5-0.1-0.7-0.2c-0.7,0.2-1.3,0.9-1.9,1.2c-1.3,0.7-3.1,0.9-4,2.1c3,2,5.6,0,8.2-1.5
					c1.6-0.9,3.2-1.6,5-2.2c0.9-0.3,1.8-0.6,2.7-0.9c0.4-0.1,0.8-0.2,1.2-0.3c0.3-0.1,0.7,0.1,0.8,0.4c1.1,0,1.2-0.7,1.9,0.6
					c0.9,1.8-0.5,1.7-1.8,1.9c-1.9,0.3-3.7,1-5.6,1.5c-0.4,0.1-4.1,1-4.1,1c-0.2,1.2,10.5,0.1,11.4-0.1c1.6-0.3,3.3-1.2,5-1
					c1.3,0.2,4.2,2,2.2,3.3c-0.4-1.9-1.8-0.3-2.5,0.3c-1,0.9-2.3,0.8-3.6,1.1c-1.8,0.5-6.4,2.2-7.7,0c0.4,1.9-6.9,1-7.9,0.9
					c-1.1,0.1-2.1,0-3.2-0.1c-0.6-0.2-1-0.6-1.5-0.7c-0.1,0.2-0.3,0.3-0.5,0.3c-0.3-0.1-0.6-0.3-0.8-0.6c-2-0.9-5-1.4-3.9-4.3
					C198.2,91.2,201.9,89.5,204.4,88.5 M222.8,90.2c0-0.2,0.1-0.3,0.1-0.5c0,0.5,1.2,0.7,1.1,1.4c-0.3,1.5-1.7-0.7-1.9-1L222.8,90.2
					 M230.4,92.7c0.1,0.6,1.8,1.9,1.4,2.2C231.1,94,229.3,94.4,230.4,92.7 M202.6,148.2c0.6-1.2,2.4,0.8,2.2-1.2
					c1,0.1,0.4,0.8,1.6,0.5c0.4-0.1,0.7-0.6,1.3-0.7c0.1,0,0.8,0,1,0c0.7,0,3.5-0.1,1.6-1c1.1-0.7,1.2-0.4,2.2,0.3
					c-0.2-1.3,1.2-0.6,1.8-0.4c-0.5-0.8,0.7-1.6,1.1-2.1c-0.1,0.8-0.1,1.7,1.1,1.2c0.3-0.1,0.2-0.7,0.5-0.8c0.4-0.2,0.7,0.1,0.8,0.1
					c0.3,0,0.5,0,0.8-0.1c0.4-0.2,0.2-0.7,0.7-0.8c0.3-0.1,0.6,0.4,1,0.4c0.2,0,0.6-0.2,0.7-0.2c0,0,0.2-0.5,0.5-0.5
					c0.4,0,0.5,0.9,0.6,1.1c0.6,0.8,1.5,1.5,2.4,1.9c-1.7,1.6-5.2,1.4-7.4,2c-1.1,0.3-2.2,0.7-3.3,1.3c-0.3,0.2-0.5,0.4-0.7,0.6
					l-0.5-0.3c-0.6-0.1-1.2-0.1-1.8-0.1c-2.1,0.3-3.7,1.9-5.8,2.2c-0.9,0.2-1.7,0.4-2.3-0.4C202.2,150.3,202.2,149.2,202.6,148.2
					 M199.8,138.7c0.5,0.4-0.1,1.7,0.8,1.5c0.6-0.1,0.5-1.1,1-1.3c0.7-0.3,1.1,0.4,1.7,0.3c1.2-0.1,1.1-1.1,0.1-1.6
					c1-0.3,1.3,0.9,2.2,0.9c1.2,0,0.9-1.4,1.9-1.6c0.4-0.1,0.3,0.5,0.6,0.6c0.5,0.1,1,0,1.5-0.4c0.4-0.2,0.8-0.6,1.3-0.8
					c0.2-0.1,0.8,0.1,1-0.1c0.3-0.2,0.6-1.2,1-1.3c0.4,0.2,0.7,0.4,1.2,0.6c-0.1,0.4-0.3,0.4-0.7,0.1c0,0.9,2.5,1.2,2,0.1
					c1.3,0.6,0.3,0.8,0.2,1.6c-0.1,0.3-0.2,0.3-0.2,0.6c0,0.2,0.7,0,0.7,0.2c-0.1,1.3-4.3,1.7-5.1,1.9c-1.6,0.3-3.3,0.6-4.9,1.2
					c-1.2,0.4-3.3,1.5-4.5,1.4C199.7,142.7,199.4,140.3,199.8,138.7 M195.7,125.1c-0.4-1.5,1-4.5,2.9-4.2c0.5,0.1,0.6,0.5,0.9,0.6
					c0.5,0.2,1.3,0.1,1.7,0.4c1,0.5,0.5,1.9,1.4,2.4C201.1,124.8,196.4,127.5,195.7,125.1 M197.5,130.9c0.7-0.4,1.7-0.4,2.2-1.1
					c0.2,0.2,0.6,1.1,1,1c0.2-0.1,0.4-0.6,0.4-0.6c0.4,0,0.4-0.5,1-0.4c0.5,0.1,1.1,0.7,1.5,0.9c-0.1-1.5,0.3-1.6,1.5-2.4
					c0.3-0.2,0.5-0.8,0.7-1.1c-0.2,1.6,0.4,1.6,1.6,1.8c1.5,0.2,2.7,1.2,3.2,2.7c-1.3-0.3-3.1,0.1-3.6,1.5c-1.1-1.9-4.9,0.7-6.2,1.3
					c-0.9,0.4-2,1-2.8,0c-0.6-0.7-0.2-1.5-0.2-2.1c0-0.2,0.2-0.2,0.2-0.5C197.9,131.4,197.5,131.3,197.5,130.9 M211.7,161.5
					c-0.4,0.1-2.2,0.2-2.2-0.4C209.5,160.6,212.8,161.1,211.7,161.5 M208.8,159.6c-1.4,0.8-2.9-2.1-3.4-3c1.4,0.2,2.1-1,3-1.9
					c0.8,1.8,2,0.8,3.3,0.2c1.5-0.7,3.2-0.7,4.8-1.3c0.5-0.2,0.9-0.4,1.4-0.6c0.4-0.1,0.8-0.3,1.1-0.4c0.3-0.2,0.4-0.6,0.3-0.9
					c-0.1-0.3,0-0.5,0.3-0.6c0.4,0.1,0.7,0.2,1.1,0.2c0.6-0.1,1.5-0.7,0.7-1.3c0.8-0.7,1.6,0,2.3,0.3l-0.5-1.5
					c0.4,0.2,1.5,1.7,1.6,1.7c0.7-0.1,0.6-1,1-1.4c0.2,0.3,0.3,2.5,1.2,1.7c0.4-0.3-0.5-1.4-0.7-1.6c1.1,0.4,2,1.3,2.3,2.5
					c-0.5,0.1-1,0-1.4-0.3c-0.3,1.4,2.3,0.8,2.7,1.5c0.8,1.4-4.4,2.4-5.1,2.5c-1.4,0.1-2.9,0.5-4.2,1c-0.9,0.5-1.9,0.8-2.9,0.9
					c-1.6,0.2-3.2,0.6-4.7,1.1C211.5,158.5,210.1,158.9,208.8,159.6 M238,109.4c1.3-0.5,5.5-2.8,6.6-1.8c0.2,0.6,0.5,1.1,0.8,1.6
					c0.1,1,0.1,1.3-1.1,1.8c-0.8,0.3-1.6-0.4-2.3-0.1c-0.8,0.3-0.3,0.8-0.7,1.2c-0.6,0.4-1.3,0.6-2,0.8c-1.4,0.4-2.9,0.8-4.3,1.3
					c-2.9,1-6,1.9-9,2.6c-2.2,0.5-6,1.8-8.1,0.3c-0.2,0.9-0.7,0.7-1.4,0.9c-0.7,0.2-1.3,0.3-2,0.4c-0.8,0-3-0.2-2.7-1.3
					c-0.1,0.3,1.7-0.7,1.4-0.8c0.8,0.2,0.5-0.2,1.1-0.4c0.8-0.3,1.7-0.3,2.5-0.6c2-0.9,4-1.6,6.1-2.2C228,112,233.1,111.1,238,109.4
					 M34.7,224.3c-0.4,0-0.7-1.2,0.5-0.3L34.7,224.3 M24.8,222.8c-0.6,0.1-0.8-0.2-0.7-0.9C24.9,221.5,25.2,221.8,24.8,222.8
					 M17.2,221.2c-0.1-0.7,0.4-0.8,0.8-1.1C18,221,18,221,17.2,221.2 M-2,215.6c-0.8-0.2-1.8-0.9-2,0.3c-0.1-0.3-0.8-1.7-0.5-2
					c0.1-0.2,0.7,0.6,0.6,0.5c0.7-1.4,1.8,0.3,2.5,0.8L-2,215.6 M198.9,64.4c0.3-0.6,0.6-0.7,0.9-0.5
					C199.3,65.2,197.4,65.9,198.9,64.4 M212.3,52c0.5,0.9-0.2,1.3-0.8,2C211.9,53.2,212.1,52.7,212.3,52 M270.4,139.2
					c1.7,0,5.4-0.9,6.4,1.1c0.7-1.3,1.5,1.2,2.1,1.6c0.1,0,0.5-0.3,0.7-0.2c0.3,0.3,0.6,0.6,0.7,1c0.5,0.9,0.8,1.9,1,2.9
					c-3,0-6.1-0.7-9.1-1c-2-0.2-3.9-0.2-5.9-0.1c-0.5,0-1,0-1.5,0c-0.3,0.1-1,0.8-1.3,0.7c0.6,1.1,8.1,3.7,8.6,2.5
					c-0.7-0.4-2.2-0.7-2.2-1.7c0-1.1,1.4-1.1,2.2-1.1c1.6,0.1,4.4,0.6,5,2.3c0.3,1.1,0.3,2.2,0.1,3.3c-0.2,0.5-0.5,1-1.1,1.1
					c-0.2,0-0.5-0.3-0.6-0.3c-1.1,0.2-3.2,1.1-4.4-0.1c-0.9,1.1-5.1-0.1-6.4-0.5c-2.3-0.8-5.4-1.8-6.8-3.9c-1.7-2.6,1.7-4.8,3.7-5.8
					C264.4,139.7,267.4,139.1,270.4,139.2 M281.9,145.2l1.6,0.4C283.3,146.6,281.2,145.8,281.9,145.2 M297.8,178.8
					c0.2-3.7-0.9-7-1.5-10.5c-0.2-0.9,0-2.4-0.7-3.2c-0.6-0.7-2.1-0.1-2.1-1.4c-0.6,0.7-0.6,0.9-1.4,0c0.1,0.4,0.2,0.7,0.1,1.1
					c-0.5-0.3-2.2-1.2-2.1,0.1c-1.4-0.3-1-1.2-1.9-1.9c-0.1-0.1-0.6,0.2-0.8,0.1c-0.3-0.3-0.6-0.5-0.8-0.9c-0.4,0.4-0.8,0.8-1.3,1.1
					c-0.3-0.6-0.7-1-1.3-1.1c0.6,1.2,1.9,2.7,0,3.3c-1.1,0.4-2.9-0.1-4.1,0c-4.4,0.3-9.2-0.6-13.4-1.7c-4.4-1-8.7-2.6-12.7-4.8
					c-0.7-0.5-1.4-1-2.1-1.6c-0.6-0.4-1.3-0.8-2-1c-1.5-0.7-2.9-1.7-4-2.9c-2.5-2.5-4.8-5.8-4.1-9.5s3.2-6.6,5.9-9
					c3.2-2.8,6.8-5.3,10.6-7.2c1.7-0.9,6.1-4.1,7.8-2.2c0.7,0.7,0.7,1.8,0.1,2.5c-0.3,0.3-0.7,0.5-1.1,0.5c-0.4,0.1-0.7-0.2-1.1,0
					c-0.5,0.2-0.3,0.5-0.6,0.7c-0.4,0.5-0.9,0.9-1.4,1.2c-2,1-3.9,2-5.8,3.2c-0.9,0.6-1.7,0.8-2.5,1.4s-0.9,1.4-2,0.8
					c0.4,1.5-1.8,3.1-2.7,4c-1.3,1.4-2.9,3.2-2.3,5.3c1.2,4.1,6.7,7.2,10.3,9.1c4.4,2.3,9.2,4,14.2,4.8c2.4,0.4,5,0.6,7.4,0.8
					c1.9,0.2,4.9-0.5,6.2,1.2c0-2,6.3-1.8,7.7-2.1c-2.7-9.2-7.9-17.3-13.6-24.9c-2.7-3.8-5.6-7.5-8.6-11c-3.4-3.8-7.4-7.1-11.1-10.6
					c-7.5-6.8-15.5-12.8-24.1-18.1c-8.4-5.3-17.2-10.5-26.4-14.3c-10.5-4.3-21.6-7.2-32.8-9.6c1.5-1.9,4-2.9,5.9-4.3
					c0.7-0.5,1.6-1.7,2.5-1.8c1-0.2,1.7,0.8,2.4,1.4c1.9,1.5,3.3,0.8,5.5,0.8c1.3-0.1,4.5,0.7,5-1.1c0.7,1-0.3,1.8-0.9,2.5
					c0.4,0.6,0.7,0,1.1-0.1l0.4-0.3c0.2-0.3,0.4-0.3,0.5,0c0.2,0.4,0.5,0.3,0.7-0.2l0.2-0.1c0.3-0.2,0.6-0.4,0.8-0.6
					c1.9-1.4,3.9-2.7,6.1-3.7c1.9-0.9,0.9-2.6,2.1-3.8c0.3-0.3,0.8-0.1,1-0.4s0.3-0.5,0.6-0.7c0.5-0.6-0.1-1.3,1.2-0.5l-0.5-2.7
					c2.6,2.5,2.6-4.7,2.9-5.7c0,0.1,0.2-0.9,0.2-0.9c0.1-2.2,0.4-3.7-2.2-3.8c1-0.6,1.2,0.6,1.7-0.6c0.2-0.6-0.5-1.7,0.6-1.3
					c0.2-1.2,0.1-2.4-0.3-3.6c-0.2-1.1-0.2-2.3-0.1-3.4c0-1.5-0.7-2.9-0.9-4.4c-0.2-1.1,0-2.9-1.4-2.5c-0.2-0.3,0.5-1.3,0.5-1.8
					c0-0.8-0.9-1.5-1.1-2.2c-0.3,0.4-0.8,0.5-1.3,0.3c0.4-1,0-1.3-0.4-2.2c-0.2-0.5-0.1-1-0.6-1.4c-0.3-0.2-0.8,0.1-1-0.1
					c-0.5-0.5-0.3-1.2-0.7-1.8c-0.6-0.8-1.3-1.5-2.1-2.1c-3.6-3.5-8-6.1-12.9-7.6c-5.1-1.4-11-1.9-16-0.3c-2,0.6-3.8,0.6-5.6,1.8
					c-0.6,0.4-0.7,0.3-0.9,0.9c-0.1,0.1,0.6,0.5,0.2,0.8c-0.4,0.3-0.9-0.3-1.1-0.7c-2.7,1.9-5,4.4-6.6,7.3c-1.5,2.9-1.6,6.3-2.2,9.4
					c-2.6-3-6.2-4.4-10-3c-3.4,1.2-5.9,4.1-6.6,7.6c-0.4,2.2,0,4.4,1,6.3c0.4,0.9,1,1.7,1.7,2.4c0.6,0.5,1.7,0.4,2,1.2
					c0.4,1.2-2.1,3.9-2.8,5c-1.2,2-2.3,4-3.2,6.2c-3.1-4.4-6-9.1-9.5-13.1c-3.4-3.8-7.1-7.2-11.1-10.4c-7.9-6.7-16.4-12.8-25.3-18.2
					C87.1,8.1,77,5.4,67.3,6.3c-9.5,0.9-16.8,7-22.9,13.9c-11.8,13.3-19,32.4-19.7,50.1c-0.3,5.3,0.2,10.6,1.5,15.8
					c0.6,2.5,0.5,4.9,0.9,7.4c0.4,2.8,1.1,5.6,1.8,8.4c2.7,10.6,5.9,21,9.7,31.2c1.9,5.3,4.4,10.4,7.5,15.1c1.5,2.2,3.4,3.8,5,5.9
					c1.5,2,1.9,4.4,2.3,6.8c0.8,5.8,1.3,11.7,1.8,17.6c0.2,2.5,0.4,4.9,0.8,7.4c0.3,2.2-0.4,2-2.2,2.8c0.4-1.9-8.3-0.6-9.1-0.5
					c-0.9,0.1-1.8,0.1-2.5,0.3c-0.8,0.2-1.6,0.3-2.4,0.3c-1.3,0-3.8-0.4-4.3,1.3c-0.3-2-2.6,0.2-0.9-0.2c-1.7,0.2-3.5-0.1-5.3,0
					c-2,0.2-4.1,0.4-6.1,0.7c-1.4,0.2-2.7,0.8-4.1,0.9c-1.8,0.2-3.7,0.2-5.5,0.3c-6.8,0.7-13.5,1.9-20.1,3.7
					c-1.6,0.3-3.1,0.7-4.6,1.3c-0.4,0.2-0.7,0.5-1.1,0.7c-0.6,0.2-0.5,0.1-1.1,0.2c-3.2,0.6-6.5,1.7-9.8,2.5
					c-1.8,0.5-4.7,0.9-6.1,2.1c-0.7,0.6-1.2,1.5-0.2,2.2c0.8,0.5,2-0.3,2.7-0.7c-0.6,1.6-1.7,2.4-1.1,4.1c0.5,1.4,1.6,3.1,3.3,2.2
					c0.2,0.5,0.3,1.6,1,1.8c0.6,0.2,1-0.6,1.6-0.4c0.2,0.1,0.1,0.5,0.3,0.6c0.3,0.2,0.7,0.3,1,0.4c0.4,0.2,0.8,0.3,1.2,0.4
					c0.2,0,0.7-0.3,0.7-0.3c0.5,0.1,0.7,1,1.1,1.3c0.4,0.3,0.9,0.5,1.4,0.6c1.2,0.3,2.7,0.7,3.5-0.5c-0.2,0.9,1,0.8,1.5,0.9
					c-0.1-0.5-0.3-0.9-0.7-1.1c1.2,0.1,0.7,1.2,1.5,1.5c0.6,0.2,0.5-0.3,1-0.4c0.6-0.1,1.1,0.4,2,0c0.2,0.9,0.3,1.8,1.4,2
					c0.7,0.1,2.2-1.1,2.1-0.1c1.5-0.4,2-0.1,2.8,1.2c0.1-0.8,0.8-0.6,1.3-0.6c0.9-0.1,0.9,0,1.7-0.5c0.1,0,0.6-1.3,0.9-0.5
					c0.1,0.4-0.6,1.2-0.9,1.4c0.3,0.2,1.5,0.8,1.9,0.7c0.4-0.1,0.4-0.7,0.8-0.8c-0.1,0.4-0.2,0.7-0.3,1.1c0.8,0,1.7-0.3,2.3-0.9
					c0.7,1.7,2.5,0.7,3.5,2c0.5,0.7,0.6,1.2,1.6,1.3c1,0.2,2-0.3,2.9,0.6c-0.3-0.5-1-1-0.3-1.6c0.4,0.7,0.8,1.4,1.3,2.1l0.2-1
					c1.4,1.5,3.2,1.5,5.1,2.4v-1.1c1.3,2,1.4,0.7,3-0.1l-0.3,1.8c1.1-0.1,2.2,1.3,3.1,0.1c0.6,0.9,1.2,0.5,2.2,0.8
					c0.5,0.2,0.9,0.7,1.4,0.9c0.8,0.3,1,0.3,1.7,0.5c0.6,0.3,1.2,0.6,1.8,0.8c0.5,0.1,1,0.1,1.5,0.1c0.2,0,0.1-0.4,0.6-0.3
					c0.7,0.2,1.1,1,1.6,1.4c0.7-1.8,2.7,0.6,3.7,0.9c0-0.5,0.2-1,0.4-1.4c0.4,0.9,0.5,1.6,1.4,2.1c0.5,0.3,1.1,0.5,1.7,0.7
					c0.4,0,0.8,0,1.2,0.1c0.4,0.2,0.5,0.7,0.9,0.7c0.2,0,0.5-0.5,0.7-0.5c0.7,0.2,1.2,1.1,1.9,1.6c2.2,1.5,5.1,1.6,7.6,1.9
					c0.6,0.1,0.7-0.1,1.2,0.3c0.3,0.2,0.1,0.8,0.5,1c1.3,0.6,1.3-0.7,1.5-1.6c0.4,0.5,0.5,1.3,1.1,1.7c0.3,0,0.6,0,0.9,0
					c0.2,0.2,0.3,0.4,0.3,0.7c0.8,0.5,1.6,0.3,2.4,0.7c0.3,0.1,0.7,0.9,1,1.1c0.6,0.4,1.3,0.6,2.1,0.8c1.3,0.4,3.3-0.1,4.1,1.3
					c1.1-1.1,0.7,0.2,1.4,0.5c0.4,0.2,1.1-0.5,1.5-0.4c0.9,0.1,1.2,1,1.4,1.7c0.5-0.1,0.2-1.6,0.1-1.9c0.6-0.1,0.8,1.6,0.9,2
					c1-0.5-0.7-2,0.4-2.5c-0.1,1.3,0.9,2.4-0.9,2.6c0.3,0.8,6.2,1.7,6.6,1c0.1,1.3,1,0.1,1.3-0.4c0,0.7-0.2,1.8,0.6,2.2
					c0.8,0.1,1.6-0.3,2.1-0.9c0.3,0.9,0.7,0.8,1.2,1.4c0.4,0.4,0.6,1,1,1.3c0.9,0.5,1.9,0.6,2.8,0.4c1.6-0.2,1.4-0.6,2,1.1
					c0.1-0.6,0.5-2,1.2-1c0.4,0.6-0.5,2-0.8,2.6c0.6-0.4,1.3-0.7,1.9-0.9c0.1,0.3,0.1,0.6,0,0.9c0,0,0.8,0.5,1.1,0.6
					c0-0.4,0.1-0.8,0.2-1.2c1,0.6,0.3,1.8,1.2,2.4c0.2,0.2,0.8,0,1,0.1c0.5,0.2,0.9,0.5,1.3,0.9c-0.3-0.5-0.4-1.1-0.3-1.7
					c0.2,0.1,0.4,0.6,0.6,0.6c0.1,0,0.9,0.1,0.9,0.1c0.9,0.6,0.7,0.7-0.1,1.4c0.3,0.4,1.4-0.3,1.7-0.4c0.1,0.2,0.1,0.8,0.2,0.9
					l0.2,0.5c0.2-0.2,0.5-0.2,0.7-0.2c0.2,0.1,1.4,0.6,1.5,0.4c-0.3-0.1-0.5-0.2-0.8-0.4c0.7-0.7,1.2-1,1.9-0.1
					c0.1,0.1-0.2,0.6-0.1,0.7c0.4,0.6,0.9,1.1,1.5,1.5c0.2-0.7-0.2-2.3,0.8-2.3c0.8,0,1.5,2.1,1.2,2.7c0.8-0.4,1.8-0.6,2.7-0.6
					c1.1,0.3,0.8,1.3,2.1-0.1c0.9,0.6,0.1,0.8,0.3,1.6c0.2,0,0.5,0,0.7-0.2c-0.2,3.2,2.2,0.7,3.7,1.2c0.6,0.2,0.8,0.9,1.4,1.1
					c0.3,0.1,0.7-0.1,1-0.1c0.3,0,0.5-0.1,0.8-0.1c0.3-0.2,0.5,0,0.5,0.6c0.5,0.3,0.3,0.4,1,0.4c0.4,0,0.8-0.4,1.2-0.3
					c0.8,0.1,0.7,0.7,1.2,1c0.5,0.2,1,0.3,1.5,0.2c0.3,0,1.1-0.4,1.2-0.4c0.6,0,0.3-0.1,1,0.4c0.4,0.4,0.9,0.7,1.5,0.8
					c0.8,0.2,2.2,0.7,2.7,0.1c0.7,1.1,1.3,0.3,2.2,0.4c0.5,0,0.6,0.2,1,0.3c0.8,0,1.5,0.1,2.3,0.3c0.8,0.4,1.6,0.6,2.5,0.6l0.6-0.3
					c0.1,0.3,0.2,0.7,0.5,0.9c0.6,0.1,1.2-0.1,1.6-0.6c0.4,1.3,1.7,1.4,2.9,1.5c1.8,0.2,3.6,0.5,5.3,1c1.5,0.5,3,1.1,4.4,1.7
					c1.3,0.6,2.4,1.4,3.9,1c3.2-0.9,6.4-4.2,9.1-6.1c3.2-2.3,6.6-4.1,10-6.1c13.3-8.1,27.4-14.9,40.5-23.2
					c7.2-4.6,13.8-10,21.5-13.7c-1.1,4.5-3,9.1-2.6,13.9c0.1,1.9,0.7,4.2,2.2,5.5c1.8,1.6,3.9,0.6,5.6-0.6c3.8-2.5,6.2-6.2,9.1-9.7
					c3.2-4.1,6-8.5,8.3-13.1c0.6,0.8,0.1,2.2,0.1,3.1c0,1.2,0.3,2.3,0.9,3.3c1.4,2.7,4,3.3,6.4,1.5c4.6-3.5,7.3-9.8,9.7-14.9
					c1.4,2.6,3.4,5.9,6.8,4c2.8-1.5,4.4-5,5.3-7.9C298.2,196.2,297.4,187.5,297.8,178.8"/>
				<path id="react-path-205" class="st1" d="M293.6,127.7c-0.3-0.8-0.5-0.6,0.1-1.4C294.2,126.8,293.8,127.1,293.6,127.7
					 M307.6,174.3c-0.9-2.5-0.3-5.3-0.9-7.9c-0.2-1.2-0.6-2.4-0.8-3.6c-0.1-0.5-0.5-3-0.2-3.3c-1-0.6-1-1.1-1.2-2.3
					c0.4-0.4,0.3-0.7-0.1-1l-0.9-1.1c1.3,0.6,0.5-1,0.4-1.9c-0.1-0.7-0.2-1.5-0.4-2.2c-0.3-0.9-1-1.3,0.4-1.3
					c-0.6-0.5-1-1.1-1.4-1.7c-0.3-0.9,0.2-2.1-0.5-2.9c-0.4-0.5-2.3-0.6-2-1.6c0.2-0.5,1-0.1,1.2-0.5c0.9-1.4-1.8-1.9-2-2.5
					c-0.2-0.8,0.8-0.9,0.9-1.6c0.1-0.7-1-1.8-1.3-2.4c-0.4,0.1-0.8,0.7-1.3,0.4c-0.1-0.1,0-2.4-0.1-2.8s-0.3-1.1-0.4-1.3
					c-0.3-0.6-1.1-0.9-1.2-1.6c-0.1-0.4,1.6-1.1-0.3-1.1c0.7-1.2-0.6-2-1-3c-0.6-1.3-0.9-2.8-1.6-4.1c-0.6-1.3-1.3-2.6-2.1-3.7
					c-0.6-1-1.2-2.1-1.7-3.2l-0.4-0.3c-0.5,0.1-0.7-0.2-0.5-0.7c-0.4-0.6-0.7-1.2-1-1.8c-0.4-0.7-0.9-1.3-1.4-2
					c-0.6-0.9-0.7-1.9-1.3-2.9c-0.8-1.1-1.6-2.1-2.3-3.3c-0.9-1.3-1.9-2.5-3-3.5c-0.5-0.5-0.6-1.9-1.3-2.7c-0.7-0.8-1.4-1.1-1.9-2.2
					c-0.6-1.4-1.6-2.1-2.5-3.3c-0.8-1-1.1-2.2-2-3.2c-0.7-0.8-1.5-1.6-2.3-2.4c-1-1-1.7-2.2-2.7-3.2c0.1,0.1-0.9-0.7-0.8-0.6
					c-0.2-0.1-1-0.2-0.9-0.1c-1.5-0.9-3.4-4.2-5.7-2.4c-1.2,0.9-0.6,2.6,0.2,3.5c0.4,0.4,2.2,2.3,2.6,1.5c0.4,0.6,1.8,3.6,2.9,2.8
					c-0.1,1,0.5,0.7,0.9,1.4c0.3,0.5,0.1,0.7,0.3,1.4c0.5,2,2.5,3.9,3.5,5.6c2.6,4.3,5.5,8.3,8.1,12.6c2.5,4.1,5.3,7.9,7.7,12
					c2.7,4.7,6.1,9.1,8.2,14.2c0.1,0.2,0.6,0.4,0.8,0.7c0.2,0.6,0.3,1.1,0.4,1.7c0.6,1.7,1.4,3.4,2.5,4.9c0.9,1.3,1,3,1.6,4.5
					c0.9,2.1,1.8,4.2,2.6,6.3c1.2,3.2,2.3,6.5,3.1,9.8c0.6,2.2,1,4.4,1.2,6.7c0,2.1,0.4,4.2,1,6.3
					C307.4,176.4,308,175.4,307.6,174.3"/>
				<path id="react-path-206" class="st1" d="M8.1,219.4c-0.9-0.2-1.8-0.4-2-1.5l-0.4,1.5l3.4,0.8C8.9,219.7,8.5,219.4,8.1,219.4"/>
				<path id="react-path-207" class="st1" d="M10.6,42c0.1-0.3,0.2-0.6,0.3-0.9c0.1,0.3,0.5,0.9,0.2,1.2
					C10.9,42.7,10.6,42.5,10.6,42 M15.2,33.3c0.3,0.1,1,0.2,1.4,0.3c-1,0.9-1.2,0.6-2.5,0.5C14.1,33.2,14.4,32.9,15.2,33.3
					 M6.6,54.7l0.4,0c0-0.4,0-0.8,0-1.1c1.4,0.3,0.6-2.1,0.2-2.6c1.3,0,2-4.1,2.4-5c0.4-0.6,0.8-1.2,1.1-1.9
					c0.2-0.7,0.5-1.5,0.8-2.2c0.8-1.7,1.8-3.2,1.6-5.1c0.7,1.5,1.3,0,1.7-0.7c0.7-1.1,2.3-2.5,2.5-3.9c0.2-1.2-0.7-1.2-0.2-2.3
					s0.9-1,1.9-1.3c0.6-0.2,0.7,0,1.2-0.7c0.3-0.5,0.2-0.9,0.5-1.3c0.1,0.1,0.3,0.2,0.5,0.2c0.3-0.4,0.5-0.8,0.6-1.3
					c0.2-0.6,0.4-1.2,0.7-1.8c0.4-0.8,0.8-1.6,1.2-2.4c0.3-0.3,2.2-0.1,2.2-0.1c0.8-1-0.7-2,1.3-1.8c-0.4-0.7,1-1.6,1.4-2.1
					c0.8-0.7,1.3-1.7,1.3-2.8c0.1-0.7-0.6-0.6,0.3-0.7c0.4-0.1,0.8,0.4,1,0.4c1.2-0.3-0.1-0.3,0.3-0.8c0.1-0.2,0.7-0.8,0.7-0.8
					c0-0.3,0.1-0.5,0.2-0.7c0.2,0,0.5-0.1,0.7-0.1c0.1-0.2,0.2-0.5,0.3-0.7c0.9-0.7,2.2-1.1,2.9-1.9c0.4-0.5,0.3-1.1,0.8-1.6
					c0.5-0.5,1.1-0.1,1.2-1.3c0.1-1.4-1.4-2.1-2.1-0.6c-1.7-2.1-8.9,5.7-9.8,6.7c-3.7,4.4-7.1,9-10.2,13.9c-2.9,4.8-5.3,9.8-7.1,15
					c-0.8,2.5-1.5,5.1-2,7.7c-0.2,0.9-1.6,4.8-1,5.7L6.6,54.7"/>
				<path id="react-path-208" class="st1" d="M291.6,163.2c0.6-0.4,0.6-0.4,0.7-1.2C291.5,162.2,291.5,162.2,291.6,163.2"/>
				<path id="react-path-209" class="st1" d="M-9,214.9C-9,214.9-9,214.9-9,214.9C-9,214.9-9,214.9-9,214.9"/>
				<path id="react-path-210" class="st1" d="M-9.4,215.3c0.1,0.3,0.4,0.5,0.7,0.4c0.1,0,0.1,0,0.2-0.1
					C-8.3,215.9-9.9,214.2-9.4,215.3"/>
				<path id="react-path-211" class="st1" d="M18.1,29.4c-1,1.9,0.2,0.5,0.2,1.1C18.3,30.2,18.5,29.6,18.1,29.4"/>
				<path id="react-path-212" class="st1" d="M173.4,58.4c0.4,3.4,5,1.8,6-0.3c0.8-1.5,2.7-7.3,0.6-8.6c-1.5-0.9-1.8,3-2.2,3.9
					c-0.6,1.5-1.1,0.4-2.5,0.8C173.8,54.7,173.2,57,173.4,58.4"/>
				<path id="react-path-213" class="st1" d="M168.4,52.3c1.6,0.5,3.3,0.1,4.4-1.1c0.6-0.7,1.5-2.1,0.3-2.8
					c-1.1-0.6-2.2,0.8-3.4,0.5c-1.5-0.4-0.7-2-1.2-3.1C166.6,46.9,165.6,51.7,168.4,52.3"/>
				<path id="react-path-214" class="st1" d="M170.1,60.8c-1.6,0-1.6,1.9-0.8,2.8c0.8,0.8,2.8,1.6,3.9,1
					C175.3,63.3,171.4,60.9,170.1,60.8"/>
				<path id="react-path-215" class="st1" d="M78,138.2c0.3,0.2,1.3,1,1.8,0.6L78,137C77.6,137.4,77.4,137.9,78,138.2"/>
				<path id="react-path-216" class="st1" d="M70.5,52.8L70,53.1c0.6,0.5,0.6,0.6,1.1,0.2C71,53.1,70.8,52.9,70.5,52.8"/>
				<path id="react-path-217" class="st1" d="M177.8,164.2c-0.3-0.6-0.9,0.5-1.3,0.7c-0.7,0.3-1.2-1.2-1,0.6
					c-1.5-0.7-2.4,0.9-3.4,1.7c-1.4,1.2-3,1.8-3.9,3.4c4.3,1,9-2.7,12.2-5.1c0.5-0.4,3.1-2.4,1.4-2.6
					C180.9,162.8,178.3,165.1,177.8,164.2"/>
				<path id="react-path-218" class="st1" d="M176.5,160.7c0.8-0.7-1-0.7-1.3-0.8c0,0.5,0,1,0.1,1.6
					C175.7,161.3,176.1,161,176.5,160.7"/>
				<path id="react-path-219" class="st1" d="M173.4,162.9c0.2-0.2,0.9-0.6,0.5-1c-0.4,0.3-0.7,0.7-0.8,1.2L173.4,162.9"/>
				<path id="react-path-220" class="st1" d="M104.1,120.4c-0.5,0.2-0.8,0.5-0.7,1C104.2,121.2,104.1,120.4,104.1,120.4"/>
			</g>
		</g>
	</g>
	<circle id="Ellipse_229" class="st2" cx="518.8" cy="956.6" r="8.5"/>
	<circle id="Ellipse_230" class="st3" cx="551.2" cy="1024.4" r="14.8"/>
	
		<linearGradient id="Path_643_1_" gradientUnits="userSpaceOnUse" x1="898.964" y1="1315.9006" x2="898.964" y2="1314.9006" gradientTransform="matrix(-32.986 0 0 66.327 29950.0234 -86111.5703)">
		<stop  offset="0" style="stop-color:#FFBFD8"/>
		<stop  offset="1" style="stop-color:#FFDD7E"/>
	</linearGradient>
	<path id="Path_643" class="st4" d="M294.8,1134.8c0-8-6.5-14.5-14.5-14.5l0,0v-18.5c18.3,0.1,33.1,15,33,33.3
		c-0.1,18.2-14.8,32.9-33,33h0v-18.5c8,0,14.5-6.5,14.5-14.4C294.8,1135.1,294.8,1134.9,294.8,1134.8z"/>
</g>
</svg>
