<?xml version="1.0" encoding="utf-8"?>
<!-- Generator: Adobe Illustrator 23.1.1, SVG Export Plug-In . SVG Version: 6.00 Build 0)  -->
<svg version="1.1" id="Layer_1" xmlns="http://www.w3.org/2000/svg" xmlns:xlink="http://www.w3.org/1999/xlink" x="0px" y="0px"
	 viewBox="0 0 281 243" style="enable-background:new 0 0 281 243;" xml:space="preserve">
<style type="text/css">
	.st0{fill-rule:evenodd;clip-rule:evenodd;fill:url(#Path_569_1_);}
	.st1{fill-rule:evenodd;clip-rule:evenodd;}
</style>
<g id="DogJumpDoodle" transform="matrix(0.966, 0.259, -0.259, 0.966, 129.856, -0.03)">
	<g id="Group_570" transform="translate(0.118)">
		
			<linearGradient id="Path_569_1_" gradientUnits="userSpaceOnUse" x1="226.7773" y1="628.4206" x2="227.2985" y2="628.8676" gradientTransform="matrix(330.195 -62.2826 -88.5305 -232.2972 -19365.1875 160261.5938)">
			<stop  offset="0" style="stop-color:#FFCF48"/>
			<stop  offset="1" style="stop-color:#FF80B0"/>
		</linearGradient>
		<path id="Path_569" class="st0" d="M-46.4,56.7c-1.3,4.2-1.8,8.2-2.9,12.4c-1.2,4.6-2.4,9.4-4,13.9c-3,8.4-7.9,14-12.5,21.7
			c-3.6,6-13.6,26.2-15.4,29.4c-1.2,2-1.9,4.9-2.7,7.1c-0.5,1.2-0.9,4.3-0.7,5.6c3.5-0.4,7.2-0.8,10.6,0c1.1,0.3,4.9,2.5,6,2.3
			c1.2-0.3,0.5-2.1,0.9-3.2c1.3-3.1,2.7-6.2,3.6-9.4c0.9-3.3,7.3-23.5,10.8-30.1c1.8-3.4,3.2-6.8,5.3-10c2.1-3.4,3.9-6.6,7.4-8.8
			c-0.4-2.9-2-6.1-3-8.9c-0.9-2.6-1.5-5.3-1.7-8.1c-0.3-2.8-1.4-5.5-1-8.3c0.2-1.5,1.2-2.5,1.5-3.8c0.2-0.7,0.8-0.1,0-1
			C-44.7,57-45.9,57-46.4,56.7z M-43.5,58.9c-0.6,3.3,1.4,7.8,2.1,11.1c0.7,3.4,1.6,6.7,2.5,10.1c0.4,1.7,1.2,3.1,1.7,4.8
			c0.6,1.8,0.8,3.7,1.4,5.5c1.1,3.6,2.7,7.1,2.3,11c-0.4,3.4-0.9,7-2,10.2c-1.3,3.8-2.5,7.4-2.8,11.4c-0.3,3.8,0.7,7.9,1.7,11.5
			c0.4,1.3,3.1,10.8,3.9,10.6c0.6-4.3,3.9-8.5,6.1-12.2c2.5-4.3,6.1-8,9.6-11.4c-1-0.4-2-2.5-2.4-3.4c-0.7-1.3-1.4-2.7-2.2-4
			c-1.4-2.4-5.3-11.8-6.6-14.1c-1.4-2.8-10.9-30.9-10.7-33.9c0.1-1.3,0.2-1.8-0.5-2.8C-40.5,62.1-42.4,60.2-43.5,58.9L-43.5,58.9z
			 M-21.4,57.6c0,1.3-0.1,1.5,0.7,2.4c0.7,0.7,1.5,1.3,2.1,2.1c1.4,1.8,2.7,3.7,3.7,5.8c2,4.1,3.3,8.5,3.9,13.1
			c0.7,4.8,0.3,9.8,0.6,14.7c0.1,1.8,0.4,4,1.6,5.4c1.1,1.3,3,2.3,4.5,3c3.3,1.7,6.3,4,8.8,6.8c0.6,0.7,0.8,2.3,1.5,2.8
			c0.7,0.6,2.9,2.3,3.8,2.7c2,0.9,9.6,0,11.7-0.3s5-2.1,6.8-3c2.6-1.3,5.9-4,9.8-8.2C27,100.5,14.1,96.5,4.1,89.6
			C4,90.5,2.6,92.7,2.5,92c-0.9-4.3-1.6-8.7-2.5-13c-0.2-1.1-0.5-2.3-0.9-3.4c-0.2-0.5,2.4-1,3.4-0.5c3.9,1.5,7.9,2.3,12,3.2
			c7.6,1.7,16.2,2.3,22.7,6.9c2.8,2,5.5,4.3,7.8,6.9c2.5,2.7,4.8,7.2,5.2,11c4.5-2,10.5-1.2,15.1-0.7c-1.7-4.3-7.2-8.5-10.6-11.4
			c-2.8-2.4-5.6-4.9-8.7-6.9c-6.9-4.6-13.9-8.9-21.9-11.5c-4-1.3-7.9-2.6-12-3.2c-2.2-0.4-4.5-0.5-6.8-0.7c-2.2-0.2-3-0.7-4.7-2.2
			c-3-2.9-7.2-3.5-11.2-4.6C-14.4,60.8-18.1,59.9-21.4,57.6L-21.4,57.6z M46.6,43.5l-5.1,2.6c1.6,0.7,3.2,1.2,4.9,1.7
			c1.7,0.5,4.1,7.1,6.3,7.1s2.2-5.8,1.1-8.2C53,45.2,50.7,44.1,46.6,43.5L46.6,43.5z"/>
		<g id="Group_569" transform="translate(48.714 20.976)">
			<path id="Path_570" class="st1" d="M16.7,106.1c-0.3,0.1-0.4-0.1-0.4-0.6C16.7,105.4,16.8,105.6,16.7,106.1 M-95.6,25.5
				c0.5,0,0.2,0.6-0.1,0.7L-95.6,25.5 M-65.7,100c-0.3-0.2-0.2-0.4,0.3-0.6C-65.1,99.6-65.2,99.8-65.7,100 M50.1,98.7
				c1.7-0.3,2.9-2.8,4.3-2.3c1.7,0.7,3.3,3.7,4.5,5c-0.9,0.7-1.9,1.4-2.9,2c-1,0.7-0.7,0.9-1.7,0.1c-0.7-0.6-1.3-1.6-1.9-2.3
				C51.7,100.4,50.7,99.6,50.1,98.7 M11.8,194.1c-0.3,0-0.5-6.6-0.7-7.5c-0.6-2.1-1.4-4-2.5-5.9c-0.4-0.8-1.2-1.8-1.5-2.6
				c-0.5-1.2,0.3-2.1,0.5-3.5c0.5-3-0.2-5.7-1.2-8.5c1.9-0.4,3.8-1.2,5.8-1.5c0,2.7,0.3,4.9,1.4,7.3c0.3,0.6,0.8,1.1,0.6,1.9
				c-0.1,0.2-0.8,0.4-0.9,0.6c-0.9,1.3-1.1,2.3-1.1,3.8C11.9,183.6,12.5,188.8,11.8,194.1 M25.6,102.5c-1.1,0.9-4.5-5.5-5.7-5.5
				c-2.5,0.1,1.1,6.4,1.3,7.1c-1-0.4-1.9-2.6-2.5-3.5c-0.5-0.8-2.1-4.5-3.1-4.7c-1.9-0.4-1,3-0.8,3.8c0.6,1.8,1.2,3.6,1.7,5.4
				c-1.1-0.6-1.9-4.2-2.4-5.4c-0.7-1.6-1.2-3.4-2.3-4.8c-0.7-1-1.9-2.3-3.2-2.4c-1.6-0.1-2.2,1.6-3.6,1.9c-0.2-3.6,0.2-7.3-0.3-10.9
				c2.8,0,5.7,0.2,8.5,0.7c1.6,0.3,2.6,0.3,3.4,1.7c0.6,1.1,1.1,2.3,1.6,3.5C20.4,94,22.7,98.5,25.6,102.5 M61.4,89
				c2.1,2.1,3.9,4.3,5.9,6.5c1.9,2.2,4.7,3.7,6.5,6c1.7,2.1,3,4.5,4.6,6.7c1.8,2.4,3.3,5.1,4.8,7.7c-1.6,0.3-1.9,0.3-3-0.8
				c-0.8-1-1.5-2.1-2.4-3.1c-1.9-2.2-4-4.2-6.3-5.9c-2.6-1.8-5.4-3.2-8.4-4.1c-1.1-0.3-1.5-0.3-2.2-1.3c-0.4-0.7-0.6-1.7-1.1-2.4
				c-1-1.6-2.5-2.5-4-3.6C57.6,92.7,59.7,91.1,61.4,89 M-76.7,27.2c0.6,0.4,0.6,2,0.9,2.7c0.5,1.2,1.2,2.4,1.8,3.5
				c1,2,1.9,4.3,1.9,6.7c0,2.4-1.9,3.8-4.1,4.2c-2.5,0.5-4.3-0.5-6.5-1.5c-2.1-1-3.9-2.7-5.6-4.3c-1.4-1.3-2.2-3.4-3.7-4.1
				c-1.5-0.7-3.2-1.3-3.7-3.4c-0.3-1.4,0.3-1.2,1.5-0.9c1.3,0.3,2.3,1.2,3.5,1.6c-0.7-1.5-0.8-2.8,0-4.3c0.5-0.9,1.4-2.3,2.5-2.3
				c0.7,0,1.6,0.8,2.2,1c0.8,0.3,1.7,0.5,2.5,0.7C-81.4,27.4-79,27.5-76.7,27.2 M-81.5,124.1c-0.8,0.1-3.5-9.3-3.9-10.6
				c-1-3.7-1.9-7.7-1.7-11.5c0.3-4.1,1.5-7.6,2.8-11.4c1.1-3.2,1.6-6.8,1.9-10.2c0.5-3.9-1.1-7.4-2.3-11c-0.5-1.7-0.8-3.4-1.3-5.1
				c-0.5-1.8-1.3-3.4-1.8-5.2c-0.8-3.4-1.7-6.7-2.4-10.1c-0.7-3.2-2.7-7.1-2.1-10.4c1,1.2,2.2,2.3,3.2,3.5c1,1.2,0.7,1.3,0.5,3
				c-0.2,2.8,0.4,6.1,1,8.8c1.4,5.7,3.8,10.9,5.5,16.4c0.9,2.8,1.3,6,2.5,8.7c1.1,2.4,2.7,4.5,4,6.9c1.3,2.5,2.9,4.9,4.4,7.4
				c0.7,1.2,1.4,2.3,2,3.5c0.5,1,1.1,3.5,2.1,3.9c-3.5,3.3-6.4,7-8.8,11.2C-77.6,115.6-80.9,119.8-81.5,124.1 M-89,66.6
				c-3.4,2.1-5,5.1-7.1,8.3c-2.1,3.2-4,6.6-5.8,9.9c-3.6,6.6-6.4,13.6-8.3,20.8c-0.9,3.3-2.2,6.6-3.2,9.8c-0.9,3-1.2,6.1-2.4,9
				c-0.3,0.8-0.6,2.6-1.5,2.8c-1.1,0.3-4-1.2-5.1-1.4c-3.6-0.9-7.3-1.1-10.9-0.7c-0.2-1.3,1.2-3.7,1.7-5c0.7-2,1.4-4.2,2.4-6.1
				c1.7-3.3,3.7-6.5,5.7-9.6c2.1-3.3,3.8-6.8,6-10c1-1.5,2.4-3.5,3.1-5.1c0.2-0.6,0.5-1.2,0.8-1.8c0.3-0.6,0.7-1.2,1.1-1.8
				c4.5-7.5,7.9-15.1,10.8-23.3c1.6-4.5,2.9-9,4.2-13.6c1.2-4.3,1.4-8.8,2.7-13.1c0.8,0.5,2.1,0.4,2,1.5c0,0.2-1.1,1.6-1.2,1.9
				c-0.2,0.6-0.4,1.2-0.5,1.8c-0.5,2.9,0.5,5.8,0.9,8.7c0.4,2.8,0.7,5.1,1.6,7.7C-91,60.1-89.3,63.6-89,66.6 M-11.5,83.9
				c-3.3,2.9-6.3,6.1-10.2,8c-1.8,0.9-3.3,2.2-5.4,2.6c-2.1,0.4-4.2,0.2-6.3,0c-2.1-0.2-4.1-0.2-6-1.1c-0.8-0.4-2.1-0.7-2.9-1.3
				c-0.7-0.6-1.2-1.5-1.8-2.2c-2.5-2.8-5.5-5.1-8.8-6.8c-3.8-1.9-5.9-4.1-6.1-8.4c-0.3-4.9,0.1-9.8-0.6-14.7
				c-0.6-4.5-2-8.9-3.9-13.1c-1-2-2.3-4-3.7-5.8c-0.6-0.8-1.5-1.3-2.1-2.1c-0.8-0.9-0.7-1.1-0.7-2.4c3.3,2.3,7,3.2,10.9,4.2
				c3.9,1,8.1,1.7,11.2,4.6c1.6,1.5,2.5,2,4.7,2.2c2.3,0.2,4.5,0.3,6.8,0.7c4.1,0.7,8.1,2,12,3.2c8,2.6,15,6.9,21.9,11.5
				c3.1,2,5.9,4.5,8.7,6.9c3.4,2.9,8,6.8,9.7,11.1c-4.7-0.4-9.4-1.8-14,0.3c-0.3-3.8-2.9-7.5-5.4-10.2c-2.3-2.5-4.9-4.8-7.7-6.8
				c-6.5-4.6-15.2-5.9-22.8-7.5c-4.1-0.9-7.9-1.6-11.8-3.2c-1-0.4-3.9-2.1-4.4-1.1c-0.3,0.7,0.5,1.6,0.8,2.2
				c0.4,0.9,0.6,1.9,0.8,2.9c1,4.4,1.6,9,2.6,13.4c0.1,0.7,0.3,3.6,1.5,3.2c0.8-0.3,0.1-4.8,0.1-5.6C-34.5,75.6-22.7,79.6-11.5,83.9
				 M-22.7,160.4c2.2,0.1,4.5,1.3,6.6,1.8c2.9,0.7,6,1.5,8.6,2.8c1.4,0.7,1.4,1.1,1.1,2.7c-0.3,1.3-0.7,2.5-0.9,3.8
				c-0.6,3.2-1.4,6.3-2.2,9.4c-8.3-6.9-18.9-10.8-29.2-13.5c-1.5-0.4-3-0.5-4.4-0.8c-1.3-0.2-2.8-0.1-4-0.3
				c-0.8-0.2-1.5-0.7-2.3-0.9c-1.7-0.4-3.8-0.4-5.5-1.1c-2.4-0.9-4.7-1.9-7-3.1c-2.4-1.2-4.4-2.1-4.9-4.8c-0.4-2.1-1.4-4.1-1.7-6.2
				c-0.4-2.7,0.1-5.1,0.3-7.8c0.4-6.3,1.3-12.6,2.9-18.7c1.5-5.9,2.6-11.8,3.7-17.8c0.2-1.2,0.6-2.2,0.9-3.4
				c0.4-1.9,1.3-1.4,3.1-1.3c3.2,0.2,6.6-1.1,9.3-2.8c1.3-0.8,2.9-2.7,4.3-3.1c1.3-0.4,2.6,1.4,3.8,2c2.9,1.4,6.5,1.8,9.7,2
				c7,0.5,12.2-4.1,17-8.7c3.2,3.6,6.6,6.9,10.3,10c3,2.5,5.6,5.7,8.2,8.7c2.4,2.8,4.3,7.1,7.5,9.1c1.9,1.1,3.3,0.4,5.1-0.7
				c1.4-0.9,3-1.4,4.5-2.2c6.7-3.9,13.1-8.3,19.6-12.4c1.4-0.9,3.7-3,5.4-3.2c1.3-0.1,1.2,0.2,1.9,1.2c0.7,1,1.4,2,2.1,3
				c2.7,4,5.6,8,7.9,12.3c-4.6-1.1-9.4-1.3-14.1-0.6c-4.4,0.6-9.9,1.4-13.8,3.7c-1.7,1-3.3,2.1-4.9,3.3c-2.1,1.4-3.7,3.4-6,4.5
				c-2,0.9-4.1,1.4-6.2,2.1c-2.3,0.8-5.6,2.2-8,1.6c-2.1-0.5-3.8-2.4-5.4-3.7c-2-1.7-4.5-2.8-6.6-4.3c-3.7-2.7-7.5-5.1-11.4-7.5
				c-4.7-2.9-9.2-6.3-14.1-8.8c-1-0.4-1.9-0.9-2.8-1.5c-0.8-0.6-1.4-1.6-2.5-0.9c-0.9,0.7-0.5,1.9-0.2,2.7c0.3,0.8,0.5,1,0.3,1.7
				c-0.2,0.6-1.1,1.6-1.5,2.3c-1.6,3-2.8,6.2-4.3,9.2c-1.5,2.9-3.2,5.7-4.6,8.7c-2.7,5.9-6.6,11.1-9,17.1c1.1,0.5,1.3-0.5,2.1-0.6
				c0.9-0.1,0.6,0.1,1.5,0.8c1.3,0.9,2.6,1.5,4,2.2c3,1.6,6.1,3.4,9.4,4.5C-33.5,155.1-28.4,158.4-22.7,160.4 M-119.1,133
				c0.2,1.4,0.4,2.8,0.6,4.2c0.1,1,0.7,2.4,0.6,3.4c-1.4-0.7-3-3-4.1-0.5c-0.7,1.5,0.2,4.4,0.4,6c-1.6-0.3-1.3-4.3-3.9-3
				c-2,1-0.6,6-2.2,6.5c-1.1-1.7-0.9-5.6-1.3-7.6c-0.2-1,0.1-2.2-1-2.3c-1-0.1-1.7,1.3-2.2,2c-0.4-2.3-1.6-4.4-1.1-6.5
				c0.3-1.3,0.6-2.6,1-4c0.2-0.8,0.4-3.2,1.1-3.7c1.3-1,5.8,0.8,7.2,1.2c1.3,0.4,2.9,0.7,4,1.3C-118.7,130.7-119,131.6-119.1,133
				 M-78.5,53.2c-1.9-0.2-3.5-1.3-4.9-2.5c-2.4-1.9-2.7-3.5-3.2-6.5c3,1.5,5.3,2.7,8.7,2.8c3.9,0.1,5.8-2.2,7.6-5.4
				c0.5,0.7,1.2,1.5,1.5,2.3c0.4,1,0.4,0.8,0.3,1.8c-0.3,1.8-0.9,3.5-1.8,5C-72,53.8-75.5,54.2-78.5,53.2 M-1.2,174.5h-3.5l0.6-3.9
				c0.2-1.1-0.1-2.7,1-2.9c0.9-0.2,1.8,0.9,2.8,0.8c1.1-0.1,1.7-0.9,2.9-0.6c1.8,0.4,1.4,2.4,1.4,4c0,0.6,0.3,1.6,0.1,2.2
				c-0.3,1.1-0.1,0.7-1.1,0.8C1.6,175,0.1,174.6-1.2,174.5 M-89.2,18c-1.3,0.2-4.7,3-5.6,2.3c-1.3-0.9,2.4-3.4,3.2-3.8
				c3.7-1.9,10.7-0.4,13.2,3.1c-1.6,0.2-3.6-1.3-5.3-1.6C-85.6,17.7-87.4,18-89.2,18 M-88.3,89.6c-1.1,4.3-3,8.8-2.9,13.3
				c0,4.5,1,8.9,2.9,13c0.9,2.1,1.8,4.2,2.8,6.3c0.5,1,0.9,2.1,1.6,2.9c0.8,1,1.1,0.9,2.1,0.1c0.4,1.1,0.9,2.3,2.4,1.5
				c1.1-0.6,1.1-1.9,1.4-2.9c1-2.7,3-5.1,4.4-7.5c1.5-2.5,2.7-5.3,4.4-7.7c0.8-1.2,1.7-2.3,2.6-3.4c0.6-0.9,1.6-2.9,2.5-3.4
				c0.1,1.1-1.1,2.8-1.5,3.9c-0.6,1.5-1.1,3-1.5,4.5c-0.8,3-1.3,6-2,9c-1.1,5.4-2.5,10.7-3.2,16.1c-0.7,5.1-0.9,10.3-0.4,15.4
				c0.2,2.2,1.5,4,2.4,6c1.2,2.7,2.6,4.4,5,6.3c4.3,3.5,9,5.6,14.2,7.1c1,0.3,1.9,0.2,2.8,0.4c1,0.2,1.8,0.7,3,0.9
				c2.9,0.4,5.8,1,8.6,1.8c2.2,0.6,4.3,1.3,6.5,2c1.6,0.5,3.7,1,5.3,1.7c3.9,1.9,7.6,4,11.2,6.3c1.1,0.7,1.8,1.1,2.6,2.1
				c0.8,1.1,0.7,1.8,1.2,3.1c0.4,1.1,1.2,1.8,2.2,0.8c1-0.9,0.6-2.8,0.7-3.9c0.1-1.7,1.1-8,2.2-8.6c0.8-0.4,3.2,0.4,4.2,0.6
				c1.3,0.1,2.5,0.1,3.8,0c-0.4,1.8,1.1,4.2,1.8,5.8c1.1,2.6,2,5.3,2.5,8.1c0.3,1.9,0.2,3.9,0.5,5.8c0.3,2-0.2,5.2,2.6,5.5
				c4.4,0.5,5.5-8.2,6-11.2c0.8-4.6,0.2-9.1-0.3-13.7c0-0.4-0.2-2-0.1-2.3c0.1-0.2,1.4-0.7,1.5-0.8c1.4-1,0.8-1.5,0.4-3
				c-0.8-2.8-0.6-6.3-2.4-8.7c-1.4-1.9-4.7-0.7-6.6-0.2c-1.4,0.4-2.8,0.9-4.1,1.4c-0.9,0.3-2,1.4-2.8,1.6c-1.6,0.3-2.8-1.8-4.1-2.5
				c-2.2-1.4-4.5-2.5-6.9-3.5c-4.4-1.6-8.9-2.6-13.3-4c-2.7-0.8-5.4-1.8-8-3c-1.9-0.9-3.9-2.2-5.9-2.8c-2.7-0.8-5.3-1.8-7.8-2.9
				c-2.7-1.1-5.7-1.9-8.5-2.8c5.8-8.5,10.8-17.6,14.8-27.1c0.5-1.1,0.9-2.2,1.3-3.3c0.2-0.6,0.7-3.1,1.3-3.5c1-0.7,4.9,2.3,6,3
				c4,2.6,7.8,5.5,11.9,7.8c3.6,2.1,7,4.4,10.4,6.6c1.9,1.2,3.7,2.8,5.6,4c1.9,1.2,4.2,3.5,6.4,4c0.8,0.2,2.3,0,3.1-0.1
				c1.3-0.1,2.5-0.2,3.7-0.5c2.3-0.7,4.7-1.4,7-2.2c4-1.5,7.2-5.1,10.8-7.3c4.4-2.7,9.4-3.4,14.3-4.9c5.4-1.6,11.3-1.8,17-1.4
				c0-5.2-2.5-9.1-5.2-13.3c2-1.3,2.8-2.1,5-0.9c1.6,0.9,3.1,1.7,4.6,2.7c1.6,1.1,3.4,1.9,5,3.1c1.8,1.3,3.3,2.6,5,4.1
				c1.2,1.1,2.6,2.1,3.9,3c1.3,1,2.6,0.8,4.2,0.2c0.5-0.2,2-0.9,2.2-1.2c0.5-0.7,0.1-1.1-0.3-2c-1-2-2.2-4-3.5-5.9
				c-1.1-1.6-2.6-3-3.8-4.6c-1.1-1.5-2-3.3-3.3-4.6c-1.5-1.5-3.2-2.8-4.6-4.4c-0.7-0.8-1.5-1.7-1.5-2.6c0-0.7,0.8-1.5,0.8-2
				c0-1.2-2.1-2.5-3-3.4c-1.3-1.3-2.6-2.5-4.6-1.9c-1.5,0.4-3.7,2.3-4.8,3.4c-1.4,1.4-2.5,2.9-4,4.3c-0.8,0.8-1.7,1.5-2.5,2.2
				c-0.5,0.4-1.3,1.7-1.8,1.9c-0.5,0.2-1,0-1.6,0c0.3,0-1.2,0.3-1.2,0.2c-0.7,0.2-1.5,0.4-2.2,0.6c-3,1-5.7,2.6-8.4,4.2
				c-6.8,4.1-13.2,8.5-19.9,12.8c-2,1.3-2.5,1.2-4-0.6c-1.4-1.7-2.6-3.6-3.9-5.4c-2.2-3-4.6-5.8-7.2-8.4c-2.7-2.7-5.7-5-8.6-7.5
				c-0.8-0.7-4-3-3.8-3.9c0.1-0.5,1.2-1.3,1.5-1.8c0.5-0.8,1-1.6,1.4-2.4c2.2-4.9-3.4-5.2-6.7-6.8c-4-1.9-8-3.9-12.1-5.6
				c-2.1-0.8-4.1-1.6-6.2-2.4c-1.9-0.7-3.7-1.9-5.5-2.6c-1.4-0.6-4.4-0.8-5.3-2c-0.5-0.7-0.3-3-0.4-3.8c-0.1-1.4-0.4-2.8-0.8-4.1
				c0.7-0.1,2,0.6,2.6,0.9c1.1,0.6,2.3,1.1,3.6,1.5c2.9,0.8,5.8,0.8,8.7,1.7c4.3,1.2,8.8,2,13,3.7c4.8,2,9,5.7,12.4,9.5
				c1.7,1.9,3.2,4,4.3,6.3c0.3,0.6,0.7,2.7,1.2,3.1c0.6,0.5,2.2,0,2.9-0.1c0,1.8,0,3.7,0,5.5c0.1,1.9-0.3,4.9,0.4,6.6
				c0.6,1.7,1.8,1.3,3,0.5c1.6-1.1,2.5-1.7,4,0c2.6,3,3.5,7.6,5.3,11c0.6,1.1,2,3.5,2.8,1.2c0.6-1.7-0.4-3.9,0.1-5.6
				c0.6,1.1,2.4,4.2,3.8,4.2c1.9,0,1.3-3,1.2-4.3c1.1,1.2,4.5,5.2,5.3,2c0.6-2.5-1.1-4.9-2.4-6.8c-1.4-2.3-2.9-4.5-4.4-6.8
				c-1.5-2.2-2.4-4.6-3.9-6.8c1.1,0.2,3.3-0.2,2.6-2c-0.4-0.9-1.5-0.5-2.1-1.1c-0.6-0.6-0.9-2.3-1.2-3.1c-1.6-3.8-3.9-7-6.6-10.1
				C5.9,63.2-0.2,58.8-6.3,55.1c-7.3-4.4-14.8-7.1-22.9-9.2c-3.9-1-7.8-1.5-11.7-2.2c-1.6-0.3-3.3-0.5-4.5-1.5
				c-1.9-1.5-3.2-2.7-5.5-3.6c-1.8-0.7-3.7-1.2-5.7-1.5c-2.2-0.4-4.7,0.1-6.8-0.5c-1.7-0.5-3.8-1.6-5.3-2.5
				c-0.8-0.4-2.2-0.7-2.6-1.1c-0.8-0.7-1.4-2.6-1.9-3.5c1.3,0.3,1.8-0.6,2.2-1.7c0.6-1.9,0.6-1.2,2.4-2c1.1-0.5,1.4-1.7,2.3-2.1
				c0.9-0.5,2.4,0.5,3.4,0.2c1-0.3,1.6-1.2,1.7-2.2c0-0.4-0.5-0.8-0.5-1.1c0-0.8,0.6-1.2,0.5-2.1c-0.1-1.4-0.8-1.1-0.3-2.6
				c0.6-1.5,0.4-1.7,0.2-3.3c0-0.4,0.2-1.1-0.1-1.4c-0.2-0.2-0.8-0.2-0.9-0.3c-0.2-0.4-0.2-0.7-0.3-1.4c0-0.4,0.1-1.2-0.3-1.5
				C-63.1,7.5-63.7,8-64,7.8c-0.3-0.1-0.5-0.8-1-0.9c-1.7-0.3-1.2,1.4-2.1-0.7c-0.3-1-1-1.9-1.8-2.5c-0.4,0.2-0.6,0.1-0.7-0.2
				C-69.7,3.2-69.8,3-70,2.8c-0.7-0.2-0.8,0.4-1.4-0.2c-0.9-0.9,0-2.8-1.8-2.3c-1.3,0.4-1.7,2.1-3.1,2.5c-0.2-0.6-0.2-2.2-1-2.4
				C-78,0.3-78.7,1.8-79,2.3c-0.2-0.4-0.5-1.7-0.8-2c-0.9-0.9-0.6,0-1.5,0.1l-0.4,0.5c-0.4-0.2-0.9-0.4-1.3-0.7
				c-0.9-0.2-0.6-0.1-1.4,0.2c-0.6,0.3-0.3,0.5-1,0.7c-0.6,0.1-1-0.5-1.6-0.3l-0.5,0.2c-0.3,0.6-0.6,0.7-1.2,0.3
				c-0.6,0.3-1.5,1.3-2.1,1.3c-1.3-0.1-1-1.8-2.4-1.7c-0.5,0-1.8,1.4-2.2,1.8c-0.5,0.6-0.4,1.1-1,1.7c-0.9,0.9-0.4,0.4-1.3,0.9
				c-1.3,0.6-1.8,0.4-2.4,1.9c-0.5,1.4-0.7,2.9-0.7,4.4c0,0.9,0.6,2.8-0.6,2.4c-0.9-0.3-0.7-2.4-1.6-1.8c-0.7,0.5,0.7,3.2,0.7,3.8
				c0,1.8-0.2,2,0.9,3.3c0.5,0.6,1.8,1.8,2,2.7c0.3,1-0.5,2.7-0.7,3.6c-0.4,1.9-0.1,2.3,1.2,3.8l0.4,0.2c0.7,0,0.9,0.3,0.6,1
				c0.3,0.8,0.2,1.5,0.6,2.2c0.2,0.4,1.1,1.3,1.2,1.7c0.1,0.7-0.3,0.9-0.9,1.6c-2.5,3-3.6,7-4.8,10.7c-2.2,6.5-4.8,12.8-7.4,19.1
				c-1,2.5-2,4.8-3.1,7.3c-1.3,3.1-3.1,5.9-4.7,8.9c-1.1,2.1-2.2,4.4-3.5,6.2c-1.7,2.3-2.6,5.2-4.1,7.6c-1.6,2.6-3.4,5.2-4.9,7.9
				c-1.4,2.6-3.2,4.9-4.6,7.6c-1.7,3.3-3.7,7.2-4.2,11c-0.2,1.3-0.7,3.5,0.1,4.6c0.8,1.2,3.2,1.7,4.4,0.8c-1.1,2.8-2,5.8-2.5,8.8
				c-0.2,1.3-0.6,2.4-0.3,3.7c0.3,1.2-0.2,0.5,0.8,1.2c0.8,0.6,0.4-1,1,0.6c0.1,0.3-0.1,1.3-0.1,1.7c0,1.6,0.2,3.3,0.2,4.9
				c0,1.2-0.2,2.3,1.4,2.1c1.2-0.1,1.8-1.4,2.3-2.3c0.2,1.4,0.3,2.9,0.5,4.3c0.1,1.3-0.1,2.6,1.5,2.4c2.7-0.2,3.8-5.1,4.4-7.2
				c1.2,1.6,1.8,4.8,2.4,6.8c0.5,1.9,1.1,5.9,3.7,3.4c1.8-1.6,1.1-4.9,0.8-7c-0.1-0.7-1.6-6.8-0.9-7.2c1,1.1,2.1,2.8,3.8,1.9
				c1.5-0.8,1-2.7,0.9-4c-0.3-3.8-1.6-7.5-2.6-11.2c0.6-0.1,1.9-0.2,2.4-0.6c0.6-0.5,0.2-0.8,0.5-1.5c0.4-0.9,0.9-1.8,1.5-2.7
				c1.6-2.8,2.1-5.7,2.9-8.7c0.8-3,2.3-5.6,3.1-8.6c0.9-3.3,1.8-6.6,2.9-9.9c2.3-7.3,5.6-14.2,9.4-20.8c0.5-0.9,4.6-10.2,5.2-9.9
				c0.4,0.2,0.7,2.6,0.9,3.3c0.3,1.5,0.5,3.1,0.6,4.7C-85.8,79.6-87.4,85.9-88.3,89.6L-88.3,89.6z"/>
			<path id="Path_571" class="st1" d="M49.3,77.2c-1.5,0.4-2.1-3.2-2.2-4.3c-0.3-1.8-0.6-3.3-1.5-4.9c-0.5-0.8-1-1.5-1.6-2.2
				c-0.4-0.4-1.2-0.9-1.4-1.3c-0.5-1.1,0.1-4,0.1-5.2c0-0.8,0.5-4.6-0.4-4.9c-1.2-0.3-1.6,3.1-1.7,3.9c-0.2,0.9-0.1,1.7-0.2,2.6
				c-0.1,0.8-0.5,1.3-0.7,1.9c-0.5,1.6,0.7,2.9,1.5,4.3c0.9,1.6,1.9,3.1,2.6,4.8c0.7,1.9,0.7,3.8,1.2,5.7c0.9,3.1,4.7,4.7,7.7,3.8
				c1.6-0.5,1.3-1.6,1.8-2.8c0.2-0.5,0.7-0.7,0.9-1.4c0.1-0.7,0.1-1.5-0.1-2.2c-0.7-3.4-1.6-6.7-2.7-10c5.5,3,11.3,5,17.6,4.9
				c3.1-0.1,5.4-0.7,7.7,2c1.8,2.1,1.8,5.7,2.5,8.3c0.8,2.8,1.5,6.4,3.3,8.7c2.1,2.8,5.1,2.4,5.3-1.4c0.2-3.2-1.4-6.3-1.1-9.5
				c0.1-1.6,0.8-3.1,0.7-4.8c-0.1-1.4-0.3-2.8-0.6-4.2c3,0.3,5.7,1.7,7.8,3.8c2.1,2,3,4.5,4.7,6.8c1.6,2.1,3,5,6.1,4.9
				c4-0.1,4.2-5,2.7-7.6c-0.8-1.3-1.8-2.4-2.8-3.5c-1.1-1.3-1.2-2.3-1.4-4c-0.2-1.3-0.2-2.9-1.4-3.8c-1-0.8-2.3-0.4-3.3-1.4
				c-0.9-1-1.6-2.4-2.4-3.4c-1-1.3-2.1-2.7-3-4.1c-1.9-3-4.5-5.1-7.2-7.4c1-0.6,3.6,0.1,4.8-0.1c2-0.3,4.6-1.3,6.1-2.6
				c3.2-2.8,4.7-6.5,4.9-10.7c0.2-4.1-0.5-9-3.5-12c-1.6-1.6-3.5-2.9-5.5-3.9c-1.3-0.7-4-2.1-5.5-1.5c-3.5,1.4,4.4,6.8,5.4,7.7
				c3.3,2.8,5.2,5.4,5.1,9.9c-0.1,4.3-4.2,6.3-7.7,7.8c-1.9,0.8-3.9,1.3-6,1.3c-2.3-0.1-3.8-1.4-5.9-2.1c-4.1-1.5-8.3-2.5-12.5-3.5
				c-4.1-1-8.6-0.8-12.9-1.4c-4-0.6-7.7-1.4-11.5-2.8c-3.9-1.5-6.9-6-11.2-6.5c-2.6-0.3-1.3,1.6-0.2,2.5c1.4,1.1,2.8,2.1,4.2,3.3
				c3.3,2.8,7.3,4.8,11.5,5.8c3.3,0.9,6.7,1.5,10.1,2.1c4.3,0.6,8.6,0.4,12.8,1.5c2.5,0.6,4.9,1.5,7.3,2.6c1,0.4,3,1.1,3.1,1.9
				c0.2,1-0.6,1,0.4,1.9c1.6,1.6,3.8,2.7,5.4,4.3c1.9,1.7,3.6,3.6,5.1,5.7c1.5,2.1,2.7,4.1,4.9,5.6c0.7,0.5,2,1.3,2.8,1.5
				c0.8,0.2,1.1-0.1,1.8,0.3c1.7,1.1,0.7,4.6,1.2,6.4c0.6,2.2,2.1,3.9,3,6c-1.3-0.3-2.2-2.4-2.9-3.5c-0.8-1.1-1.7-1.9-2.7-2.9
				c-2-2.1-2.5-4.9-4.9-6.9c-4.3-3.5-11.1-3.2-14.7-8c-0.6-0.8-1.1-3-1.8-3.5c-1.3-0.9-1.2,1.8-1,2.5c0.5,2.7,2.1,5.9,4.3,7.5
				c1,0.8,2.3,1.1,3.2,2.1c0.2,0.1,0.4,0.2,0.6,0.2c-0.1,0.4-0.2,0.9-0.2,1.3c0,0.8,0.2,1.6,0.2,2.4c0.1,2-0.4,3.8-0.8,5.7
				c-0.3,1.4,0.5,4.3-0.1,5.4c-1.2-4.1-2.7-8.9-5-12.6c-0.6-0.9-1.6-1.6-2.1-2.5l-0.6-0.7c0.4-0.3,0.7-0.7,0.9-1.1
				c1.4-2.9-1.7-1.1-2.9-0.9c-2,0.4-4.4-0.4-6.5-0.5c-2,0-3.9-0.2-5.9-0.4c-2.1-0.4-4.2-0.8-6.3-1.4c-2.1-0.6-4-1.7-6-2.2
				c2-1.4,2.6-3.2,3.3-5.4c0.5-1.5,2.1-5,1.1-6.5c-1.1-1.6-1.5,0.9-1.9,1.7c-0.6,1.5-1.5,4-2.6,5.1c-0.6,0.6-1.4,0.5-2,1.3
				c-0.4,0.6-0.5,1.4-0.5,2.1c-0.2,2,0.6,3.6,1.3,5.5c1.7,4.3,2.3,8.9,4.5,12.9C52,77.5,50.7,77.4,49.3,77.2"/>
			<path id="Path_572" class="st1" d="M21.6,43.5c-1.1-0.2-4.4-0.6-3.4-2.6C19.2,39,21.8,42.2,21.6,43.5 M-9.9,28.1
				c0.6-0.2,1.6-0.6,2.3-0.6c0.8,0.1,1.4,0.6,2.2,0.7c1.6,0.2,2.9-0.5,4,1.2C-3.8,29.4-8.3,30.2-9.9,28.1 M32.9,68.7
				c-2.2,0.3-3.2-9.2-3.3-10.5c1-0.1,3.6,1.8,3.8,2.7c0.2,1-0.6,2.5-0.7,3.5C32.5,65.9,32.6,67.3,32.9,68.7 M20.9,14.3
				c2.6,0.3,5.5,1.1,7.9-0.4c1.9-1.2,2.7-3.6,4.3-5.1c0,4.2-3.8,7.5-7.6,8.8c-2,0.7-4.9-0.3-6.7,0.8c-0.5,0.3-1.6,1.8-1.6,2.4
				c-0.1,2,1.3,0.2,2.2,0.3c1.1,0.1,2.8,3.1,3.7,4c0.7,0.7,1.5,1.3,2.3,1.9c0.3,0.2,1.6,0.9,1.7,1.2c0.1,0.3-0.7,1.4-0.9,1.7
				c-1,1.8-2.5,3.5-4.2,4.7c-0.9,0.7-1.7,1.1-2.6,1.6c-0.3,0.2-1.4,1.7-1.1,1.7c-0.5-1.4-1.8-3.1-2.7-4.4c-0.9-1.3-2.1-2.7-3.7-3.2
				c-0.8-0.3-1.7-0.4-2.5-0.5c-0.5,0-1,0-1.5,0.1c-0.7,0.3-1,0.1-0.8-0.8c-0.7-1.6-0.3-3.5-1.3-5.1c-1-1.8-3-2.8-5-2.5
				c-0.9,0.1-2,0.5-2.9,0.3C-3,21.7-4,21-4.9,20.7c-3.5-1.2-7.8-2.8-10.6-5.4c-0.4-0.4-1.6-1.5-1.7-2.1l0.7-1.7
				c0.1-0.8,0.5-1,1.2-0.7c0.9,0,2.5,1,3.3,1.2c1.1,0.4,2.2,0.7,3.2,1.1c1.8,0.7,3.7,1.4,5.6,1.8c2,0.4,3,0.7,4-1.2
				c1-1.9,0.9-2.9,3.3-2.7c2.1,0.2,3.9,1.1,5.9,1.9c1.3,0.6,3,1.6,4.4,1.8c1,0.2,2.1-0.2,3-0.4C18.6,14.3,19.7,14.2,20.9,14.3
				 M-4.1,25.1h-1.1l2.5-1.5c1.2,1.9,4.1,1.1,5.9,2.2c1.5,0.9,2.8,4.9,1.4,6.3c-2,2-2.9-2.4-3.5-3.5C0.1,26.6-1.6,25-4.1,25.1
				 M30.2,29.4c0.8-1.4,0.4-3.2-1-4.1c-1.9-1.3-3.8-2.7-5.6-4.1c2.9-0.4,5.6-1.6,7.9-3.4c2.9-2.2,3.8-4.2,3.7-8
				c0-1.9,0.2-7.2-2.8-5.6c-2.5,1.3-2.8,4.8-5.5,6c-2.6,1.2-5.8,0-8.5,0.9c-0.8,0.3-2.9,2.1-3.6,2.1c-0.9,0-3-1.9-3.8-2.3
				c-2-1.1-4.7-2.2-6.9-2.5C2.6,8.1,2.2,8,1.2,9c-1.2,1.2-1.5,2.6-1.9,4.1C-5.1,11.3-9.5,9.7-14,8.2c-1.3-0.4-2.5-1.1-3.6-1.8
				c-1.7-1.1-2.7-0.6-3,1.6c-0.6,3.9,1.8,6.4,3.9,9.3c1.1,1.6,1.9,2.8,3.8,3.6c1.9,0.9,4.3,0.6,6.4,1.2c-0.5,0.7-0.8,2.2-1.3,2.7
				c-0.4,0.4-2.2,0.3-2.9,0.6c-1.9,1-1.7,2.6-0.5,4.3c1.3,1.8,3.2,2.2,5.4,2.3c0.9,0.1,1.8,0.1,2.7,0c0.6,0,2.7-0.7,3.2-0.5
				c0.5,0.2,0.7,1.4,0.9,2c0.4,0.9,0.8,1.8,1.8,2.2c0.8,0.3,1.7,0.3,2.4-0.2c1-0.6,0.7-1.4,1.3-2.2c0.1-0.9,0.4-1,1.1-0.5
				c0.5,0.2,1,0.4,1.6,0.6c1.1,0.3,2.1,0.8,3,1.4c1.8,1.3,2.9,3.4,4.9,4.3c-1.3,2.3-0.5,5.3,1.7,6.5c0.5,0.3,1.1,0.6,1.6,0.8
				c0.4,0.1,1.4,0,1.7,0.2c0.4,0.3,0.6,3.4,0.9,4c0.9,2.3,2.9,3.5,4.1,5.6c1.1,2.1,0.9,5.3,1.2,7.6c0.4,2.9,0.7,5.9,1.9,8.6
				c0.8,1.8,3.3,3.9,5.5,3.6c3.2-0.5,1.8-4.6,0.8-6.4c-1.5-2.7-1.5-4.8-1.1-7.8c1.3,0.2,4.4,1.4,4.3-1c-0.1-1.6-3.7-3.2-4.9-4
				c-2.9-1.9-5.6-4-8.1-6.4c-1-1-2.4-2.8-2.9-4.2c-0.4-1-0.3-1.9-0.4-3c-0.1-1-0.9-2.3-0.9-3.1c0.1-1.2,3.3-3.2,4.2-4.5
				C28.3,33.6,29.3,31.5,30.2,29.4"/>
			<path id="Path_573" class="st1" d="M-34.9,33.5c-1-0.1-4.8-1.2-5.5-0.2c-1.2,1.8,2.3,2.1,3.2,2.3c3.9,0.7,7.7,1.7,11.5,2.8
				c7.6,2.1,15.3,4.8,22.3,8.3c1.1,0.5,4.3,2.8,5.4,1.6c1.4-1.5-2-3.1-2.8-3.5c-3.5-2-7.2-3.8-11-5.3
				C-19.1,36.6-26.9,34.4-34.9,33.5"/>
			<path id="Path_574" class="st1" d="M59.5,129c-5.6-0.8-11.7,0.4-17.2,2.1c-1.8,0.5-3.5,1.2-5.2,2.1c-0.9,0.5-2.9,1.3-3.4,2.2
				c-0.8,1.5,0.1,2.1,1.4,1.9c1.2-0.2,2.8-0.9,4.1-1.3c5.9-1.5,11.8-2.6,17.9-3.2c1.3-0.1,2.6,0,3.9,0.3c1,0.2,3.8,1.3,4.6,0.7
				C68.4,131.4,60.9,129.2,59.5,129"/>
			<path id="Path_575" class="st1" d="M-27.9,140.5c-0.4,2.1,0.7,2.3,2.5,3.3c1.8,1,3.7,1.9,5.7,2.7c2.1,0.9,4.3,1.7,6.5,2.4
				c1.9,0.5,4.7,1.8,6.6,1.6c0.8-0.1,1.3,0,1.3-0.9c0-1-1-1-1.8-1.2c-2.5-0.7-4.9-1.8-7.3-2.6C-19,144.2-23.6,142.9-27.9,140.5"/>
			<path id="Path_576" class="st1" d="M111.5,36.3c1.4-2.4,1.4-5.5,1-8.2c-0.1-0.9-2.3-7.6-3.6-6.2c-0.8,0.8,1.9,6.1,2.2,7.3
				c0.4,1.4,0.5,2.9,0.3,4.4C111.2,33.9,110.3,36.5,111.5,36.3"/>
			<path id="Path_577" class="st1" d="M36,49.8c1.1-1.4-0.4-4.7-0.8-6.2c-0.3-0.9-1.1-4.5-2.3-3.7c-1.2,0.7,0.1,4.1,0.4,5
				C33.6,46.2,34.1,49.8,36,49.8"/>
			<path id="Path_578" class="st1" d="M-81.1,126.7c-0.2-0.5-0.4-0.9-0.6-1.4c-0.5,0.4-1.2,0.6-0.7,1.1
				C-82,126.8-81.5,126.9-81.1,126.7"/>
			<path id="Path_579" class="st1" d="M-63.3,36.7c0.8,0.1,1.5,0.2,2.3,0.1L-63.3,36.7"/>
			<path id="Path_580" class="st1" d="M-91.3,103.8c0-0.6,0-1.1,0-1.7C-91.3,102.7-91.3,103.2-91.3,103.8"/>
			<path id="Path_581" class="st1" d="M47.7,60.7c0-0.6,0-1.1,0-1.7C47.7,59.6,47.7,60.2,47.7,60.7"/>
			<path id="Path_582" class="st1" d="M20.9,10.4l1.7,0C22,10.2,21.4,10.2,20.9,10.4"/>
			<path id="Path_583" class="st1" d="M17,187.3c0,0.4,0,0.8,0,1.1C17,188.1,17,187.7,17,187.3"/>
			<path id="Path_584" class="st1" d="M89.5,49.7c-0.3,0-0.6,0-0.9,0L89.5,49.7"/>
			<path id="Path_585" class="st1" d="M-72.6,151.2c0-0.4,0-0.8,0-1.1C-72.6,150.4-72.6,150.8-72.6,151.2"/>
			<path id="Path_586" class="st1" d="M-87.2,76c0-0.4,0-0.8-0.1-1.1C-87.2,75.2-87.2,75.6-87.2,76"/>
			<path id="Path_587" class="st1" d="M-61.1,18c0,0.4,0,0.8,0.1,1.1C-61.1,18.7-61.1,18.3-61.1,18"/>
			<path id="Path_588" class="st1" d="M-134.9,144c0-0.4,0-0.8,0-1.1C-134.9,143.2-134.9,143.6-134.9,144"/>
			<path id="Path_589" class="st1" d="M-20.6,11.6c0-0.4,0-0.8,0-1.1C-20.6,10.9-20.6,11.3-20.6,11.6"/>
			<path id="Path_590" class="st1" d="M99.4,36.3c0-0.4,0-0.8,0-1.1C99.4,35.6,99.4,35.9,99.4,36.3"/>
			<path id="Path_591" class="st1" d="M-4.1,32.2l-0.9,0L-4.1,32.2"/>
			<path id="Path_592" class="st1" d="M-100.8,12.8c0-0.4,0-0.8,0.1-1.1C-100.7,12-100.7,12.4-100.8,12.8"/>
			<path id="Path_593" class="st1" d="M88.5,72.2c0,0.4,0,0.8,0,1.1C88.5,73,88.5,72.6,88.5,72.2"/>
			<path id="Path_594" class="st1" d="M-136.7,138.8c0-0.4,0-0.8,0.1-1.1C-136.6,138.1-136.6,138.4-136.7,138.8"/>
			<path id="Path_595" class="st1" d="M6.2,135.8l-0.9,0C5.6,135.8,5.9,135.8,6.2,135.8"/>
			<path id="Path_596" class="st1" d="M-87.3,83.7c0-0.4,0-0.8,0.1-1.1C-87.2,82.9-87.3,83.3-87.3,83.7"/>
			<path id="Path_597" class="st1" d="M50.4,128.9l1.1,0L50.4,128.9"/>
			<path id="Path_598" class="st1" d="M59.6,128.9l1.1,0.1L59.6,128.9"/>
			<path id="Path_599" class="st1" d="M-87,81.1c0-0.3,0-0.6,0-0.9C-86.9,80.5-87,80.8-87,81.1"/>
			<path id="Path_600" class="st1" d="M-99.9,25.1c0-0.3,0-0.6,0-0.9C-99.9,24.6-99.9,24.8-99.9,25.1"/>
			<path id="Path_601" class="st1" d="M-12,27.7c0-0.3,0-0.6,0-0.9C-12,27.1-12,27.4-12,27.7"/>
			<path id="Path_602" class="st1" d="M27.9,106.7l-0.5,0C27.8,107.1,28.2,106.8,27.9,106.7"/>
			<path id="Path_603" class="st1" d="M10.5,135.5l-0.6,0L10.5,135.5"/>
			<path id="Path_604" class="st1" d="M-136.4,136.5c0-0.3,0-0.6,0.1-0.9C-136.3,136-136.3,136.2-136.4,136.5"/>
			<path id="Path_605" class="st1" d="M87.6,80c0,0.3,0,0.6,0.1,0.9C87.6,80.5,87.6,80.3,87.6,80"/>
			<path id="Path_606" class="st1" d="M-44,43c0.3,0.3,0.8,0.1,1.1,0.1L-44,43"/>
			<path id="Path_607" class="st1" d="M-134.6,147.7c0-0.3,0-0.6,0-0.9C-134.6,147.2-134.6,147.4-134.6,147.7"/>
			<path id="Path_608" class="st1" d="M-69.7,158.3c0-0.3,0-0.6-0.1-0.9C-69.7,157.8-69.7,158.1-69.7,158.3"/>
			<path id="Path_609" class="st1" d="M92.6,49.4l-0.6,0L92.6,49.4"/>
			<path id="Path_610" class="st1" d="M-34.8,33.6l1.1,0.1L-34.8,33.6"/>
			<path id="Path_611" class="st1" d="M-7.2,185.9c0,0.3,0.1,0.6,0.1,0.9C-7.1,186.5-7.2,186.2-7.2,185.9"/>
			<path id="Path_612" class="st1" d="M49.3,77.2l1.1,0.1L49.3,77.2"/>
			<path id="Path_613" class="st1" d="M1,174.6l-2.3-0.1L1,174.6"/>
			<path id="Path_614" class="st1" d="M-68.8,147.7c0-0.5,0-1-0.1-1.4C-68.9,146.8-68.9,147.2-68.8,147.7"/>
			<path id="Path_615" class="st1" d="M-84.2,18.2l-1.4-0.1L-84.2,18.2"/>
			<path id="Path_616" class="st1" d="M52.4,115.7l-1.4,0.1L52.4,115.7"/>
			<path id="Path_617" class="st1" d="M18.4,104.7c0.2-0.4,0.2-0.8,0-1.1C18.2,103.9,18.3,104.3,18.4,104.7"/>
			<path id="Path_618" class="st1" d="M-119.1,131.9c0,0.4,0,0.8,0,1.1C-119.1,132.7-119.1,132.3-119.1,131.9"/>
			<path id="Path_619" class="st1" d="M-4,169.5c0-0.4,0-0.8,0-1.1C-4,168.8-4,169.2-4,169.5"/>
			<path id="Path_620" class="st1" d="M9.7,131.2l-1.1,0.1L9.7,131.2"/>
			<path id="Path_621" class="st1" d="M16.8,106.1c0.1-0.5,0-0.6-0.2-0.5C16.5,106,16.6,106.2,16.8,106.1"/>
			<path id="Path_622" class="st1" d="M2.6,86.6c0,0.3,0,0.6,0,0.9C2.6,87.1,2.6,86.9,2.6,86.6"/>
			<path id="Path_623" class="st1" d="M-129.2,141.1c0-0.3,0-0.6,0-0.9C-129.2,140.5-129.2,140.8-129.2,141.1"/>
			<path id="Path_624" class="st1" d="M-88,18.1h-1.1H-88"/>
			<path id="Path_625" class="st1" d="M-78.5,53.2l-1.1-0.1L-78.5,53.2z"/>
			<path id="Path_626" class="st1" d="M-60.4,101.4l0.6,0L-60.4,101.4"/>
			<path id="Path_627" class="st1" d="M-67.1,156.1c0-0.3,0-0.6-0.1-0.9C-67.2,155.5-67.1,155.8-67.1,156.1"/>
			<path id="Path_628" class="st1" d="M-22.8,160.5l0.6,0L-22.8,160.5"/>
			<path id="Path_629" class="st1" d="M2.6,87.7c0,0.3,0,0.6,0,0.9C2.6,88.3,2.6,88,2.6,87.7"/>
			<path id="Path_630" class="st1" d="M20,14.1L20,14.1"/>
			<path id="Path_631" class="st1" d="M18.6,36.9c-0.4,0.3-0.5,0.6-0.2,0.9C18.9,37.7,19,37.4,18.6,36.9"/>
			<path id="Path_632" class="st1" d="M-3,25l-1.1,0L-3,25"/>
			<path id="Path_633" class="st1" d="M5.2,29.7c0,0.3,0,0.6,0,0.9C5.2,30.3,5.2,30,5.2,29.7"/>
			<path id="Path_634" class="st1" d="M12.2,30.2l-1.1-0.1L12.2,30.2z"/>
			<path id="Path_635" class="st1" d="M-39.7,83c2.8,0.3,6.4,0,8.9-1.3c1.8-0.9,2.6-4.1,0-4.5c-1.4-0.2-3.2,1-4.4,1.5
				c-1.5,0.5-3.1,0.9-4.6,1.3c-1.1,0.3-2.6,1-1.6,2.5C-41.3,82.7-39.7,83.5-39.7,83"/>
			<path id="Path_636" class="st1" d="M-79.3,96.8c0.3,1.8,0.3,3.8,1.2,5.5c1.2,2.4,1.5-0.2,1.3-1.5c-0.3-1.9-0.4-3.9-0.3-5.8
				c0.1-1.6,1.2-3.5,0.4-4.9C-78.9,91.4-78.9,94.5-79.3,96.8"/>
			<path id="Path_637" class="st1" d="M-79.4,40.6c1.2-0.3,3.1-1.1,1.5-2.2c-0.7-0.5-2-0.2-2.8-0.7c-0.5-0.3-0.7-0.8-1.2-1
				c-1.5-0.7-1.7,0.5-1.1,1.9C-82.4,40.2-81,40.7-79.4,40.6"/>
			<path id="Path_638" class="st1" d="M-78.8,31.1c-2-1.5-1.7,0.4-0.7,1.6c0.4,0.4,0.8,0.9,1.2,1.3l-0.3,0.4c0.1,0.6-0.5,1,0.2,1.4
				c1.1,0.6,1.9-0.9,1.9-1.7C-76.5,32.8-77.8,31.9-78.8,31.1"/>
			<path id="Path_639" class="st1" d="M-78.5,31.2c1.8,1.8,1.8-1.8,0.8-2.6C-79.6,27.2-78.4,30.6-78.5,31.2"/>
			<path id="Path_640" class="st1" d="M-82,32.6c0.1-0.6,0.1-3.6-1.1-3.4C-84.5,29.4-83,32.7-82,32.6"/>
			<path id="Path_641" class="st1" d="M-79.6,40.8l-0.6,0L-79.6,40.8"/>
			<path id="Path_642" class="st1" d="M7.8,18.2c1.6-2.6-2-7.2-3.8-3.5c-0.2,0.5-0.8,1.8-0.1,2.2c0.7,0.4,0.6-0.2,1.1-0.3
				c0.7-0.1,0.5-0.4,1.3-0.1C6.9,16.8,7.4,17.8,7.8,18.2"/>
		</g>
	</g>
</g>
</svg>
