<svg id="Layer_1" data-name="Layer 1" xmlns="http://www.w3.org/2000/svg" xmlns:xlink="http://www.w3.org/1999/xlink" viewBox="0 0 499.72 197.38"><defs><style>.cls-1{fill:#4d4d4d;stroke:#4d4d4d;}.cls-1,.cls-2,.cls-3{stroke-miterlimit:10;stroke-width:5px;}.cls-2{fill:#7e72d7;stroke:#7e72d7;}.cls-3{fill:#fc1264;stroke:#fc1264;}.cls-4{fill:url(#linear-gradient);}.cls-5{fill:url(#linear-gradient-2);}.cls-6{fill:url(#linear-gradient-3);}</style><linearGradient id="linear-gradient" x1="43.93" y1="97.54" x2="-22.79" y2="30.82" gradientTransform="translate(-53.61 74.75) rotate(-90)" gradientUnits="userSpaceOnUse"><stop offset="0.23" stop-color="#fc1264"/><stop offset="0.35" stop-color="#fd3e5d"/><stop offset="0.51" stop-color="#fe7256"/><stop offset="0.66" stop-color="#fe9a50"/><stop offset="0.79" stop-color="#ffb74c"/><stop offset="0.91" stop-color="#ffc949"/><stop offset="1" stop-color="#ffcf48"/></linearGradient><linearGradient id="linear-gradient-2" x1="3.44" y1="11.72" x2="41.83" y2="78.21" gradientTransform="matrix(-0.4, -0.94, 1.08, -0.35, -20.55, 107.3)" gradientUnits="userSpaceOnUse"><stop offset="0.31" stop-color="#ffcf48"/><stop offset="0.38" stop-color="#ffc749"/><stop offset="0.49" stop-color="#ffb04d"/><stop offset="0.64" stop-color="#fe8b52"/><stop offset="0.8" stop-color="#fd585a"/><stop offset="0.98" stop-color="#fc1863"/><stop offset="1" stop-color="#fc1264"/></linearGradient><linearGradient id="linear-gradient-3" x1="123.89" y1="255.71" x2="15.25" y2="245.89" gradientTransform="translate(170.02 -137.05) rotate(39.83)" gradientUnits="userSpaceOnUse"><stop offset="0" stop-color="#7e72d7"/><stop offset="0.15" stop-color="#8a69cc"/><stop offset="0.44" stop-color="#ab50ae"/><stop offset="0.81" stop-color="#df287f"/><stop offset="1" stop-color="#fc1264"/></linearGradient></defs><title>bArtboard 1</title><path class="cls-1" d="M189.31,160.55c-2.89,0-5.08-1.49-6.49-4.56L142.7,63.56c-1.31-3.15-1.4-5.69-.44-7.7s2.89-3.07,5.78-3.07c3.25,0,5.44,1.4,6.57,4.29l35.22,85.07h-1.49l35.92-85.07a8,8,0,0,1,2.63-3.41,7.24,7.24,0,0,1,3.94-.88c2.72,0,4.65,1,5.7,3a7,7,0,0,1-.09,6.57L195.79,156a8,8,0,0,1-2.54,3.42A7,7,0,0,1,189.31,160.55Z"/><path class="cls-1" d="M255.1,161.06a6.73,6.73,0,0,1-5-2.06,7,7,0,0,1-2-5.1V91.57a7.06,7.06,0,0,1,2-5.19,6.65,6.65,0,0,1,5-2,6.72,6.72,0,0,1,5.08,2,7,7,0,0,1,1.93,5.19V153.9a6.93,6.93,0,0,1-1.93,5.1A6.67,6.67,0,0,1,255.1,161.06Z"/><path class="cls-1" d="M314.5,160.55a37.09,37.09,0,0,1-19.19-5,35.88,35.88,0,0,1-13.4-13.66,39.17,39.17,0,0,1-5.08-19.45V59.8a6.87,6.87,0,0,1,2-5.08,7.55,7.55,0,0,1,10.08,0,6.81,6.81,0,0,1,1.92,5.08V96.86a35.39,35.39,0,0,1,11.57-9.12,34.92,34.92,0,0,1,32.85,1.67A35.36,35.36,0,0,1,347.79,103a40.41,40.41,0,0,1,4.55,19.45,38.06,38.06,0,0,1-5,19.45,36.81,36.81,0,0,1-32.85,18.66Zm0-12.36a23.23,23.23,0,0,0,21.2-12.61,26.55,26.55,0,0,0,3.24-13.14,25.85,25.85,0,0,0-3.24-13.14,24.78,24.78,0,0,0-8.67-9.12,23.19,23.19,0,0,0-12.53-3.32,23.47,23.47,0,0,0-21.12,12.44,27,27,0,0,0-3.15,13.14,27.49,27.49,0,0,0,3.15,13.14,24,24,0,0,0,8.68,9.28A24.24,24.24,0,0,0,314.5,148.19Z"/><path class="cls-1" d="M403.68,160.55a41.22,41.22,0,0,1-20.24-4.91,35.73,35.73,0,0,1-13.84-13.4,38.36,38.36,0,0,1-5-19.72,40.12,40.12,0,0,1,4.73-19.79,34.43,34.43,0,0,1,13.14-13.41,37.67,37.67,0,0,1,19.19-4.9q10.63,0,18.39,4.73a31.25,31.25,0,0,1,11.74,13,42.75,42.75,0,0,1,4,19.1,5.8,5.8,0,0,1-1.75,4.29,6.41,6.41,0,0,1-4.55,1.75H374.25v-11h54.84l-5.61,3.86a30.54,30.54,0,0,0-2.71-12.27,20.12,20.12,0,0,0-19.1-11.74,25.2,25.2,0,0,0-13.41,3.42,22.33,22.33,0,0,0-8.41,9.38A30.58,30.58,0,0,0,377,122.44a26,26,0,0,0,3.42,13.4,25.54,25.54,0,0,0,9.46,9.37,27.69,27.69,0,0,0,13.84,3.42,25.35,25.35,0,0,0,8.67-1.58,25.89,25.89,0,0,0,7.19-3.68A8.66,8.66,0,0,1,424,141.8a6.11,6.11,0,0,1,4.2,1.4,6.41,6.41,0,0,1,2.45,4.56,4.9,4.9,0,0,1-2.19,4.29,39.75,39.75,0,0,1-11.56,6A38.5,38.5,0,0,1,403.68,160.55Z"/><path class="cls-1" d="M429.7,191.21a6.43,6.43,0,0,1-4.9-2,6.71,6.71,0,0,1-1.93-5,6.78,6.78,0,0,1,1.93-5.08,6.5,6.5,0,0,1,4.9-1.93,19.26,19.26,0,0,0,9.64-2.36,17.77,17.77,0,0,0,6.48-6.49,18.46,18.46,0,0,0,2.37-9.46V91a6.89,6.89,0,0,1,2-5.09,6.75,6.75,0,0,1,5-1.92,6.6,6.6,0,0,1,7,7v67.8a32.8,32.8,0,0,1-4.2,16.74A30.68,30.68,0,0,1,446.52,187,32.77,32.77,0,0,1,429.7,191.21Z"/><path class="cls-1" d="M484.28,161.06a6.73,6.73,0,0,1-5-2.06,7,7,0,0,1-2-5.1V91.57a7.06,7.06,0,0,1,2-5.19,6.65,6.65,0,0,1,5-2,6.72,6.72,0,0,1,5.08,2,7,7,0,0,1,1.93,5.19V153.9a6.93,6.93,0,0,1-1.93,5.1A6.37,6.37,0,0,1,484.28,161.06Z"/><path class="cls-1" d="M255.1,70.92a8.69,8.69,0,0,1-6.4-2.71,8.88,8.88,0,0,1-2.71-6.4,8.67,8.67,0,0,1,2.71-6.39,8.92,8.92,0,0,1,6.4-2.72,8.7,8.7,0,0,1,6.4,2.72,8.88,8.88,0,0,1,2.71,6.39,8.68,8.68,0,0,1-2.71,6.4A8.43,8.43,0,0,1,255.1,70.92Z"/><path class="cls-2" d="M455.46,70.92a8.68,8.68,0,0,1-6.4-2.71,8.88,8.88,0,0,1-2.71-6.4,8.67,8.67,0,0,1,2.71-6.39,8.89,8.89,0,0,1,6.4-2.72,8.68,8.68,0,0,1,6.39,2.72,8.88,8.88,0,0,1,2.72,6.39,9.27,9.27,0,0,1-9.11,9.11Z"/><path class="cls-3" d="M484.28,70.92a8.69,8.69,0,0,1-6.4-2.71,8.88,8.88,0,0,1-2.71-6.4,8.71,8.71,0,0,1,2.71-6.39,8.92,8.92,0,0,1,6.4-2.72,8.7,8.7,0,0,1,6.4,2.72,8.88,8.88,0,0,1,2.71,6.39,8.68,8.68,0,0,1-2.71,6.4A8.57,8.57,0,0,1,484.28,70.92Z"/><rect class="cls-4" x="-51.77" y="53.61" width="124.69" height="21.14" rx="10.57" transform="translate(74.75 53.61) rotate(90)"/><rect class="cls-5" x="-32.76" y="48.62" width="123.82" height="21.14" rx="10.57" transform="translate(94.81 52.73) rotate(110.61)"/><path class="cls-6" d="M32.16,141.31c-12.9-10.77-14.81-29.73-4.27-42.37s29.54-14.16,42.45-3.4,14.81,29.73,4.27,42.37S45.06,152.07,32.16,141.31ZM9.66,87.55l0,0C-5.88,108.65-2.16,138.68,18.58,156c21.54,18,53.27,15.41,70.87-5.7s14.43-52.78-7.11-70.74A51.18,51.18,0,0,0,53.76,67.76L82.6,33.19A10.64,10.64,0,0,0,66.26,19.57L11.47,85.24Z"/></svg>