<svg id="Layer_1" data-name="Layer 1" xmlns="http://www.w3.org/2000/svg" xmlns:xlink="http://www.w3.org/1999/xlink" viewBox="0 0 499.72 197.38"><defs><style>.cls-1{fill:#f2f2f2;stroke:#f2f2f2;}.cls-1,.cls-2,.cls-3{stroke-miterlimit:10;stroke-width:5px;}.cls-2{fill:#7e72d7;stroke:#7e72d7;}.cls-3{fill:#fc1264;stroke:#fc1264;}.cls-4{fill:url(#linear-gradient);}.cls-5{fill:url(#linear-gradient-2);}.cls-6{fill:url(#linear-gradient-3);}</style><linearGradient id="linear-gradient" x1="43.93" y1="102.45" x2="-22.79" y2="169.18" gradientTransform="matrix(1, 0, 0, -1, 0, 200)" gradientUnits="userSpaceOnUse"><stop offset="0.23" stop-color="#fc1264"/><stop offset="0.35" stop-color="#fd3e5d"/><stop offset="0.51" stop-color="#fe7256"/><stop offset="0.66" stop-color="#fe9a50"/><stop offset="0.79" stop-color="#ffb74c"/><stop offset="0.91" stop-color="#ffc949"/><stop offset="1" stop-color="#ffcf48"/></linearGradient><linearGradient id="linear-gradient-2" x1="16.4" y1="221.5" x2="54.81" y2="154.99" gradientTransform="matrix(1.02, -0.04, 0.05, -1.13, -23.66, 260.63)" gradientUnits="userSpaceOnUse"><stop offset="0.31" stop-color="#ffcf48"/><stop offset="0.38" stop-color="#ffc749"/><stop offset="0.49" stop-color="#ffb04d"/><stop offset="0.64" stop-color="#fe8b52"/><stop offset="0.8" stop-color="#fd585a"/><stop offset="0.98" stop-color="#fc1863"/><stop offset="1" stop-color="#fc1264"/></linearGradient><linearGradient id="linear-gradient-3" x1="304.65" y1="45.15" x2="196.04" y2="54.96" gradientTransform="matrix(0.77, 0.64, 0.64, -0.77, -161.61, -21.69)" gradientUnits="userSpaceOnUse"><stop offset="0" stop-color="#7e72d7"/><stop offset="0.15" stop-color="#8a69cc"/><stop offset="0.44" stop-color="#ab50ae"/><stop offset="0.81" stop-color="#df287f"/><stop offset="1" stop-color="#fc1264"/></linearGradient></defs><title>bArtboard 1</title><path class="cls-1" d="M189.31,160.55c-2.89,0-5.08-1.49-6.49-4.56L142.7,63.56c-1.31-3.15-1.4-5.69-.44-7.7s2.89-3.07,5.78-3.07c3.25,0,5.44,1.4,6.57,4.29l35.22,85.07h-1.49l35.92-85.07a8,8,0,0,1,2.63-3.41,7.21,7.21,0,0,1,3.94-.88c2.72,0,4.65,1,5.7,3a7,7,0,0,1-.09,6.57L195.79,156a8,8,0,0,1-2.54,3.42A7,7,0,0,1,189.31,160.55Z"/><path class="cls-1" d="M255.1,161.06a6.73,6.73,0,0,1-5-2.06,7,7,0,0,1-2-5.1V91.57a7.06,7.06,0,0,1,2-5.19,7.35,7.35,0,0,1,10.08,0,7,7,0,0,1,1.93,5.19V153.9a6.94,6.94,0,0,1-1.93,5.1A6.69,6.69,0,0,1,255.1,161.06Z"/><path class="cls-1" d="M314.5,160.55a37,37,0,0,1-19.19-5,35.94,35.94,0,0,1-13.4-13.66,39.12,39.12,0,0,1-5.08-19.45V59.8a6.87,6.87,0,0,1,2-5.08,7.55,7.55,0,0,1,10.08,0,6.79,6.79,0,0,1,1.92,5.08V96.86a35.3,35.3,0,0,1,11.57-9.12,34.92,34.92,0,0,1,32.85,1.67A35.4,35.4,0,0,1,347.79,103a40.47,40.47,0,0,1,4.55,19.45,38.1,38.1,0,0,1-5,19.45,36.82,36.82,0,0,1-32.85,18.66Zm0-12.36a23.22,23.22,0,0,0,21.2-12.61,26.55,26.55,0,0,0,3.24-13.14,25.78,25.78,0,0,0-3.24-13.14,24.71,24.71,0,0,0-8.67-9.12,23.12,23.12,0,0,0-12.53-3.32,23.46,23.46,0,0,0-21.12,12.44,27,27,0,0,0-3.15,13.14,27.46,27.46,0,0,0,3.15,13.14,23.26,23.26,0,0,0,21.12,12.61Z"/><path class="cls-1" d="M403.68,160.55a41.28,41.28,0,0,1-20.24-4.91,35.78,35.78,0,0,1-13.84-13.4,38.36,38.36,0,0,1-5-19.72,40.14,40.14,0,0,1,4.73-19.79,34.42,34.42,0,0,1,13.14-13.41,37.61,37.61,0,0,1,19.19-4.9,34.66,34.66,0,0,1,18.39,4.73,31.29,31.29,0,0,1,11.74,13,42.67,42.67,0,0,1,4,19.1,5.8,5.8,0,0,1-1.75,4.29,6.4,6.4,0,0,1-4.55,1.75H374.25v-11h54.84l-5.61,3.86a30.58,30.58,0,0,0-2.71-12.27,20.1,20.1,0,0,0-19.1-11.74,25.22,25.22,0,0,0-13.41,3.42,22.23,22.23,0,0,0-8.41,9.38,30.52,30.52,0,0,0-2.85,13.5,26,26,0,0,0,3.42,13.4,25.54,25.54,0,0,0,9.46,9.37,27.67,27.67,0,0,0,13.84,3.42,25.43,25.43,0,0,0,8.67-1.58,25.75,25.75,0,0,0,7.19-3.68A8.69,8.69,0,0,1,424,141.8a6.11,6.11,0,0,1,4.2,1.4,6.42,6.42,0,0,1,2.45,4.56,4.91,4.91,0,0,1-2.19,4.29,39.78,39.78,0,0,1-11.56,6A38.56,38.56,0,0,1,403.68,160.55Z"/><path class="cls-1" d="M429.7,191.21a6.42,6.42,0,0,1-4.9-2,6.72,6.72,0,0,1-1.93-5,6.8,6.8,0,0,1,1.93-5.08,6.48,6.48,0,0,1,4.9-1.93,19.21,19.21,0,0,0,9.64-2.36,17.77,17.77,0,0,0,6.48-6.49,18.51,18.51,0,0,0,2.37-9.46V91a6.91,6.91,0,0,1,2-5.09,6.75,6.75,0,0,1,5-1.92,6.6,6.6,0,0,1,7,6.17,5.75,5.75,0,0,1,0,.83v67.8a32.79,32.79,0,0,1-4.2,16.74A30.8,30.8,0,0,1,446.52,187,32.79,32.79,0,0,1,429.7,191.21Z"/><path class="cls-1" d="M484.28,161.06a6.73,6.73,0,0,1-5-2.06,7,7,0,0,1-2-5.1V91.57a7.06,7.06,0,0,1,2-5.19,7.35,7.35,0,0,1,10.08,0,7,7,0,0,1,1.93,5.19V153.9a6.94,6.94,0,0,1-1.93,5.1A6.38,6.38,0,0,1,484.28,161.06Z"/><path class="cls-1" d="M255.1,70.92a8.68,8.68,0,0,1-6.4-2.71,8.89,8.89,0,0,1-2.71-6.4,8.68,8.68,0,0,1,2.71-6.39,8.9,8.9,0,0,1,6.4-2.72,8.69,8.69,0,0,1,6.4,2.72,8.89,8.89,0,0,1,2.71,6.39,8.64,8.64,0,0,1-2.71,6.4A8.43,8.43,0,0,1,255.1,70.92Z"/><path class="cls-2" d="M455.46,70.92a8.64,8.64,0,0,1-6.4-2.71,8.89,8.89,0,0,1-2.71-6.4,8.68,8.68,0,0,1,2.71-6.39,8.9,8.9,0,0,1,6.4-2.72,8.67,8.67,0,0,1,6.39,2.72,8.86,8.86,0,0,1,2.72,6.39,9.27,9.27,0,0,1-9.11,9.11Z"/><path class="cls-3" d="M484.28,70.92a8.68,8.68,0,0,1-6.4-2.71,8.89,8.89,0,0,1-2.71-6.4,8.71,8.71,0,0,1,2.71-6.39,8.9,8.9,0,0,1,6.4-2.72,8.69,8.69,0,0,1,6.4,2.72,8.89,8.89,0,0,1,2.71,6.39,8.64,8.64,0,0,1-2.71,6.4A8.55,8.55,0,0,1,484.28,70.92Z"/><path class="cls-4" d="M21.14,12.41V116a10.57,10.57,0,0,1-10.57,10.57h0A10.57,10.57,0,0,1,0,116V12.41A10.57,10.57,0,0,1,10.57,1.84h0A10.57,10.57,0,0,1,21.14,12.41Z"/><path class="cls-5" d="M57.11,14.85,21,111a10.58,10.58,0,0,1-13.62,6.18h0a10.58,10.58,0,0,1-6.17-13.62L37.33,7.4A10.57,10.57,0,0,1,50.94,1.23h0A10.57,10.57,0,0,1,57.11,14.85Z"/><path class="cls-6" d="M32.16,141.31c-12.9-10.77-14.81-29.73-4.27-42.37s29.54-14.16,42.45-3.4,14.81,29.73,4.27,42.37S45.06,152.07,32.16,141.31ZM9.66,87.55h0C-5.88,108.65-2.16,138.68,18.58,156c21.54,18,53.27,15.41,70.87-5.7s14.43-52.78-7.11-70.74a51.11,51.11,0,0,0-28.58-11.8L82.6,33.19A10.64,10.64,0,0,0,66.26,19.57L11.47,85.24Z"/></svg>