<svg id="Layer_1" data-name="Layer 1" xmlns="http://www.w3.org/2000/svg" viewBox="0 0 39.15 9.13"><defs><style>.cls-1{fill:#f2f2f3;}</style></defs><path class="cls-1" d="M2.7,9a2.25,2.25,0,0,1-.94-.05A2.37,2.37,0,0,1,1,8.58,2.7,2.7,0,0,1,.43,8,3.35,3.35,0,0,1,0,7.27,3.83,3.83,0,0,1,.1,5.82a4.56,4.56,0,0,1,.48-1.2,6.78,6.78,0,0,1,.72-1l.78-.93a.17.17,0,0,0,.14,0l.09-.09.09-.12a.26.26,0,0,1,.13-.08.57.57,0,0,1,.12-.18l.16-.13L3,1.92a.59.59,0,0,0,.13-.17.67.67,0,0,0,.21-.09l.16-.12.16-.13a.75.75,0,0,1,.2-.1V1.16A.92.92,0,0,0,4.21.9,3.27,3.27,0,0,0,4.49.54H4.7l.24,0a1.3,1.3,0,0,1,.2-.29A1.83,1.83,0,0,1,5.41,0a1,1,0,0,0,.37.11.57.57,0,0,1,.37.18.29.29,0,0,0,.08.22l.15.14.17.14a.29.29,0,0,1,.1.19s.07,0,.08,0,0,0,.07,0a1.31,1.31,0,0,0,0,.15,1.17,1.17,0,0,0,.05.11l.06.1a.58.58,0,0,1,0,.14c0,.1-.07.2-.1.3A.33.33,0,0,1,6.72,2c0,.06,0,.09.07.1s.08,0,.08.09a.23.23,0,0,1,0,.17,10.56,10.56,0,0,1,.6,1.16,9.71,9.71,0,0,0,.61,1.15.86.86,0,0,0,0,.32,2.83,2.83,0,0,0,.11.31l.12.31a1.11,1.11,0,0,1,.08.3,1.55,1.55,0,0,1,0,.43,1.64,1.64,0,0,1-.09.44,1.76,1.76,0,0,1-.19.39.91.91,0,0,1-.27.28,1.48,1.48,0,0,1-.47.38,3,3,0,0,0-.51.34,1.17,1.17,0,0,1-.35.14l-.39.09-.36.18-.44.16-.44.11a1.39,1.39,0,0,1-.4,0,4.5,4.5,0,0,1-.82.21A2.6,2.6,0,0,1,2.7,9Zm.15-4.27a2.57,2.57,0,0,1-.27.49c-.11.14-.21.29-.31.44A4.39,4.39,0,0,0,2,6.12a1.77,1.77,0,0,0-.12.59A1,1,0,0,0,2.44,7,3.61,3.61,0,0,0,3.1,7c.23,0,.45,0,.68-.09a3.58,3.58,0,0,1,.61-.06c0-.07,0-.11.09-.11a2.4,2.4,0,0,0,.92-.27c.28-.15.57-.31.88-.46a.7.7,0,0,1,.15-.25.45.45,0,0,0,.1-.3.6.6,0,0,1-.07-.18,1.06,1.06,0,0,1,0-.21,5.51,5.51,0,0,1-.53-.92,7,7,0,0,0-.51-.94.47.47,0,0,1-.1.11s-.09,0-.15,0a.28.28,0,0,1-.1.16.29.29,0,0,1-.16,0,.39.39,0,0,1-.18,0,.51.51,0,0,1-.16-.09q-.4.33-.81.63A3.83,3.83,0,0,0,3,4.69l-.07,0S2.9,4.71,2.85,4.72Z"/><path class="cls-1" d="M11.21,6.81a.2.2,0,0,0-.15.12L11,7.14c0,.07-.06.13-.08.19a.14.14,0,0,1-.13.09.28.28,0,0,1-.06.16l-.1.15a.77.77,0,0,0-.07.16.32.32,0,0,0,0,.21.27.27,0,0,0-.11.2l-.06.24a.42.42,0,0,1-.1.2c0,.06-.13.08-.25.07s0,0,0,.06,0,0,0,.08a.27.27,0,0,0-.19,0A.3.3,0,0,1,9.7,9a.77.77,0,0,1-.37-.24,1.84,1.84,0,0,1-.26-.4C9,8.24,8.93,8.09,8.87,8a3.76,3.76,0,0,0-.17-.39.53.53,0,0,0,0-.25.44.44,0,0,0-.08-.21c.38-.81.8-1.68,1.26-2.6s.88-1.83,1.28-2.73l.54.24a3,3,0,0,1,.48.31,2,2,0,0,1,.37.4,1.6,1.6,0,0,1,.2.51s0,.07-.06.06,0,0,0,0a.21.21,0,0,1,0,.09,0,0,0,0,1,0,0V3.5a.3.3,0,0,0,0,.11.06.06,0,0,0-.06,0s0,0-.08,0a.44.44,0,0,1,0,.21.53.53,0,0,1,0,.15l-.06.14a.32.32,0,0,0,0,.19l0,0,0,0,0,0h-.05a2.9,2.9,0,0,1,0,.51c0,.17,0,.35,0,.52s0,.36,0,.55a3.19,3.19,0,0,0,.08.6A2.09,2.09,0,0,0,13.13,6a4,4,0,0,0,.41-.86,7.57,7.57,0,0,0,.24-1c.05-.36.11-.74.17-1.12a.78.78,0,0,0,.17-.26c0-.1.07-.21.1-.32L14.31,2c0-.11.08-.22.12-.31a.57.57,0,0,1,.3.11A2.11,2.11,0,0,1,15,2l.22.19a.83.83,0,0,0,.29.11c.1.13.18.26.26.38a1.24,1.24,0,0,1,.16.4.67.67,0,0,0-.09.21,2.17,2.17,0,0,1-.07.24.67.67,0,0,1-.09.21.4.4,0,0,1-.17.17c0,.21-.05.39-.08.56s-.07.33-.11.5l-.09.51a3.58,3.58,0,0,0,0,.58l-.2.57c-.07.21-.12.39-.16.55a1.17,1.17,0,0,0-.3.37c-.07.14-.14.28-.22.42s0,0-.06,0a.1.1,0,0,0-.08,0,.08.08,0,0,1,0,.07l0,0a.08.08,0,0,0,0,0,.11.11,0,0,0,0,.09,1.21,1.21,0,0,0-.3.2,2,2,0,0,1-.27.24.83.83,0,0,1-.35.14,1.14,1.14,0,0,1-.54-.08,5,5,0,0,1-.85-.81A4.21,4.21,0,0,1,11.21,6.81Z"/><path class="cls-1" d="M18.67,8.81,18,9a3,3,0,0,1-.77.11,1.42,1.42,0,0,1-.93-.29.46.46,0,0,0-.11-.18l-.06-.1a.39.39,0,0,1,0-.15A1.19,1.19,0,0,1,15.83,8a1.36,1.36,0,0,1-.11-.44,2.43,2.43,0,0,1,0-.47,3.11,3.11,0,0,1,.08-.44.32.32,0,0,0,0-.09.43.43,0,0,1,0-.11c0-.12.06-.25.1-.36a1,1,0,0,1,.14-.31.3.3,0,0,1,0-.23,1.33,1.33,0,0,1,.11-.24c.11-.29.2-.55.27-.75L16.68,4c.13-.35.26-.7.38-1s.22-.72.31-1.11l.14-.09.12,0a3.83,3.83,0,0,0,.49.2,1.41,1.41,0,0,0,.47.1l.12.09a.12.12,0,0,0,.05.05,3.05,3.05,0,0,1,.22.32.65.65,0,0,1,.06.41C19,2.94,19,3,18.93,3s-.08.29-.12.4l-.14.32-.15.35a3,3,0,0,0-.12.44.37.37,0,0,0-.06.1s0,.07,0,.11l-.05.12a.24.24,0,0,1-.09.11,1.87,1.87,0,0,1-.11.5l-.16.37c-.09.23-.18.45-.25.68a2.93,2.93,0,0,0-.14.77l.11,0h.1a.81.81,0,0,1,.25,0A2,2,0,0,1,18.73,7c.27,0,.55,0,.82,0h.33a1.55,1.55,0,0,0,.31,0l.13.07h.23a.89.89,0,0,0,.27.19,1.69,1.69,0,0,0,.27.11l.25.1a1,1,0,0,1,.24.14l.08.51c.06.07.08.11.07.14a.2.2,0,0,1,0,.14l0,.13a.59.59,0,0,0-.24.08l-.12.11h-.21a1.62,1.62,0,0,0-.4.06,2.08,2.08,0,0,0-.66-.11h-.27l-.28,0-.29,0h-.3Z"/><path class="cls-1" d="M24.46,8.12a.87.87,0,0,1,0,.55.68.68,0,0,1-.28.3.93.93,0,0,1-.42.11,2.13,2.13,0,0,1-.44,0,1.74,1.74,0,0,1-.21-.41l-.18-.51c-.05-.18-.1-.35-.14-.52s-.08-.33-.11-.46a1.38,1.38,0,0,0,.07-.32c0-.12,0-.25,0-.37s0-.25,0-.38a2.22,2.22,0,0,1,0-.37A4.8,4.8,0,0,1,23,4.78a6.92,6.92,0,0,0,.25-.92.34.34,0,0,0,0-.2.29.29,0,0,1,0-.18.09.09,0,0,1,.07-.06s.07,0,.07-.08a.41.41,0,0,0,0-.21.31.31,0,0,1,0-.2,2.12,2.12,0,0,0,.15-.28.62.62,0,0,0,.06-.38,1,1,0,0,0,.2-.16l.2-.17a1.18,1.18,0,0,1,.22-.14.85.85,0,0,1,.3-.05.58.58,0,0,1,.12.25l.06.29a1.14,1.14,0,0,0,.09.26.37.37,0,0,0,.2.19V3a2.44,2.44,0,0,0,0,.27,1,1,0,0,0,.05.25.23.23,0,0,0,.13.14c-.14.38-.27.75-.39,1.12a10.06,10.06,0,0,0-.3,1.11A8.42,8.42,0,0,0,24.39,7,4.86,4.86,0,0,0,24.46,8.12Z"/><path class="cls-1" d="M28.22,6.81a.2.2,0,0,0-.15.12L28,7.14a1.08,1.08,0,0,1-.08.19.13.13,0,0,1-.12.09.38.38,0,0,1-.06.16,1.3,1.3,0,0,0-.1.15.33.33,0,0,0-.07.16.32.32,0,0,0,0,.21.31.31,0,0,0-.12.2,2,2,0,0,1-.05.24.42.42,0,0,1-.1.2.28.28,0,0,1-.26.07s0,0,0,.06,0,0,0,.08a.28.28,0,0,0-.19,0,.25.25,0,0,1-.16,0,.77.77,0,0,1-.37-.24,2.26,2.26,0,0,1-.25-.4,4.14,4.14,0,0,1-.2-.43c-.06-.15-.12-.28-.17-.39a.71.71,0,0,0,0-.25.58.58,0,0,0-.08-.21c.38-.81.8-1.68,1.25-2.6s.88-1.83,1.29-2.73a5.05,5.05,0,0,1,.53.24,2.33,2.33,0,0,1,.48.31,1.74,1.74,0,0,1,.37.4,1.39,1.39,0,0,1,.2.51s0,.07-.05.06,0,0,0,0a.21.21,0,0,1,0,.09v0s0,0,0,.07a.21.21,0,0,0,0,.11.08.08,0,0,0-.07,0s0,0-.07,0a.44.44,0,0,1,0,.21.34.34,0,0,1-.06.15.58.58,0,0,0,0,.14.25.25,0,0,0,0,.19l-.06,0a.05.05,0,0,0,0,0l0,0h-.06a2.91,2.91,0,0,1,0,.51c0,.17,0,.35,0,.52s0,.36,0,.55a2.54,2.54,0,0,0,.08.6A2.05,2.05,0,0,0,30.14,6a3.26,3.26,0,0,0,.41-.86,5.46,5.46,0,0,0,.24-1c.06-.36.11-.74.18-1.12a.76.76,0,0,0,.16-.26,3,3,0,0,0,.11-.32L31.33,2a1.43,1.43,0,0,1,.12-.31.64.64,0,0,1,.3.11L32,2l.23.19a.76.76,0,0,0,.29.11l.26.38a1,1,0,0,1,.15.4.67.67,0,0,0-.09.21l-.06.24a1,1,0,0,1-.1.21.37.37,0,0,1-.16.17,4.1,4.1,0,0,1-.09.56c0,.17-.07.33-.1.5a3.86,3.86,0,0,0-.09.51,3.58,3.58,0,0,0,0,.58c-.07.18-.13.37-.2.57s-.13.39-.17.55a1.28,1.28,0,0,0-.29.37c-.07.14-.14.28-.22.42s0,0-.06,0a.12.12,0,0,0-.08,0V8l0,0,0,0a.37.37,0,0,0,0,.09,1,1,0,0,0-.29.2,2.09,2.09,0,0,1-.28.24.74.74,0,0,1-.35.14,1.1,1.1,0,0,1-.53-.08,4.68,4.68,0,0,1-.85-.81A4,4,0,0,1,28.22,6.81Z"/><path class="cls-1" d="M39.14,2.34v.13s0,0,0,.07,0,0,0,.08a.35.35,0,0,0,0,.12,1.41,1.41,0,0,1-.57.55,3.16,3.16,0,0,1-.7.21l-.77.13a2.31,2.31,0,0,0-.78.31.32.32,0,0,0-.27,0,.65.65,0,0,1-.36,0,.37.37,0,0,1-.17.1l-.22.07a.41.41,0,0,1,0,.21.29.29,0,0,0,0,.19,5.55,5.55,0,0,0,.9,0l1-.06s0,.07,0,.08,0,0,0,.07a.67.67,0,0,1,.16.14l.17.17a.75.75,0,0,0,.17.14.31.31,0,0,0,.2,0,1.18,1.18,0,0,1,.07.2.46.46,0,0,1,0,.23l-.38.26a3.73,3.73,0,0,1-.39.25,3.2,3.2,0,0,1-.43.17,1.7,1.7,0,0,1-.51,0h-.09a.12.12,0,0,1-.08,0,.41.41,0,0,1-.26,0,.38.38,0,0,0-.27,0,.72.72,0,0,0-.31,0,1.08,1.08,0,0,1-.32,0,4,4,0,0,0-.34.53,4.58,4.58,0,0,0-.27.59,3.41,3.41,0,0,0,.66,0l.5,0L36,7.27a5.64,5.64,0,0,1,.62,0,1.84,1.84,0,0,1,.56-.17A2.56,2.56,0,0,0,37.75,7a.38.38,0,0,1,.17.12l.13.17a.86.86,0,0,0,.14.13.2.2,0,0,0,.17,0,.41.41,0,0,1,.07.11l0,.12a.18.18,0,0,0,0,.1s0,0,.1,0a1.74,1.74,0,0,1-.41.59,1.44,1.44,0,0,1-.52.31,3.85,3.85,0,0,1-.65.17L36.23,9a.35.35,0,0,1-.18,0,.38.38,0,0,0-.16,0c-.18,0-.4.08-.65.11a4.78,4.78,0,0,1-.76,0,3,3,0,0,1-.74-.1,1.14,1.14,0,0,1-.57-.31.39.39,0,0,1-.12-.19.29.29,0,0,0-.16-.17,2.54,2.54,0,0,0,0-.34c0-.12,0-.26-.07-.39s0-.27-.05-.41a1.06,1.06,0,0,1,0-.36.77.77,0,0,1,.14-.32A.33.33,0,0,0,33,6.2.08.08,0,0,0,33,6.13s0,0,.09,0a3.52,3.52,0,0,1,.16-.39c0-.13.11-.25.17-.37s.11-.23.17-.36a3,3,0,0,0,.17-.4.93.93,0,0,1-.24-.33,1.73,1.73,0,0,1-.11-.37l-.06-.37a1.8,1.8,0,0,0-.08-.39.89.89,0,0,1,.29-.29A1.16,1.16,0,0,1,34,2.64a2.43,2.43,0,0,1,.43-.12l.49-.11a7.79,7.79,0,0,1,.84-.23c.25-.06.49-.1.73-.14L37.19,2c.26,0,.55-.08.88-.15a.27.27,0,0,0,.2.11c0-.07.07-.09.11-.06s.06,0,0-.07a1.22,1.22,0,0,0,.3.34A1.78,1.78,0,0,0,39.14,2.34Z"/></svg>