<svg id="Layer_1" data-name="Layer 1" xmlns="http://www.w3.org/2000/svg" viewBox="0 0 40.07 8.93"><defs><style>.cls-1{fill:#f2f2f3;}</style></defs><path class="cls-1" d="M0,3.47c0-.12,0-.21,0-.29A.36.36,0,0,0,0,2.94c0-.12.06-.22.08-.29a.7.7,0,0,0,0-.29A1.31,1.31,0,0,1,.4,1.84a2.74,2.74,0,0,1,.48-.36,3.28,3.28,0,0,1,.54-.24A4.6,4.6,0,0,1,2,1.07,0,0,0,0,0,1.9,1s0,0,0-.06A8.87,8.87,0,0,0,3.15.62C3.57.47,4,.34,4.45.22A7.09,7.09,0,0,1,5.82,0,4.29,4.29,0,0,1,7.3.19a1.66,1.66,0,0,0,.13.27L7.6.71c.06.08.11.16.16.24a.73.73,0,0,1,.08.25,1.18,1.18,0,0,1,.23.27.5.5,0,0,1,0,.39l-.27.19-.29.18a3.5,3.5,0,0,0-1.06-.1c-.35,0-.67.05-1,.09a.37.37,0,0,0-.3-.14,1.24,1.24,0,0,0-.37.06l-.38.1a.76.76,0,0,1-.36,0,.64.64,0,0,1-.33.16l-.45.07a.07.07,0,0,0,0,.08s0,0,0,.09a.4.4,0,0,0,.22.15l.28.08A1.07,1.07,0,0,1,4.15,3a.32.32,0,0,1,.15.21.7.7,0,0,1,.36.11,1,1,0,0,1,.26.24.94.94,0,0,1,.15.3.62.62,0,0,1,0,.29c0,.08.06.11.1.09a.11.11,0,0,1,.12.06,1,1,0,0,0,.22.37,1.66,1.66,0,0,1,.26.41c0,.24,0,.45,0,.64a1.06,1.06,0,0,1-.1.55,2.84,2.84,0,0,1-.57.92,3.91,3.91,0,0,1-.85.72,6.43,6.43,0,0,1-1,.54,7.73,7.73,0,0,1-1,.38H2.17s0,0,0-.07a.39.39,0,0,1-.24.12,1.32,1.32,0,0,1-.29,0l-.32,0a1.63,1.63,0,0,0-.31,0L.81,8.7a.84.84,0,0,1-.12-.23.05.05,0,0,1,0-.07c0-.05,0-.07-.05-.07a.15.15,0,0,1,0-.07l0,0s.05-.05,0-.06l0,0-.06,0s0,0,0-.06a.42.42,0,0,0,0-.25l0-.3a.7.7,0,0,1,0-.29A.37.37,0,0,1,.79,7a2.67,2.67,0,0,0,.9,0,4,4,0,0,0,.81-.25,7.08,7.08,0,0,0,.73-.36l.67-.36A.64.64,0,0,1,4,5.74l.16-.16a.75.75,0,0,0,.15-.16.51.51,0,0,0,.11-.22.08.08,0,0,0,0-.07s0,0,0,0l0,0a.08.08,0,0,1,0-.07L4.26,5h0a3.67,3.67,0,0,0-.65-.26A2.79,2.79,0,0,1,3,4.45a.3.3,0,0,1-.28,0l-.34-.09a8.55,8.55,0,0,1-.93-.1,3.46,3.46,0,0,1-.85-.24L.53,3.94s-.08,0-.17,0A1.73,1.73,0,0,0,.19,3.7.91.91,0,0,1,0,3.47Z"/><path class="cls-1" d="M13,7.77a1.93,1.93,0,0,1-.21.4,1.61,1.61,0,0,1-.32.37,1.84,1.84,0,0,1-.4.26,1.26,1.26,0,0,1-.47.12.43.43,0,0,1-.2-.08l-.11-.07-.07,0-.05,0L11,8.64l0-.16a.13.13,0,0,0,0-.14.6.6,0,0,0-.14-.15l-.07-.07-.06-.07-.2-.22.32-.08a.77.77,0,0,0,.39-.21.67.67,0,0,0,.08-.44,1,1,0,0,0-.39,0l-.33.08-.42.1a2.45,2.45,0,0,1-.48,0H9.59l-.18,0-.12,0a.34.34,0,0,0,0-.15l-.05,0a.74.74,0,0,1-.12-.16.27.27,0,0,1,0-.25A.44.44,0,0,1,9,6.46a1,1,0,0,0-.11.29l0,.12-.11,0a.1.1,0,0,0,0,.05.2.2,0,0,0,0,.07l-.06.2,0,0s0,0,0,0l-.06.21c0,.07,0,.14-.07.2s-.07.2-.1.3a.72.72,0,0,0,0,.29l-.05.12a.49.49,0,0,1-.13.12l-.14.07a.09.09,0,0,1-.06,0l-.07,0,0,.13-.14,0-.18,0H7.21L7,8.69l-.17-.12a.52.52,0,0,1-.11-.21l0-.13a1,1,0,0,0,0-.12.09.09,0,0,0,0-.07L6.49,7.9l.13-.11v-.2c.16-.39.33-.78.5-1.14s.36-.75.55-1.13L7.86,5,8,4.57a.19.19,0,0,1,0-.08.52.52,0,0,1,0-.11A2.93,2.93,0,0,0,8.26,4l.17-.33c.06-.13.12-.26.19-.38a2.84,2.84,0,0,1,.25-.39l.19-.08.08,0,.11,0,.17,0A1.83,1.83,0,0,0,10,2.4a6.87,6.87,0,0,0,.5-.67l.12-.16.15.09a.48.48,0,0,0,.16.07l.23.06.39.11a.83.83,0,0,1,.31.17,1.3,1.3,0,0,1,.08.29,1.16,1.16,0,0,0,0,.18l.06.4c0,.13,0,.28,0,.45s.07.26.1.39.05.26.08.39l.12.55a2.21,2.21,0,0,0,.15.5h.11l.13,0,.14,0H13l.05.11s.05.08.12.12a.41.41,0,0,1,.22.07.69.69,0,0,1,.13.11l.09.07.18.07-.1.17a1.53,1.53,0,0,1-.33.41,2.07,2.07,0,0,1-.49.32.69.69,0,0,1,0,.13l0,.14.06.41a1.55,1.55,0,0,1,0,.43Zm-3.39-2,.64,0a6.36,6.36,0,0,0,.64-.1c-.06-.23-.12-.48-.18-.73s-.13-.51-.2-.76l-.07.12a5.09,5.09,0,0,0-.45.55,6.78,6.78,0,0,0-.37.57l-.14.22a2.39,2.39,0,0,0-.13.21l.14,0Z"/><path class="cls-1" d="M16.25,7.93a.87.87,0,0,1,0,.55.59.59,0,0,1-.28.3.93.93,0,0,1-.41.12,2.17,2.17,0,0,1-.45,0,1.57,1.57,0,0,1-.21-.41L14.68,8c0-.17-.1-.35-.14-.52s-.08-.32-.11-.46a1.38,1.38,0,0,0,.07-.32l0-.37c0-.12,0-.25,0-.38a2.22,2.22,0,0,1,0-.37,4.8,4.8,0,0,1,.24-.94,6.53,6.53,0,0,0,.25-.92.34.34,0,0,0,0-.2.28.28,0,0,1,0-.18.09.09,0,0,1,.07-.06.08.08,0,0,0,.07-.08.4.4,0,0,0,0-.21.32.32,0,0,1,0-.2,2.67,2.67,0,0,0,.15-.27.63.63,0,0,0,.06-.38l.2-.17.2-.17a1.16,1.16,0,0,1,.22-.13.67.67,0,0,1,.3-.06.62.62,0,0,1,.12.26l.06.28a1.14,1.14,0,0,0,.09.26.43.43,0,0,0,.2.2v.23a2.35,2.35,0,0,0,0,.27.92.92,0,0,0,.05.25.23.23,0,0,0,.14.15c-.14.37-.28.74-.4,1.11a11.42,11.42,0,0,0-.3,1.11,8.36,8.36,0,0,0-.14,1.12A4.81,4.81,0,0,0,16.25,7.93Z"/><path class="cls-1" d="M25.92,6.65a2,2,0,0,1-.74.77,4.57,4.57,0,0,1-1,.46c-.37.12-.76.23-1.16.32a8.72,8.72,0,0,0-1.16.37h-.29l-.24,0-.21,0-.24,0a0,0,0,0,0-.06,0,.09.09,0,0,1,0,.05,1.59,1.59,0,0,1-.36,0h-.26a1,1,0,0,0-.29,0,.61.61,0,0,1-.26,0,1.84,1.84,0,0,1-1.38-.63,2.65,2.65,0,0,1-.56-1.61s0-.06,0-.07l-.06,0a.54.54,0,0,1,0-.19.52.52,0,0,0,0-.22,7.81,7.81,0,0,1,.69-1.2,4.79,4.79,0,0,1,.93-1,.93.93,0,0,0,.14-.14,1.71,1.71,0,0,0,.11-.14.68.68,0,0,1,.12-.12.75.75,0,0,1,.18-.08,3.21,3.21,0,0,1,.58-.51q.34-.24.72-.45L21.86,2a4.15,4.15,0,0,0,.68-.48.21.21,0,0,0,.18,0,.28.28,0,0,1,.13,0,.51.51,0,0,0,.23.25,2.64,2.64,0,0,1,.29.15,1.67,1.67,0,0,1,.28.18.75.75,0,0,1,.2.28c-.05,0-.07,0-.07.05l0,.11a.18.18,0,0,1,0,.1s0,0-.09,0a.1.1,0,0,0,.08.07.05.05,0,0,1,.06.06.17.17,0,0,1,0,.1s0,.06,0,.11a5.08,5.08,0,0,1-.52.3c-.2.09-.39.19-.6.3L22.08,4a6.42,6.42,0,0,0-.65.41c-.21.16-.42.33-.64.52s-.43.4-.63.61a7.09,7.09,0,0,0-.58.65,5.26,5.26,0,0,0-.46.66.35.35,0,0,0,.06.09.36.36,0,0,1,.05.09,5.37,5.37,0,0,0,.7,0,2.05,2.05,0,0,1,.65,0,.1.1,0,0,0,0-.07A.13.13,0,0,1,20.68,7a9,9,0,0,0,1.25-.22c.38-.09.77-.2,1.17-.31l-.17-.06-.15-.05s0-.08,0-.1l.11-.09a.78.78,0,0,1-.27-.24.9.9,0,0,1-.12-.37.17.17,0,0,0,.07-.14.14.14,0,0,0-.07-.13h-.06v0l0,0s0,0-.06,0a.48.48,0,0,1,.05-.18A.59.59,0,0,0,22.48,5l.81-.54.31.21.39.22.43.22.4.22a1,1,0,0,1,.29.18,3,3,0,0,1,.25.25L25.6,6a1.21,1.21,0,0,0,.29.19.49.49,0,0,0,0,.25A.58.58,0,0,1,25.92,6.65Z"/><path class="cls-1" d="M32.27,5.24a.83.83,0,0,0,0,.27,2.41,2.41,0,0,0,.08.25,2.6,2.6,0,0,1,.1.25.84.84,0,0,1,.07.26,1.09,1.09,0,0,1,0,.36,1.53,1.53,0,0,1-.08.37,1.66,1.66,0,0,1-.15.33.66.66,0,0,1-.22.22,1.16,1.16,0,0,1-.4.33,1.77,1.77,0,0,0-.43.28,1,1,0,0,1-.29.11l-.32.07-.31.15L30,8.63a2.66,2.66,0,0,1-.38.1,1.79,1.79,0,0,1-.32,0,2.67,2.67,0,0,1-.69.17,2.4,2.4,0,0,1-.78-.05,2,2,0,0,1-1.41-.33,1.9,1.9,0,0,1-.48-.5,3,3,0,0,1-.34-.6,3.2,3.2,0,0,1,.05-1.21,4.09,4.09,0,0,1,.4-1,5.81,5.81,0,0,1,.61-.86l.65-.76a.16.16,0,0,0,.12,0l.07-.08.08-.1a.21.21,0,0,1,.1-.06.51.51,0,0,1,.24-.26.69.69,0,0,0,.25-.26.36.36,0,0,0,.18-.07l.13-.1.14-.11a.4.4,0,0,1,.16-.08V2.33a.84.84,0,0,0,.31-.21l.24-.3h.17l.19,0a1.54,1.54,0,0,1,.17-.24.92.92,0,0,1,.23-.18.85.85,0,0,0,.31.09.49.49,0,0,1,.3.16.36.36,0,0,0,.07.18.69.69,0,0,0,.13.11L31,2a.27.27,0,0,1,.08.16.08.08,0,0,0,.07,0s0,0,.06,0a.56.56,0,0,0,.08.21.51.51,0,0,1,.1.21,1.17,1.17,0,0,0-.09.24.27.27,0,0,1-.15.18c0,.06,0,.08.05.09a.07.07,0,0,1,.07.06.2.2,0,0,1,0,.16,8.67,8.67,0,0,1,.5,1A9.83,9.83,0,0,0,32.27,5.24ZM30.81,6.35a.72.72,0,0,1,.12-.21A.4.4,0,0,0,31,5.9.85.85,0,0,1,31,5.75a.76.76,0,0,1,0-.17,5,5,0,0,1-.45-.78A4.84,4.84,0,0,0,30.07,4a.32.32,0,0,1-.08.09s-.08,0-.13,0a.27.27,0,0,1-.08.14.28.28,0,0,1-.13,0l-.15,0a.57.57,0,0,1-.13-.08l-.68.53a3.41,3.41,0,0,0-.61.59s0,0-.06,0l-.07,0a1.74,1.74,0,0,1-.23.4l-.26.37a3.18,3.18,0,0,0-.23.4,1.47,1.47,0,0,0-.1.49.87.87,0,0,0,.47.2,2,2,0,0,0,.55,0,5.22,5.22,0,0,0,.57-.07,2.32,2.32,0,0,1,.51-.05,3.42,3.42,0,0,0,.84-.32Z"/><path class="cls-1" d="M35.39,6.62a.23.23,0,0,0-.15.12L35.15,7c0,.07,0,.13-.08.19a.14.14,0,0,1-.12.09.36.36,0,0,1-.07.17l-.1.14a.87.87,0,0,0-.07.17.37.37,0,0,0,0,.2.29.29,0,0,0-.11.2l-.06.25a.54.54,0,0,1-.1.2.33.33,0,0,1-.25.07s0,0,0,0a.22.22,0,0,1,0,.09.28.28,0,0,0-.19,0,.44.44,0,0,1-.16.06.79.79,0,0,1-.37-.25,2.65,2.65,0,0,1-.26-.39c-.07-.15-.14-.29-.2-.44a3.76,3.76,0,0,0-.17-.39.43.43,0,0,0,0-.25.49.49,0,0,0-.08-.21c.39-.81.8-1.68,1.26-2.6S35,2.48,35.36,1.58c.18.07.35.15.53.24a3.94,3.94,0,0,1,.48.31,2.05,2.05,0,0,1,.37.41,1.27,1.27,0,0,1,.2.51s0,.06-.06.05,0,0-.05,0,.05.06.05.08a0,0,0,0,1,0,0v.06a.26.26,0,0,0,0,.11.06.06,0,0,0-.06,0s0,0-.08,0a.46.46,0,0,1,0,.22.58.58,0,0,1,0,.14l-.06.14a.47.47,0,0,0,0,.2h-.05l0,0,0,0s0,0-.05,0a2.9,2.9,0,0,1,0,.51c0,.18,0,.35,0,.53s0,.36,0,.55a4.17,4.17,0,0,0,.08.59,2.17,2.17,0,0,0,.68-.63,4.36,4.36,0,0,0,.41-.87,7.77,7.77,0,0,0,.24-1c0-.37.11-.74.17-1.13a.69.69,0,0,0,.17-.26,2.42,2.42,0,0,0,.1-.32l.1-.34a2.83,2.83,0,0,1,.11-.31.67.67,0,0,1,.3.11,2.11,2.11,0,0,1,.23.19l.22.19a.67.67,0,0,0,.3.11,4.25,4.25,0,0,1,.25.39,1.09,1.09,0,0,1,.16.4.67.67,0,0,0-.09.21c0,.07,0,.15-.07.23a.85.85,0,0,1-.09.22.64.64,0,0,1-.16.17c0,.2-.06.39-.09.55s-.07.34-.11.5-.06.34-.08.51a2.71,2.71,0,0,0,0,.58l-.2.58A5.35,5.35,0,0,0,39,7a1,1,0,0,0-.29.36l-.23.42s0,0-.06,0,0,0-.08,0a.08.08,0,0,1,0,.07l0,0a.08.08,0,0,0,0,0,.2.2,0,0,0,0,.1.83.83,0,0,0-.3.2,2,2,0,0,1-.27.23.83.83,0,0,1-.35.14,1,1,0,0,1-.54-.08A4.35,4.35,0,0,1,36,7.71,4.05,4.05,0,0,1,35.39,6.62Z"/></svg>