<svg width="58" height="28" viewBox="0 0 58 28" fill="none" xmlns="http://www.w3.org/2000/svg">
<path d="M0 24H4V28C1.79086 28 0 26.2091 0 24Z" fill="#9E1D16"/>
<path d="M0 4C0 1.79086 1.79086 0 4 0H46C52.6274 0 58 5.37258 58 12C58 18.6274 52.6274 24 46 24H0V4Z" fill="#E03C31"/>
<path d="M15.0576 16H13.4463L10.3096 10.8545V16H8.69824V8.17969H10.3096L13.4517 13.3359V8.17969H15.0576V16ZM22.8887 12.2671C22.8887 13.0369 22.7526 13.7119 22.4805 14.292C22.2083 14.8721 21.818 15.3197 21.3096 15.6348C20.8047 15.9499 20.2246 16.1074 19.5693 16.1074C18.9212 16.1074 18.3429 15.9517 17.8345 15.6401C17.326 15.3286 16.9321 14.8846 16.6528 14.3081C16.3735 13.728 16.2321 13.062 16.2285 12.3101V11.9233C16.2285 11.1535 16.3664 10.4767 16.6421 9.89307C16.9214 9.30583 17.3135 8.85645 17.8184 8.54492C18.3268 8.22982 18.9069 8.07227 19.5586 8.07227C20.2103 8.07227 20.7886 8.22982 21.2935 8.54492C21.8019 8.85645 22.194 9.30583 22.4697 9.89307C22.749 10.4767 22.8887 11.1517 22.8887 11.918V12.2671ZM21.2559 11.9126C21.2559 11.0926 21.109 10.4696 20.8154 10.0435C20.5218 9.61735 20.1029 9.4043 19.5586 9.4043C19.0179 9.4043 18.6007 9.61556 18.3071 10.0381C18.0135 10.457 17.8649 11.0729 17.8613 11.8857V12.2671C17.8613 13.0656 18.0081 13.6851 18.3018 14.1255C18.5954 14.5659 19.0179 14.7861 19.5693 14.7861C20.11 14.7861 20.5254 14.5749 20.8154 14.1523C21.1055 13.7262 21.2523 13.1068 21.2559 12.2939V11.9126ZM21.5137 7.7876H20.4019L19.5479 7.06787L18.6885 7.7876H17.5767L19.0806 6.55225H20.0151L21.5137 7.7876ZM21.0142 7.10547L20.9443 6.49316C21.1663 6.48242 21.3257 6.45557 21.4224 6.4126C21.5226 6.36605 21.5728 6.29622 21.5728 6.20312C21.5728 5.98828 21.3561 5.88086 20.9229 5.88086L20.9551 5.27393C21.4743 5.27393 21.8646 5.3527 22.126 5.51025C22.3874 5.66423 22.5181 5.87907 22.5181 6.15479C22.5181 6.32666 22.4572 6.47347 22.3354 6.59521C22.2173 6.71338 22.0526 6.78499 21.8413 6.81006L21.8359 7.10547H21.0142ZM25.7729 16H24.1616V8.17969H25.7729V16ZM30.0107 16V8.17969H32.75C33.6989 8.17969 34.4186 8.3623 34.9092 8.72754C35.3997 9.08919 35.645 9.62093 35.645 10.3228C35.645 10.7059 35.5465 11.0443 35.3496 11.3379C35.1527 11.6279 34.8787 11.841 34.5278 11.9771C34.9289 12.0773 35.244 12.2796 35.4731 12.584C35.7059 12.8883 35.8223 13.2607 35.8223 13.7012C35.8223 14.4531 35.5824 15.0225 35.1025 15.4092C34.6227 15.7959 33.9388 15.9928 33.0508 16H30.0107ZM31.6221 12.5947V14.7056H33.0024C33.382 14.7056 33.6774 14.616 33.8887 14.437C34.1035 14.2544 34.2109 14.0037 34.2109 13.6851C34.2109 12.9689 33.8403 12.6055 33.0991 12.5947H31.6221ZM31.6221 11.4561H32.8145C33.6273 11.4417 34.0337 11.1177 34.0337 10.4839C34.0337 10.1294 33.9299 9.87516 33.7222 9.72119C33.5181 9.56364 33.194 9.48486 32.75 9.48486H31.6221V11.4561ZM41.4512 14.3887H38.626L38.0889 16H36.3755L39.2866 8.17969H40.7798L43.707 16H41.9937L41.4512 14.3887ZM39.061 13.0835H41.0161L40.0332 10.1562L39.061 13.0835ZM42.1172 7.58887V7.65332H40.8818L40.0547 6.87451L39.2275 7.65332H38.0137V7.56738L39.6035 6.08496H40.5059L42.1172 7.58887ZM39.2168 17.2246C39.2168 17.0098 39.2974 16.8325 39.4585 16.6929C39.6196 16.5532 39.8273 16.4834 40.0815 16.4834C40.3394 16.4834 40.5488 16.5532 40.71 16.6929C40.8711 16.8325 40.9517 17.0098 40.9517 17.2246C40.9517 17.4359 40.8711 17.6131 40.71 17.7563C40.5524 17.8996 40.3429 17.9712 40.0815 17.9712C39.8201 17.9712 39.6107 17.8996 39.4531 17.7563C39.2956 17.6131 39.2168 17.4359 39.2168 17.2246ZM49.6797 9.48486H47.2842V16H45.6729V9.48486H43.3096V8.17969H49.6797V9.48486Z" fill="white"/>
</svg>
