<svg xmlns="http://www.w3.org/2000/svg" width="63.666" height="35.092" viewBox="0 0 63.666 35.092">
    <path id="Path_133" fill="#fff" d="M29.2 108.229h-.752a14.325 14.325 0 0 1-7.619-2.19 18.323 18.323 0 0 0-8.3-2.16h-.305a.834.834 0 0 1 0-1.667c.393 0 2.183.186 2.5.2l.108.006.489-7.991.016-.025a.832.832 0 0 1 .7-.381h1.9l2.57-3.426a1.887 1.887 0 0 1 1.5-.751h5.738l3.346-6.69h-6.977a2.921 2.921 0 1 1 0-5.843h10.118L32.975 74.8h-3.663a.833.833 0 0 1 0-1.665H40.8a.833.833 0 1 1 0 1.665h-5.963l1.256 2.513h10.9a5.985 5.985 0 0 1 5.392 3.346l.557 1.111 11.1 8.076h9.126a1.876 1.876 0 0 1 1.431 3.1l-10.7 12.889.932-.523c.459-.22.9-.46 1.321-.693l.1-.055a14.355 14.355 0 0 1 7.618-2.188h.328a.834.834 0 1 1 .014 1.667h-.3a12.819 12.819 0 0 0-6.877 2 14.359 14.359 0 0 1-7.622 2.188h-.687a14.359 14.359 0 0 1-7.626-2.19 12.824 12.824 0 0 0-6.877-1.994h-.602a12.821 12.821 0 0 0-6.865 1.99l-.073.04c-.482.265-.981.538-1.505.791a13.91 13.91 0 0 1-5.978 1.361zm15.069-5.854a14.379 14.379 0 0 1 7.626 2.19 12.806 12.806 0 0 0 6.875 2h.33a15.959 15.959 0 0 0 2.054-.134l.082-.011 12.38-14.9h-7.991v-.007H49.989v1.256a2.925 2.925 0 0 1-2.922 2.921H17.034l-.377 6.94.358.082a15.556 15.556 0 0 1 4.6 1.856 12.793 12.793 0 0 0 6.87 1.993h.61a12.8 12.8 0 0 0 6.872-2 14.343 14.343 0 0 1 7.62-2.191h.379c.104.006.201.004.299.004zm2.8-8.349a1.258 1.258 0 0 0 1.257-1.256v-1.257H21.907l-1.884 2.513zm14.149-4.178l-3.453-2.513H42.89a2.925 2.925 0 0 1-2.922-2.921v-1.256h-7.007l-3.346 6.69zm-19.585-5.434a1.258 1.258 0 0 0 1.257 1.256h12.582l-3.453-2.513H41.633zM24.114 78.98a1.256 1.256 0 1 0 0 2.513h26.829l-.181-.315a4.365 4.365 0 0 0-3.782-2.2z" data-name="Path 133" transform="translate(-11.389 -73.137)"/>
</svg>
