<svg xmlns="http://www.w3.org/2000/svg" width="52" height="52" viewBox="0 0 52 52">
    <defs>
        <style>
            .cls-1{fill:#fff}
        </style>
    </defs>
    <g id="Group_36" data-name="Group 36" transform="translate(-44.094 -43.343)">
        <path id="Path_112" d="M54.9 181.307h-1.632a7.651 7.651 0 0 1-.007-15.3h.039a7.66 7.66 0 0 1 7.615 7.65.762.762 0 1 0 1.523 0 9.186 9.186 0 0 0-8.41-9.142v-.112a8.495 8.495 0 0 1 1.041-4.077.762.762 0 0 0-1.336-.733 10.03 10.03 0 0 0-1.228 4.81v.111a9.175 9.175 0 0 0 .761 18.318H54.9a.762.762 0 1 0 0-1.523zm0 0" class="cls-1" data-name="Path 112" transform="translate(0 -87.487)"/>
        <path id="Path_113" d="M128.317 70.99a17.48 17.48 0 0 0 3.159-10.06v-.03a1.3 1.3 0 0 0-2.482-.52 11.018 11.018 0 1 1-14.557-14.557 1.3 1.3 0 0 0-.521-2.481h-.028a17.59 17.59 0 0 0-16.537 23.573 9.992 9.992 0 0 0-6.15 2.558.762.762 0 1 0 1.02 1.131 8.493 8.493 0 0 1 13.786 3.761 5.81 5.81 0 0 0-2.974 5.073.762.762 0 1 0 1.523 0 4.285 4.285 0 0 1 2.638-3.958h.007a4.288 4.288 0 0 1 5.517 2.131.762.762 0 0 0 1.125.3 5.968 5.968 0 0 1 9.193 3.408.759.759 0 0 0 .761.572s.142-.005.187-.005a5.969 5.969 0 1 1-5.969 5.969.762.762 0 0 0-1.524 0 7.486 7.486 0 0 0 2.97 5.968H93.333a.762.762 0 0 0 0 1.523h30.652a7.492 7.492 0 0 0 .356-14.976 7.466 7.466 0 0 0-2.707-3.645 17.569 17.569 0 0 0 6.683-5.733zm-8.372 4.821a7.493 7.493 0 0 0-6.268.41 5.816 5.816 0 0 0-6.251-2.418A10.01 10.01 0 0 0 99 66.962a15.924 15.924 0 0 1-1.173-6.031 16.085 16.085 0 0 1 15.06-16.031 12.541 12.541 0 0 0 5.986 23.524h.064a12.555 12.555 0 0 0 10.985-6.487 16.182 16.182 0 0 1-9.976 13.875zm0 0" class="cls-1" data-name="Path 113" transform="translate(-35.383)"/>
        <path id="Path_114" d="M106.7 53.421h.921v.92a.762.762 0 1 0 1.523 0v-.92h.921a.762.762 0 1 0 0-1.523h-.921v-.921a.762.762 0 1 0-1.523 0v.923h-.921a.762.762 0 0 0 0 1.523zm0 0" class="cls-1" data-name="Path 114" transform="translate(-46.703 -5.189)"/>
        <path id="Path_115" d="M79.215 91.216a.762.762 0 0 0 .762-.762v-1.682a.762.762 0 0 0-1.523 0v1.683a.762.762 0 0 0 .762.762zm0 0" class="cls-1" data-name="Path 115" transform="translate(-25.946 -33.731)"/>
        <path id="Path_116" d="M79.215 118.7a.762.762 0 0 0 .762-.762v-1.682a.762.762 0 1 0-1.523 0v1.682a.761.761 0 0 0 .762.762zm0 0" class="cls-1" data-name="Path 116" transform="translate(-25.946 -54.489)"/>
        <path id="Path_117" d="M89.523 106.712h1.683a.762.762 0 1 0 0-1.523h-1.683a.762.762 0 1 0 0 1.523zm0 0" class="cls-1" data-name="Path 117" transform="translate(-33.73 -46.703)"/>
        <path id="Path_118" d="M62.035 106.712h1.683a.762.762 0 0 0 0-1.523h-1.683a.762.762 0 1 0 0 1.523zm0 0" class="cls-1" data-name="Path 118" transform="translate(-12.973 -46.703)"/>
        <path id="Path_119" d="M216.653 70.6a.761.761 0 0 0 .762-.762v-1.681a.762.762 0 0 0-1.523 0v1.683a.762.762 0 0 0 .762.762zm0 0" class="cls-1" data-name="Path 119" transform="translate(-129.733 -18.163)"/>
        <path id="Path_120" d="M216.653 98.088a.761.761 0 0 0 .762-.762v-1.682a.762.762 0 0 0-1.523 0v1.683a.762.762 0 0 0 .762.762zm0 0" class="cls-1" data-name="Path 120" transform="translate(-129.733 -38.92)"/>
        <path id="Path_121" d="M226.961 86.1h1.683a.762.762 0 0 0 0-1.523h-1.683a.762.762 0 1 0 0 1.523zm0 0" class="cls-1" data-name="Path 121" transform="translate(-137.517 -31.137)"/>
        <path id="Path_122" d="M199.473 86.1h1.683a.762.762 0 1 0 0-1.523h-1.683a.762.762 0 1 0 0 1.523zm0 0" class="cls-1" data-name="Path 122" transform="translate(-116.76 -31.137)"/>
    </g>
</svg>
