<svg xmlns="http://www.w3.org/2000/svg" width="57" height="35.827" viewBox="0 0 57 35.827">
    <g id="Group_37" data-name="Group 37" transform="translate(-20.627 -68.037)">
        <path id="Path_123" fill="#fff" d="M72.131 68.037H26.123a5.514 5.514 0 0 0-5.5 5.485v23.929a.854.854 0 0 0 .843.831h3.735a6.214 6.214 0 0 0 12.364 0h23.7a6.214 6.214 0 0 0 12.364 0h3.153a.854.854 0 0 0 .843-.831V73.522a5.514 5.514 0 0 0-5.5-5.485zM76 73.522v11.033H65.384a2.769 2.769 0 0 1-2.763-2.791v-12.1h9.51A3.883 3.883 0 0 1 76 73.522zM50.523 80.6v-6.165h10.469V80.6zm-23.731 0v-6.165H36.1V80.6zm10.935-6.165h11.167V80.6H37.727zm-6.34 27.784a4.585 4.585 0 1 1 4.585-4.585 4.585 4.585 0 0 1-4.585 4.585zm36.061 0a4.585 4.585 0 1 1 4.586-4.585 4.585 4.585 0 0 1-4.586 4.585zm6.133-5.566a6.213 6.213 0 0 0-12.266 0H37.52a6.213 6.213 0 0 0-12.265 0h-3V73.522a3.884 3.884 0 0 1 3.868-3.857h34.869v3.141H26a.794.794 0 0 0-.836.767v7.9a.786.786 0 0 0 .836.756h35a4.461 4.461 0 0 0 4.389 3.955H76v10.469zm0 0" data-name="Path 123"/>
    </g>
</svg>
