<svg xmlns="http://www.w3.org/2000/svg" width="54.086" height="61.668" viewBox="0 0 54.086 61.668">
    <defs>
        <style>
            .cls-1{fill:#e0ad1f}
        </style>
    </defs>
    <g id="medal" transform="translate(-31.475)">
        <g id="Group_3906" data-name="Group 3906" transform="translate(31.475 .651)">
            <g id="Group_3905" data-name="Group 3905">
                <path id="Path_59" d="M40.818 5.407l-8 4.032a2.425 2.425 0 0 0-1.118 3.183l12.974 28.425a17.856 17.856 0 0 1 8.8-5.894z" class="cls-1" data-name="Path 59" transform="translate(-31.475 -5.407)"/>
            </g>
        </g>
        <g id="Group_3908" data-name="Group 3908" transform="translate(44.489)">
            <g id="Group_3907" data-name="Group 3907">
                <path id="Path_60" d="M139.527 0l3.706 8.118h20.646L167.584 0z" class="cls-1" data-name="Path 60" transform="translate(-139.527)"/>
            </g>
        </g>
        <g id="Group_3910" data-name="Group 3910" transform="translate(63.561 .651)">
            <g id="Group_3909" data-name="Group 3909">
                <path id="Path_61" d="M318.532 9.439l-8-4.032-12.659 29.746a17.856 17.856 0 0 1 8.8 5.894l12.977-28.425a2.425 2.425 0 0 0-1.118-3.183z" class="cls-1" data-name="Path 61" transform="translate(-297.873 -5.407)"/>
            </g>
        </g>
        <g id="Group_3912" data-name="Group 3912" transform="translate(44.324 33.28)">
            <g id="Group_3911" data-name="Group 3911">
                <path id="Path_62" d="M152.347 276.307a14.194 14.194 0 1 0 14.194 14.193 14.21 14.21 0 0 0-14.194-14.193zm6.68 13.749l-1.706 1.239a1.575 1.575 0 0 0-.572 1.76l.651 2.005a1.574 1.574 0 0 1-2.423 1.76l-1.706-1.239a1.575 1.575 0 0 0-1.851 0l-1.706 1.239a1.574 1.574 0 0 1-2.423-1.76l.651-2.005a1.574 1.574 0 0 0-.572-1.76l-1.706-1.239a1.574 1.574 0 0 1 .925-2.848h2.111a1.574 1.574 0 0 0 1.5-1.088l.651-2.005a1.574 1.574 0 0 1 2.995 0l.651 2.005a1.574 1.574 0 0 0 1.5 1.088h2.103a1.574 1.574 0 0 1 .927 2.848z" class="cls-1" data-name="Path 62" transform="translate(-138.153 -276.307)"/>
            </g>
        </g>
    </g>
</svg>
